<?xml version="1.0" encoding="UTF-8"?>
<svg id="_레이어_2" data-name="레이어 2" xmlns="http://www.w3.org/2000/svg" viewBox="0 0 1054.26 574.55">
  <g id="_레이어_1-2" data-name="레이어 1">
    <g>
      <path d="M27.54,157.58c-8.57-3.75-15.3-9.07-20.2-15.95-4.9-6.89-7.34-14.92-7.34-24.1h28c.61,6.89,3.33,12.55,8.15,16.99,4.82,4.44,11.59,6.66,20.31,6.66s16.07-2.18,21.12-6.54,7.58-9.99,7.58-16.87c0-5.35-1.57-9.72-4.71-13.08-3.14-3.36-7.04-5.97-11.71-7.8-4.67-1.84-11.13-3.82-19.4-5.97-10.41-2.75-18.86-5.54-25.36-8.38-6.51-2.83-12.05-7.23-16.64-13.2C2.75,63.35.46,55.4.46,45.45c0-9.18,2.29-17.22,6.89-24.1,4.59-6.89,11.02-12.17,19.28-15.84C34.89,1.84,44.45,0,55.32,0c15.46,0,28.12,3.87,37.99,11.59,9.87,7.73,15.34,18.33,16.41,31.79h-28.92c-.46-5.81-3.21-10.79-8.26-14.92s-11.71-6.2-19.97-6.2c-7.5,0-13.62,1.92-18.36,5.74-4.75,3.83-7.12,9.34-7.12,16.53,0,4.9,1.49,8.92,4.48,12.05,2.98,3.14,6.77,5.62,11.36,7.46,4.59,1.84,10.86,3.83,18.82,5.97,10.56,2.91,19.17,5.82,25.82,8.72,6.66,2.91,12.32,7.38,16.99,13.43,4.67,6.05,7,14.12,7,24.22,0,8.11-2.18,15.76-6.54,22.95-4.36,7.2-10.71,12.97-19.05,17.33-8.34,4.36-18.17,6.54-29.5,6.54-10.71,0-20.35-1.87-28.92-5.62Z"/>
      <path d="M236.42,2.07v21.35h-42.46v138.18h-26.17V23.41h-42.69V2.07h111.33Z"/>
      <path d="M281.81,23.18v46.83h55.09v21.35h-55.09v48.89h61.98v21.35h-88.14V1.84h88.14v21.35h-61.98Z"/>
      <path d="M474.56,72.53c-3.83,7.2-9.95,13.05-18.36,17.56-8.42,4.52-19.21,6.77-32.37,6.77h-28.92v64.73h-26.17V2.07h55.09c12.24,0,22.61,2.11,31.1,6.31,8.49,4.21,14.84,9.91,19.05,17.1,4.21,7.2,6.31,15.23,6.31,24.1,0,8.11-1.92,15.76-5.74,22.95ZM446.09,68.75c4.9-4.51,7.34-10.9,7.34-19.17,0-17.44-9.87-26.17-29.61-26.17h-28.92v52.11h28.92c9.95,0,17.37-2.26,22.27-6.77Z"/>
      <path d="M585.39,2.07v159.53h-26.17V2.07h26.17Z"/>
      <path d="M755.48,161.6h-26.17l-78.73-119.13v119.13h-26.17V1.84h26.17l78.73,118.9V1.84h26.17v159.76Z"/>
      <path d="M890.38,2.07v21.35h-42.46v138.18h-26.17V23.41h-42.69V2.07h111.33Z"/>
      <path d="M931.8,152.76c-12.47-6.96-22.34-16.68-29.61-29.15-7.27-12.47-10.9-26.51-10.9-42.12s3.63-29.61,10.9-42.01c7.27-12.39,17.14-22.07,29.61-29.04,12.47-6.96,26.13-10.44,40.97-10.44s28.73,3.48,41.2,10.44c12.47,6.96,22.3,16.64,29.5,29.04,7.19,12.4,10.79,26.4,10.79,42.01s-3.6,29.65-10.79,42.12c-7.19,12.47-17.03,22.19-29.5,29.15-12.47,6.96-26.21,10.44-41.2,10.44s-28.5-3.48-40.97-10.44ZM1001,133.25c8.26-4.82,14.73-11.71,19.4-20.66,4.67-8.95,7-19.32,7-31.1s-2.33-22.11-7-30.99c-4.67-8.87-11.13-15.68-19.4-20.43-8.26-4.74-17.67-7.12-28.23-7.12s-19.97,2.37-28.23,7.12c-8.26,4.75-14.73,11.56-19.4,20.43-4.67,8.88-7,19.21-7,30.99s2.33,22.15,7,31.1c4.67,8.95,11.13,15.84,19.4,20.66s17.67,7.23,28.23,7.23,19.97-2.41,28.23-7.23Z"/>
      <path d="M113.97,207.74v21.35h-42.46v138.18h-26.17v-138.18H2.64v-21.35h111.33Z"/>
      <path d="M259.02,207.74v159.53h-26.17v-69.78h-75.06v69.78h-26.17v-159.53h26.17v68.4h75.06v-68.4h26.17Z"/>
      <path d="M306.29,228.86v46.83h55.09v21.35h-55.09v48.89h61.98v21.35h-88.14v-159.76h88.14v21.35h-61.98Z"/>
      <path d="M649.76,367.27h-26.17l-78.73-119.13v119.13h-26.17v-159.76h26.17l78.73,118.9v-118.9h26.17v159.76Z"/>
      <path d="M701.21,228.86v46.83h55.09v21.35h-55.09v48.89h61.98v21.35h-88.14v-159.76h88.14v21.35h-61.98Z"/>
      <path d="M865.4,287.62l49.58,79.65h-29.38l-36.04-57.84-33.74,57.84h-29.15l49.58-79.65-49.81-79.88h29.38l36.27,58.3,33.97-58.3h29.15l-49.81,79.88Z"/>
      <path d="M1042.99,207.74v21.35h-42.46v138.18h-26.17v-138.18h-42.69v-21.35h111.33Z"/>
      <path d="M102.37,413.41v21.35H34.66v47.06h52.79v21.35h-52.79v69.78H8.49v-159.53h93.88Z"/>
      <path d="M210.27,572.94l-36.73-63.81h-19.97v63.81h-26.17v-159.53h55.09c12.24,0,22.61,2.15,31.1,6.43,8.49,4.29,14.84,10.02,19.05,17.21,4.21,7.2,6.31,15.23,6.31,24.1,0,10.41-3.02,19.86-9.07,28.35-6.05,8.49-15.34,14.27-27.89,17.33l39.48,66.11h-31.22ZM153.58,488.24h28.92c9.79,0,17.18-2.45,22.15-7.34,4.97-4.9,7.46-11.48,7.46-19.74s-2.45-14.73-7.34-19.4c-4.9-4.67-12.32-7-22.27-7h-28.92v53.48Z"/>
      <path d="M294.79,564.1c-12.47-6.96-22.34-16.68-29.61-29.15-7.27-12.47-10.9-26.51-10.9-42.12s3.63-29.61,10.9-42.01c7.27-12.39,17.14-22.07,29.61-29.04,12.47-6.96,26.13-10.44,40.97-10.44s28.73,3.48,41.2,10.44c12.47,6.96,22.3,16.64,29.5,29.04,7.19,12.4,10.79,26.4,10.79,42.01s-3.6,29.65-10.79,42.12c-7.19,12.47-17.03,22.19-29.5,29.15-12.47,6.96-26.21,10.44-41.2,10.44s-28.5-3.48-40.97-10.44ZM364,544.59c8.26-4.82,14.73-11.71,19.4-20.66,4.67-8.95,7-19.32,7-31.1s-2.33-22.11-7-30.99c-4.67-8.87-11.13-15.68-19.4-20.43-8.26-4.74-17.67-7.12-28.23-7.12s-19.97,2.37-28.23,7.12c-8.26,4.75-14.73,11.56-19.4,20.43-4.67,8.88-7,19.21-7,30.99s2.33,22.15,7,31.1c4.67,8.95,11.13,15.84,19.4,20.66s17.67,7.23,28.23,7.23,19.97-2.41,28.23-7.23Z"/>
      <path d="M570.73,572.94h-26.17l-78.73-119.13v119.13h-26.17v-159.76h26.17l78.73,118.9v-118.9h26.17v159.76Z"/>
      <path d="M708.93,413.41v21.35h-42.46v138.18h-26.17v-138.18h-42.69v-21.35h111.33Z"/>
      <path d="M765.79,413.41v159.53h-26.17v-159.53h26.17Z"/>
      <path d="M829.69,434.53v46.83h55.09v21.35h-55.09v48.89h61.98v21.35h-88.14v-159.76h88.14v21.35h-61.98Z"/>
      <path d="M1005.37,572.94l-36.73-63.81h-19.97v63.81h-26.17v-159.53h55.09c12.24,0,22.61,2.15,31.1,6.43,8.49,4.29,14.84,10.02,19.05,17.21,4.21,7.2,6.31,15.23,6.31,24.1,0,10.41-3.02,19.86-9.07,28.35-6.05,8.49-15.34,14.27-27.89,17.33l39.48,66.11h-31.22ZM948.67,488.24h28.92c9.79,0,17.18-2.45,22.15-7.34,4.97-4.9,7.46-11.48,7.46-19.74s-2.45-14.73-7.34-19.4c-4.9-4.67-12.32-7-22.27-7h-28.92v53.48Z"/>
    </g>
  </g>
</svg>