<svg width="234" height="274" viewBox="0 0 234 274" fill="none" xmlns="http://www.w3.org/2000/svg">
<g opacity="0.15" clip-path="url(#clip0_651_978)">
<path d="M191.774 268.59H161.373V269.344H191.774V268.59Z" fill="white"/>
<path d="M71.4832 268.59H41.0858V269.344H71.4832V268.59Z" fill="white"/>
<path d="M86.8895 271.672H82.602L81.8132 273.9H80.4583L84.0135 263.933H85.493L89.0332 273.9H87.6783L86.8895 271.672ZM86.5234 270.606L84.7457 265.546L82.9681 270.606H86.5234Z" fill="white"/>
<path d="M95.9853 263.876V264.942H93.3056V273.9H92.0224V264.942H89.3276V263.876H95.9853Z" fill="white"/>
<path d="M105.557 263.876V273.9H104.273V269.355H99.265V273.9H97.9818V263.876H99.265V268.274H104.273V263.876H105.557Z" fill="white"/>
<path d="M109.697 264.941V268.293H113.279V269.371H109.697V272.822H113.701V273.9H108.414V263.864H113.701V264.941H109.697Z" fill="white"/>
<path d="M121.238 273.9L118.898 269.802H117.347V273.9H116.064V263.876H119.238C119.982 263.876 120.608 264.006 121.121 264.264C121.635 264.522 122.016 264.872 122.269 265.315C122.522 265.757 122.65 266.258 122.65 266.823C122.65 267.512 122.454 268.124 122.065 268.651C121.676 269.178 121.091 269.529 120.31 269.702L122.778 273.9H121.242H121.238ZM117.347 268.751H119.238C119.933 268.751 120.457 268.578 120.804 268.228C121.152 267.878 121.325 267.412 121.325 266.827C121.325 266.242 121.155 265.773 120.812 265.446C120.468 265.119 119.944 264.957 119.238 264.957H117.347V268.751Z" fill="white"/>
<path d="M130.946 263.876V264.942H128.266V273.9H126.983V264.942H124.288V263.876H130.946Z" fill="white"/>
<path d="M134.384 273.346C133.633 272.911 133.037 272.299 132.599 271.518C132.161 270.737 131.942 269.856 131.942 268.878C131.942 267.901 132.161 267.019 132.599 266.238C133.037 265.457 133.629 264.849 134.384 264.41C135.135 263.976 135.969 263.756 136.879 263.756C137.788 263.756 138.637 263.976 139.389 264.41C140.14 264.845 140.732 265.453 141.166 266.231C141.6 267.008 141.815 267.889 141.815 268.878C141.815 269.867 141.6 270.748 141.166 271.526C140.732 272.303 140.14 272.907 139.389 273.346C138.637 273.781 137.8 274 136.879 274C135.958 274 135.135 273.781 134.384 273.346ZM138.736 272.376C139.287 272.049 139.717 271.583 140.034 270.979C140.347 270.375 140.506 269.675 140.506 268.878C140.506 268.082 140.347 267.37 140.034 266.773C139.717 266.173 139.29 265.711 138.743 265.384C138.196 265.057 137.577 264.895 136.882 264.895C136.188 264.895 135.565 265.057 135.022 265.384C134.478 265.711 134.048 266.173 133.731 266.773C133.414 267.374 133.259 268.074 133.259 268.878C133.259 269.682 133.418 270.375 133.731 270.979C134.044 271.583 134.478 272.049 135.029 272.376C135.58 272.703 136.196 272.865 136.882 272.865C137.569 272.865 138.188 272.703 138.736 272.376Z" fill="white"/>
<path d="M151.874 273.9H150.59L145.427 265.919V273.9H144.144V263.864H145.427L150.59 271.83V263.864H151.874V273.9Z" fill="white"/>
<path d="M0 244.273H9.51097L9.62042 248.064H8.96371C8.84671 246.894 8.57874 246.086 8.15981 245.639C7.74087 245.189 7.09171 244.966 6.21987 244.966H4.62339C4.38939 244.966 4.21955 245.02 4.11387 245.116C4.00819 245.212 3.95158 245.355 3.95158 245.539V249.218H4.53281C5.69148 249.218 6.35952 248.514 6.5369 247.105H7.17474V252.177H6.5369C6.51803 251.635 6.43123 251.204 6.27271 250.888C6.11797 250.573 5.90284 250.33 5.6311 250.149C5.35558 249.972 5.04232 249.884 4.68377 249.884H3.95158V253.886C3.95158 254.097 4.00819 254.255 4.12142 254.355C4.27994 254.498 4.47242 254.571 4.69132 254.571H5.71035V255.26H0V254.571H0.954871C1.17755 254.571 1.35116 254.509 1.47194 254.39C1.59271 254.267 1.6531 254.117 1.6531 253.932V245.535C1.6531 245.324 1.59271 245.174 1.47571 245.093C1.35871 245.008 1.11339 244.966 0.743516 244.966H0V244.273Z" fill="white"/>
<path d="M10.5602 244.273H15.9799V244.962H14.8778C14.7231 244.962 14.6023 245.016 14.5155 245.124C14.4287 245.231 14.3834 245.393 14.3834 245.608V251.689C14.3834 252.543 14.6061 253.201 15.0552 253.659C15.5044 254.117 16.1195 254.348 16.9046 254.348C17.482 254.348 18.0066 254.221 18.4784 253.97C18.8219 253.782 19.1049 253.47 19.3276 253.039C19.5465 252.608 19.6597 252.066 19.6597 251.415V246.748C19.6597 246.151 19.5314 245.705 19.271 245.408C19.0106 245.112 18.6634 244.962 18.2255 244.962H18.0633V244.273H22.1734V244.962H21.8903C21.46 244.962 21.1355 245.127 20.9128 245.458C20.6901 245.789 20.5769 246.193 20.5769 246.678V251.739C20.5769 252.862 20.207 253.767 19.4673 254.448C18.7237 255.136 17.7047 255.479 16.4064 255.479C15.4779 255.479 14.6703 255.325 13.9834 255.017C13.2965 254.705 12.8096 254.309 12.519 253.82C12.2321 253.332 12.0849 252.685 12.0849 251.885V245.716C12.0849 245.428 12.0321 245.231 11.9226 245.124C11.817 245.016 11.6245 244.962 11.3452 244.962H10.5526V244.273H10.5602Z" fill="white"/>
<path d="M23.1509 244.966V244.273H28.6801V244.962H27.7478C27.4799 244.962 27.2949 245.016 27.1855 245.12C27.0798 245.224 27.0232 245.389 27.0232 245.624V253.797C27.0232 254.128 27.076 254.34 27.1779 254.432C27.2798 254.525 27.5214 254.571 27.8988 254.571H29.45C30.0275 254.571 30.5672 254.29 31.0691 253.732C31.5673 253.174 31.9523 252.277 32.2203 251.05H32.877L32.6279 255.263H23.1509V254.575H24.0982C24.3096 254.575 24.4643 254.521 24.5738 254.409C24.6794 254.301 24.736 254.147 24.736 253.951V245.543C24.736 245.343 24.6794 245.193 24.57 245.104C24.4605 245.012 24.2718 244.966 24.0076 244.966H23.1547H23.1509Z" fill="white"/>
<path d="M33.8395 244.273H43.2636L43.5014 248.448H42.8371C42.6824 247.559 42.4824 246.859 42.2333 246.359C41.9842 245.862 41.7011 245.505 41.3841 245.293C41.067 245.085 40.716 244.977 40.3386 244.977C40.1197 244.977 39.9574 245.024 39.8555 245.116C39.7536 245.204 39.7046 245.343 39.7046 245.512V254.013C39.7046 254.174 39.7536 254.309 39.8555 254.413C39.9537 254.517 40.0744 254.571 40.2141 254.571H41.4369V255.26H35.6737V254.571H36.84C37.0136 254.571 37.1532 254.521 37.2551 254.417C37.357 254.313 37.4099 254.178 37.4099 254.013V245.562C37.4099 245.362 37.357 245.216 37.2551 245.124C37.1494 245.031 36.9871 244.981 36.7607 244.981C35.5228 244.981 34.6849 246.14 34.2471 248.452H33.6055L33.8357 244.277L33.8395 244.273Z" fill="white"/>
<path d="M50.0458 244C51.061 244 51.997 244.246 52.8538 244.75C53.7105 245.251 54.3785 245.932 54.8579 246.794C55.3372 247.656 55.575 248.629 55.575 249.718C55.575 251.365 55.0466 252.739 53.9898 253.836C52.933 254.936 51.6234 255.483 50.0571 255.483C49.0192 255.483 48.087 255.237 47.2642 254.736C46.4414 254.236 45.7885 253.559 45.3129 252.712C44.8374 251.866 44.5996 250.877 44.5996 249.757C44.5996 248.083 45.1204 246.713 46.1659 245.624C47.2076 244.539 48.5021 244 50.042 244H50.0458ZM50.0911 244.712C49.5136 244.712 49.0116 244.874 48.5852 245.197C48.1587 245.52 47.8228 246.043 47.5737 246.767C47.3246 247.486 47.1963 248.475 47.1963 249.734C47.1963 251.054 47.3133 252.058 47.5435 252.739C47.7737 253.416 48.1096 253.92 48.5512 254.251C48.9928 254.575 49.5061 254.74 50.0948 254.74C50.9667 254.74 51.6611 254.363 52.182 253.601C52.7028 252.843 52.9595 251.523 52.9595 249.641C52.9595 248.325 52.85 247.336 52.6235 246.674C52.4009 246.013 52.0687 245.52 51.6234 245.197C51.1818 244.874 50.6685 244.712 50.0873 244.712H50.0911Z" fill="white"/>
<path d="M56.8619 244.273H60.2059L66.0446 251.808V246.69C66.0446 246.186 65.9049 245.778 65.6218 245.478C65.3388 245.174 64.9387 245 64.4179 244.966V244.273H68.3506V244.962C67.8033 245.024 67.407 245.189 67.1693 245.466C66.9315 245.739 66.8107 246.147 66.8107 246.686V255.26H65.9691L59.3265 246.59V252.597C59.3265 253.286 59.4812 253.786 59.7907 254.097C60.1002 254.413 60.4814 254.571 60.9381 254.571H61.123V255.26H56.7714V254.571H57.0695C57.496 254.571 57.8583 254.394 58.1489 254.051C58.4396 253.705 58.5867 253.259 58.5867 252.716V245.624C58.2622 245.185 57.8432 244.966 57.3413 244.966H56.8619V244.273Z" fill="white"/>
<path d="M80.8771 245.12L81.5565 244.139H82.0736L82.1377 247.933H81.481C81.1413 246.844 80.6582 246.028 80.0317 245.485C79.4052 244.943 78.7145 244.673 77.9559 244.673C77.3105 244.673 76.7821 244.85 76.3783 245.212C75.9707 245.57 75.7706 245.997 75.7706 246.501C75.7706 246.798 75.8499 247.067 76.0122 247.317C76.1707 247.563 76.4311 247.775 76.7859 247.948C77.1407 248.121 77.7672 248.306 78.6579 248.495C79.6996 248.714 80.4242 248.918 80.8243 249.095C81.4546 249.384 81.9301 249.764 82.2472 250.238C82.5642 250.711 82.7227 251.285 82.7227 251.962C82.7227 252.978 82.3793 253.786 81.6961 254.39C80.8696 255.117 79.8468 255.479 78.6277 255.479C77.5068 255.479 76.4802 255.083 75.5517 254.282L74.7025 255.367H74.1628V251.296H74.8045C75.4385 253.62 76.7331 254.779 78.6768 254.779C79.4731 254.779 80.0921 254.594 80.5337 254.217C80.9753 253.844 81.1979 253.378 81.1979 252.816C81.1979 252.424 81.0998 252.096 80.9073 251.835C80.7111 251.569 80.4129 251.358 80.0053 251.192C79.7826 251.104 79.2278 250.965 78.3446 250.769C77.1558 250.503 76.3104 250.226 75.8008 249.942C75.2951 249.661 74.9215 249.31 74.6837 248.899C74.4459 248.483 74.3251 247.983 74.3251 247.386C74.3251 246.39 74.6535 245.574 75.314 244.943C75.9745 244.312 76.8538 243.996 77.9635 243.996C79.0731 243.996 80.0015 244.369 80.8847 245.116L80.8771 245.12Z" fill="white"/>
<path d="M92.5206 245.108L93.0225 244.015H93.5623L93.7434 248.421H93.0754C92.8678 247.155 92.4753 246.213 91.8941 245.597C91.3128 244.981 90.6561 244.677 89.9126 244.677C89.0974 244.677 88.4218 245.07 87.8859 245.862C87.3499 246.655 87.082 247.906 87.082 249.614C87.082 251.415 87.3764 252.762 87.9651 253.636C88.4369 254.325 89.1313 254.667 90.0485 254.667C90.9656 254.667 91.7393 254.321 92.3658 253.636C92.8187 253.135 93.132 252.397 93.3132 251.423H93.9699C93.8151 252.674 93.3433 253.666 92.5659 254.394C91.7846 255.121 90.8222 255.483 89.6786 255.483C88.2029 255.483 86.965 254.956 85.9686 253.894C84.9684 252.831 84.474 251.473 84.474 249.815C84.474 247.975 85.0477 246.505 86.2026 245.405C87.1839 244.469 88.3312 244 89.6484 244C90.1693 244 90.6486 244.081 91.0939 244.246C91.5393 244.412 92.0148 244.7 92.5243 245.104L92.5206 245.108Z" fill="white"/>
<path d="M95.4493 244.273H100.971V244.962H99.9708C99.7595 244.962 99.6009 245.008 99.5028 245.089C99.4047 245.178 99.3556 245.304 99.3556 245.474V253.982C99.3556 254.178 99.4085 254.321 99.5066 254.405C99.6387 254.517 99.8274 254.571 100.076 254.571H100.967V255.26H95.4456V254.571H96.291C96.5816 254.571 96.7854 254.521 96.9062 254.421C97.0269 254.321 97.0836 254.174 97.0836 253.982V245.574C97.0836 245.366 97.0307 245.212 96.9213 245.116C96.8118 245.02 96.642 244.966 96.408 244.966H95.4456V244.273H95.4493Z" fill="white"/>
<path d="M102.311 244.273H111.697L111.905 248.114H111.263C111.112 247.205 110.923 246.555 110.701 246.155C110.474 245.755 110.176 245.458 109.81 245.258C109.444 245.058 108.965 244.958 108.372 244.958H106.9C106.67 244.958 106.504 245.004 106.402 245.097C106.3 245.185 106.251 245.316 106.251 245.478V249.291H106.753C107.33 249.291 107.78 249.122 108.097 248.787C108.417 248.448 108.602 247.906 108.663 247.159H109.319V252.27H108.663C108.617 251.427 108.436 250.827 108.115 250.48C107.795 250.134 107.312 249.961 106.666 249.961H106.251V254.024C106.251 254.205 106.304 254.328 106.402 254.401C106.557 254.513 106.783 254.567 107.074 254.567H108.372C109.263 254.567 109.987 254.274 110.55 253.697C111.112 253.116 111.463 252.243 111.599 251.077H112.256L112.093 255.256H102.307V254.567H103.277C103.496 254.567 103.662 254.509 103.779 254.394C103.892 254.282 103.949 254.128 103.949 253.936V245.485C103.949 245.308 103.892 245.174 103.779 245.093C103.662 245.008 103.458 244.966 103.164 244.966H102.311V244.273Z" fill="white"/>
<path d="M113.55 244.273H116.894L122.729 251.808V246.69C122.729 246.186 122.586 245.778 122.307 245.478C122.023 245.174 121.623 245 121.106 244.966V244.273H125.039V244.962C124.488 245.024 124.096 245.189 123.858 245.466C123.62 245.739 123.503 246.147 123.503 246.686V255.26H122.661L116.019 246.59V252.597C116.019 253.286 116.173 253.786 116.483 254.097C116.792 254.413 117.174 254.571 117.63 254.571H117.811V255.26H113.46V254.571H113.758C114.188 254.571 114.547 254.394 114.837 254.051C115.128 253.705 115.275 253.259 115.275 252.716V245.624C114.951 245.185 114.535 244.966 114.03 244.966H113.55V244.273Z" fill="white"/>
<path d="M133.712 245.108L134.214 244.015H134.754L134.939 248.421H134.267C134.059 247.155 133.663 246.213 133.089 245.597C132.512 244.981 131.848 244.677 131.104 244.677C130.289 244.677 129.613 245.07 129.081 245.862C128.549 246.655 128.281 247.906 128.281 249.614C128.281 251.415 128.575 252.762 129.16 253.636C129.632 254.325 130.327 254.667 131.244 254.667C132.161 254.667 132.935 254.321 133.565 253.636C134.014 253.135 134.331 252.397 134.512 251.423H135.169C135.014 252.674 134.546 253.666 133.765 254.394C132.98 255.121 132.021 255.483 130.881 255.483C129.402 255.483 128.168 254.956 127.168 253.894C126.171 252.831 125.673 251.473 125.673 249.815C125.673 247.975 126.247 246.505 127.402 245.405C128.383 244.469 129.53 244 130.848 244C131.368 244 131.848 244.081 132.293 244.246C132.738 244.412 133.214 244.7 133.727 245.104L133.712 245.108Z" fill="white"/>
<path d="M136.528 244.273H145.914L146.125 248.114H145.484C145.333 247.205 145.144 246.555 144.918 246.155C144.691 245.755 144.397 245.458 144.031 245.258C143.661 245.058 143.182 244.958 142.589 244.958H141.117C140.891 244.958 140.725 245.004 140.623 245.097C140.521 245.185 140.468 245.316 140.468 245.478V249.291H140.974C141.551 249.291 141.997 249.122 142.317 248.787C142.634 248.448 142.823 247.906 142.883 247.159H143.54V252.27H142.883C142.838 251.427 142.657 250.827 142.336 250.48C142.019 250.134 141.536 249.961 140.887 249.961H140.472V254.024C140.472 254.205 140.525 254.328 140.626 254.401C140.781 254.513 141.004 254.567 141.295 254.567H142.593C143.484 254.567 144.204 254.274 144.771 253.697C145.333 253.116 145.688 252.243 145.82 251.077H146.476L146.314 255.256H136.528V254.567H137.498C137.717 254.567 137.883 254.509 138 254.394C138.113 254.282 138.169 254.128 138.169 253.936V245.485C138.169 245.308 138.113 245.174 138 245.093C137.886 245.008 137.683 244.966 137.384 244.966H136.531V244.273H136.528Z" fill="white"/>
<path d="M158.724 244L162.762 253.859C162.879 254.136 163.007 254.325 163.143 254.425C163.275 254.521 163.457 254.575 163.679 254.575H164.076V255.263H159.018V254.575H159.494C159.867 254.575 160.124 254.532 160.264 254.448C160.407 254.363 160.475 254.255 160.475 254.113C160.475 254.005 160.445 253.878 160.388 253.736L159.558 251.7H155.523L155.138 252.628C154.976 253.012 154.897 253.301 154.897 253.489C154.897 253.809 155.014 254.074 155.248 254.275C155.482 254.471 155.799 254.575 156.203 254.575H156.546V255.263H152.451V254.575H152.689C152.949 254.575 153.183 254.49 153.383 254.321C153.663 254.082 153.885 253.778 154.04 253.409L157.905 244.004H158.724V244ZM157.55 246.782L155.825 250.965H159.26L157.55 246.782Z" fill="white"/>
<path d="M172.367 245.108L172.869 244.015H173.409L173.594 248.421H172.922C172.715 247.155 172.318 246.213 171.741 245.597C171.163 244.981 170.503 244.677 169.759 244.677C168.944 244.677 168.265 245.07 167.733 245.862C167.201 246.655 166.933 247.906 166.933 249.614C166.933 251.415 167.223 252.762 167.816 253.636C168.284 254.325 168.982 254.667 169.899 254.667C170.816 254.667 171.59 254.321 172.216 253.636C172.669 253.135 172.983 252.397 173.164 251.423H173.82C173.666 252.674 173.198 253.666 172.413 254.394C171.631 255.121 170.669 255.483 169.529 255.483C168.05 255.483 166.816 254.956 165.815 253.894C164.815 252.831 164.321 251.473 164.321 249.815C164.321 247.975 164.894 246.505 166.046 245.405C167.027 244.469 168.174 244 169.491 244C170.012 244 170.495 244.081 170.937 244.246C171.382 244.412 171.858 244.7 172.371 245.104L172.367 245.108Z" fill="white"/>
<path d="M180.086 244L184.128 253.859C184.245 254.136 184.373 254.325 184.509 254.425C184.645 254.521 184.822 254.575 185.049 254.575H185.441V255.263H180.384V254.575H180.856C181.229 254.575 181.49 254.532 181.625 254.448C181.765 254.363 181.837 254.255 181.837 254.113C181.837 254.005 181.807 253.878 181.75 253.736L180.92 251.7H176.885L176.504 252.628C176.342 253.012 176.262 253.301 176.262 253.489C176.262 253.809 176.379 254.074 176.613 254.275C176.847 254.471 177.164 254.575 177.572 254.575H177.912V255.263H173.817V254.575H174.051C174.315 254.575 174.545 254.49 174.745 254.321C175.028 254.082 175.247 253.778 175.402 253.409L179.267 244.004H180.082L180.086 244ZM178.916 246.782L177.191 250.965H180.625L178.916 246.782Z" fill="white"/>
<path d="M185.898 244.273H191.699C192.752 244.273 193.68 244.5 194.473 244.958C195.269 245.412 195.896 246.063 196.349 246.905C196.798 247.748 197.024 248.695 197.024 249.749C197.024 250.803 196.82 251.796 196.409 252.604C195.994 253.412 195.375 254.059 194.556 254.54C193.737 255.021 192.854 255.26 191.914 255.26H185.902V254.571H186.8C187.019 254.571 187.185 254.509 187.294 254.39C187.404 254.267 187.46 254.097 187.46 253.882V245.605C187.46 245.381 187.4 245.22 187.287 245.116C187.17 245.016 186.974 244.962 186.698 244.962H185.902V244.273H185.898ZM191.197 254.571C191.865 254.571 192.454 254.398 192.967 254.055C193.48 253.713 193.854 253.247 194.08 252.654C194.311 252.062 194.424 251.142 194.424 249.899C194.424 248.591 194.292 247.59 194.02 246.894C193.748 246.197 193.386 245.701 192.922 245.405C192.458 245.112 191.782 244.962 190.887 244.962C190.397 244.962 190.087 245.008 189.963 245.089C189.842 245.174 189.778 245.324 189.778 245.547V253.867C189.778 254.113 189.827 254.294 189.929 254.401C190.027 254.513 190.189 254.567 190.404 254.567H191.193L191.197 254.571Z" fill="white"/>
<path d="M197.749 244.273H207.135L207.347 248.114H206.705C206.554 247.205 206.365 246.555 206.139 246.155C205.912 245.755 205.618 245.458 205.252 245.258C204.882 245.058 204.403 244.958 203.81 244.958H202.338C202.108 244.958 201.942 245.004 201.84 245.097C201.738 245.185 201.689 245.316 201.689 245.478V249.291H202.191C202.769 249.291 203.218 249.122 203.535 248.787C203.852 248.448 204.04 247.906 204.101 247.159H204.758V252.27H204.101C204.056 251.427 203.874 250.827 203.554 250.48C203.237 250.134 202.75 249.961 202.104 249.961H201.689V254.024C201.689 254.205 201.742 254.328 201.84 254.401C201.995 254.513 202.221 254.567 202.512 254.567H203.81C204.701 254.567 205.426 254.274 205.988 253.697C206.554 253.116 206.905 252.243 207.037 251.077H207.694L207.532 255.256H197.745V254.567H198.715C198.934 254.567 199.1 254.509 199.213 254.394C199.327 254.282 199.383 254.128 199.383 253.936V245.485C199.383 245.308 199.327 245.174 199.213 245.093C199.1 245.008 198.892 244.966 198.598 244.966H197.745V244.273H197.749Z" fill="white"/>
<path d="M209.022 244.273H213.363L215.812 251.719L218.246 244.273H222.7V244.962H221.734C221.496 244.962 221.33 245.008 221.239 245.097C221.149 245.185 221.104 245.339 221.104 245.558V253.951C221.104 254.163 221.153 254.309 221.247 254.39C221.394 254.509 221.594 254.571 221.843 254.571H222.696V255.26H217.209V254.571H218.243C218.431 254.571 218.575 254.517 218.677 254.405C218.775 254.298 218.828 254.147 218.828 253.955V244.966L215.404 255.263H214.759L211.343 244.877V252.908C211.343 253.37 211.487 253.747 211.774 254.04C212.061 254.336 212.476 254.513 213.019 254.575V255.263H209.019V254.575C209.524 254.528 209.917 254.348 210.196 254.032C210.475 253.713 210.615 253.312 210.615 252.824V245.716C210.615 245.412 210.566 245.212 210.464 245.112C210.362 245.016 210.166 244.962 209.872 244.962H209.019V244.273H209.022Z" fill="white"/>
<path d="M223.123 244.273H228.486V244.962H227.746C227.486 244.962 227.305 244.997 227.203 245.066C227.101 245.131 227.052 245.216 227.052 245.328C227.052 245.455 227.097 245.593 227.184 245.751L229.429 249.695L231.003 246.497C231.135 246.232 231.203 245.989 231.203 245.77C231.203 245.52 231.12 245.324 230.947 245.181C230.777 245.039 230.516 244.966 230.169 244.966H229.841V244.273H234.008V244.962C233.524 244.97 233.14 245.07 232.849 245.254C232.558 245.443 232.309 245.739 232.105 246.151L229.943 250.511V253.967C229.943 254.171 229.992 254.317 230.105 254.417C230.215 254.513 230.384 254.567 230.618 254.567H231.732V255.256H225.829V254.567H226.939C227.191 254.567 227.369 254.517 227.471 254.421C227.573 254.325 227.622 254.171 227.622 253.967V250.896L224.723 245.809C224.538 245.482 224.342 245.258 224.134 245.143C223.93 245.024 223.67 244.962 223.361 244.962H223.127V244.273H223.123Z" fill="white"/>
</g>
<g opacity="0.15" clip-path="url(#clip1_651_978)">
<path d="M210.444 92.8346L209.248 92.8562C209.751 124.594 204.493 147.584 194.042 159.333C182.704 172.077 162.9 190.027 121.972 198.791L122.221 199.965C163.5 191.125 183.488 173.001 194.94 160.128C205.748 147.978 210.963 125.34 210.449 92.8346H210.444Z" fill="white"/>
<path d="M223.778 79.5231C218.428 86.952 214.809 95.2893 211.791 103.864C210.839 106.73 209.973 109.633 209.421 112.672L209.659 112.775C214.917 105.324 218.58 96.987 221.593 88.4335C222.556 85.5787 223.416 82.6482 224 79.6636L223.784 79.5285L223.778 79.5231Z" fill="white"/>
<path d="M202.616 87.5197C202.654 94.0403 204.19 100.366 206.289 106.492C207.025 108.52 207.842 110.52 208.924 112.461L209.129 112.407C209.091 105.887 207.555 99.5606 205.456 93.4347C204.721 91.4072 203.904 89.4067 202.822 87.4656L202.616 87.5197Z" fill="white"/>
<path d="M223.313 102.318C217.92 107.53 213.944 113.867 210.617 120.523C209.551 122.756 208.572 125.043 207.874 127.503L208.091 127.638C213.484 122.426 217.46 116.089 220.787 109.433C221.852 107.2 222.831 104.913 223.529 102.453L223.313 102.318Z" fill="white"/>
<path d="M199.885 101.091C200.031 108.098 201.827 114.862 204.234 121.388C205.072 123.545 206.003 125.675 207.225 127.73L207.452 127.665C207.306 120.658 205.51 113.894 203.103 107.368C202.265 105.211 201.334 103.08 200.112 101.026L199.885 101.091Z" fill="white"/>
<path d="M221.079 121.647C215.843 124.702 211.748 129.136 208.258 134.002C207.133 135.646 206.084 137.354 205.283 139.284L205.473 139.457C210.709 136.402 214.804 131.969 218.293 127.103C219.418 125.459 220.468 123.751 221.268 121.82L221.079 121.647Z" fill="white"/>
<path d="M196.785 115.981C196.877 122.204 198.738 128.119 201.275 133.726C202.157 135.57 203.136 137.387 204.429 139.095L204.672 139.014C204.58 132.791 202.719 126.876 200.182 121.269C199.3 119.425 198.321 117.609 197.028 115.9L196.785 115.981Z" fill="white"/>
<path d="M214.62 150.703C209.075 151.25 204.017 153.504 199.354 156.408C197.829 157.408 196.347 158.495 195.005 159.89L195.113 160.122C200.658 159.576 205.716 157.321 210.379 154.418C211.904 153.418 213.387 152.331 214.728 150.936L214.62 150.703Z" fill="white"/>
<path d="M190.607 140.549C189.628 145.372 190.412 150.19 191.938 154.775C192.484 156.283 193.128 157.77 194.096 159.198L194.351 159.149C195.33 154.331 194.545 149.509 193.02 144.924C192.473 143.415 191.83 141.928 190.861 140.501L190.607 140.549Z" fill="white"/>
<path d="M219.191 135.716C213.657 137.776 209.021 141.388 204.91 145.524C203.574 146.93 202.308 148.411 201.248 150.152L201.41 150.352C206.944 148.292 211.58 144.68 215.691 140.544C217.027 139.138 218.293 137.657 219.353 135.916L219.191 135.716Z" fill="white"/>
<path d="M194.237 130.287C193.929 135.591 195.384 140.668 197.531 145.437C198.283 147 199.133 148.535 200.301 149.974L200.544 149.898C200.853 144.594 199.398 139.517 197.25 134.748C196.498 133.185 195.649 131.65 194.48 130.212L194.237 130.287Z" fill="white"/>
<path d="M209.432 162.447C203.709 161.885 198.116 163.107 192.782 165.026C191.024 165.707 189.287 166.48 187.632 167.583L187.691 167.832C193.415 168.394 199.008 167.178 204.342 165.253C206.1 164.572 207.836 163.799 209.492 162.696L209.432 162.447Z" fill="white"/>
<path d="M184.511 149.536C183.18 153.915 183.597 158.435 184.776 162.761C185.203 164.183 185.739 165.594 186.599 166.962L186.853 166.929C188.178 162.55 187.767 158.03 186.588 153.704C186.161 152.282 185.625 150.871 184.765 149.503L184.511 149.536Z" fill="white"/>
<path d="M201.194 171.903C195.378 170.936 189.569 171.757 183.959 173.298C182.109 173.85 180.27 174.504 178.485 175.488L178.522 175.742C184.338 176.71 190.147 175.888 195.757 174.347C197.607 173.796 199.446 173.142 201.232 172.158L201.194 171.903Z" fill="white"/>
<path d="M178.095 157.067C175.71 162.247 175.542 169.33 177.689 174.618L177.944 174.623C179.88 170.476 180.113 165.94 179.561 161.49C179.339 160.019 179.015 158.549 178.355 157.073H178.101L178.095 157.067Z" fill="white"/>
<path d="M191.813 181.236C186.134 179.516 180.226 179.57 174.417 180.365C172.496 180.673 170.576 181.079 168.661 181.82V182.074C174.346 183.793 180.259 183.739 186.063 182.944C187.984 182.636 189.904 182.23 191.819 181.49V181.236H191.813Z" fill="white"/>
<path d="M170.024 163.031C167.844 167.124 167.347 171.693 167.639 176.229C167.774 177.727 168.012 179.235 168.585 180.771L168.84 180.792C171.02 176.699 171.517 172.131 171.225 167.589C171.09 166.091 170.852 164.583 170.278 163.047L170.024 163.026V163.031Z" fill="white"/>
<path d="M182.861 188.091C177.419 185.902 171.593 185.458 165.81 185.761C163.89 185.907 161.969 186.15 160.022 186.729L160.006 186.983C165.448 189.173 171.274 189.616 177.056 189.313C178.977 189.173 180.897 188.924 182.845 188.346L182.861 188.091Z" fill="white"/>
<path d="M161.791 168.173C159.427 172.201 158.724 176.775 158.805 181.355C158.875 182.868 159.043 184.399 159.541 185.967L159.795 185.999C162.159 181.971 162.862 177.397 162.781 172.817C162.711 171.303 162.543 169.773 162.045 168.205L161.791 168.173Z" fill="white"/>
<path d="M173.324 194.661C167.877 192.038 161.926 191.141 155.954 190.984C153.969 190.973 151.973 191.065 149.928 191.487L149.895 191.741C155.343 194.358 161.293 195.261 167.265 195.418C169.251 195.428 171.247 195.336 173.291 194.915L173.324 194.661Z" fill="white"/>
<path d="M153.325 172.26C150.62 176.256 149.538 180.922 149.235 185.653C149.176 187.221 149.214 188.811 149.582 190.47L149.83 190.524C152.535 186.529 153.617 181.863 153.92 177.132C153.98 175.564 153.942 173.974 153.574 172.314L153.325 172.26Z" fill="white"/>
<path d="M162.435 200.716C157.523 197.51 151.897 195.942 146.163 195.109C144.253 194.877 142.317 194.742 140.299 194.931L140.234 195.18C145.146 198.386 150.772 199.954 156.506 200.787C158.415 201.019 160.352 201.154 162.37 200.965L162.435 200.716Z" fill="white"/>
<path d="M143.61 177.516C140.937 180.992 139.845 185.188 139.547 189.465C139.488 190.881 139.531 192.32 139.899 193.833L140.148 193.893C142.82 190.416 143.913 186.221 144.21 181.944C144.27 180.527 144.226 179.089 143.858 177.575L143.61 177.516Z" fill="white"/>
<path d="M149.939 204.831C145.795 201.381 140.78 199.484 135.598 198.321C133.867 197.975 132.104 197.732 130.232 197.797L130.145 198.04C134.289 201.489 139.304 203.387 144.486 204.55C146.217 204.896 147.98 205.139 149.852 205.074L149.939 204.831Z" fill="white"/>
<path d="M135.203 181.355C131.465 185.264 129.28 191.627 129.821 197.007L130.064 197.088C133.802 193.179 135.988 186.815 135.447 181.436L135.203 181.355Z" fill="white"/>
<path d="M210.13 94.7053C212.683 87.5197 212.57 79.9124 211.353 72.5105C210.877 70.0612 210.271 67.6119 209.14 65.1897L208.756 65.2005C206.219 72.4023 206.306 79.961 207.533 87.3629C208.01 89.8122 208.615 92.2615 209.746 94.7053H210.13Z" fill="white"/>
<path d="M22.5562 92.8346L23.7517 92.8562C23.2486 124.594 28.5067 147.584 38.9578 159.333C50.2961 172.077 70.1002 190.027 111.028 198.791L110.78 199.965C69.4998 191.125 49.5117 173.001 38.0598 160.128C27.2517 147.978 22.0369 125.34 22.5508 92.8346H22.5562Z" fill="white"/>
<path d="M9.21642 79.5231C14.5664 86.952 18.1853 95.2893 21.2038 103.864C22.1559 106.73 23.0214 109.633 23.5732 112.672L23.3352 112.775C18.0772 105.324 14.4149 96.987 11.4018 88.4335C10.439 85.5787 9.57885 82.6482 8.99463 79.6636L9.21101 79.5285H9.21642V79.5231Z" fill="white"/>
<path d="M30.3784 87.5197C30.3405 94.0403 28.8042 100.366 26.7053 106.492C25.9696 108.52 25.1528 110.52 24.0709 112.461L23.8654 112.407C23.9032 105.887 25.4395 99.5606 27.5384 93.4347C28.2741 91.4072 29.0909 89.4067 30.1728 87.4656L30.3784 87.5197Z" fill="white"/>
<path d="M9.68708 102.318C15.0803 107.53 19.0563 113.867 22.3831 120.523C23.4488 122.756 24.4279 125.043 25.1258 127.503L24.9094 127.638C19.5161 122.426 15.5401 116.089 12.2133 109.433C11.1476 107.2 10.1685 104.913 9.4707 102.453L9.68708 102.318Z" fill="white"/>
<path d="M33.1155 101.091C32.9694 108.098 31.1735 114.862 28.7663 121.388C27.9278 123.545 26.9973 125.675 25.7748 127.73L25.5476 127.665C25.6937 120.658 27.4896 113.894 29.8968 107.368C30.7353 105.211 31.6657 103.08 32.8883 101.026L33.1155 101.091Z" fill="white"/>
<path d="M11.9158 121.647C17.1522 124.702 21.2471 129.136 24.7363 134.002C25.8614 135.646 26.9109 137.354 27.7115 139.284L27.5221 139.457C22.2858 136.402 18.1908 131.969 14.7017 127.103C13.5765 125.459 12.527 123.751 11.7264 121.82L11.9158 121.647Z" fill="white"/>
<path d="M36.2098 115.981C36.1178 122.204 34.257 128.119 31.7199 133.726C30.8382 135.57 29.859 137.387 28.5662 139.095L28.3228 139.014C28.4147 132.791 30.2756 126.876 32.8126 121.269C33.6944 119.425 34.6735 117.609 35.9664 115.9L36.2098 115.981Z" fill="white"/>
<path d="M18.38 150.703C23.9248 151.25 28.9826 153.504 33.6456 156.408C35.1711 157.408 36.6533 158.495 37.9948 159.89L37.8866 160.122C32.3419 159.576 27.2841 157.321 22.6211 154.418C21.0956 153.418 19.6134 152.331 18.2719 150.936L18.38 150.703Z" fill="white"/>
<path d="M42.3874 140.55C43.3665 145.372 42.5822 150.19 41.0567 154.775C40.5103 156.283 39.8666 157.77 38.8983 159.198L38.6441 159.149C37.6649 154.331 38.4493 149.509 39.9748 144.924C40.5211 143.415 41.1649 141.928 42.1332 140.501L42.3874 140.55Z" fill="white"/>
<path d="M13.809 135.716C19.3429 137.776 23.9788 141.388 28.0901 145.524C29.4262 146.93 30.692 148.411 31.7523 150.152L31.59 150.352C26.0561 148.292 21.4202 144.68 17.3089 140.544C15.9728 139.138 14.707 137.657 13.6467 135.916L13.809 135.716Z" fill="white"/>
<path d="M38.7576 130.287C39.0659 135.591 37.6108 140.668 35.4632 145.437C34.7113 147 33.862 148.535 32.6935 149.974L32.4501 149.898C32.1418 144.594 33.5969 139.517 35.7445 134.748C36.4964 133.185 37.3457 131.65 38.5142 130.212L38.7576 130.287Z" fill="white"/>
<path d="M23.5678 162.447C29.291 161.885 34.8844 163.107 40.2182 165.026C41.9763 165.707 43.7127 166.48 45.368 167.583L45.3085 167.832C39.5853 168.394 33.9919 167.178 28.6581 165.253C26.9 164.572 25.1636 163.799 23.5083 162.696L23.5678 162.447Z" fill="white"/>
<path d="M48.4838 149.536C49.8145 153.915 49.398 158.435 48.2188 162.761C47.7914 164.183 47.2559 165.594 46.3958 166.962L46.1415 166.929C44.8162 162.55 45.2273 158.03 46.4066 153.704C46.8339 152.282 47.3695 150.871 48.2296 149.503L48.4838 149.536Z" fill="white"/>
<path d="M31.8064 171.903C37.6216 170.936 43.4314 171.757 49.041 173.298C50.8911 173.85 52.7303 174.504 54.5154 175.488L54.4776 175.742C48.6624 176.71 42.8526 175.888 37.243 174.347C35.3929 173.796 33.5537 173.142 31.7686 172.158L31.8064 171.903Z" fill="white"/>
<path d="M54.9049 157.067C57.2905 162.247 57.4582 169.33 55.3106 174.618L55.0564 174.623C53.1198 170.476 52.8872 165.94 53.4389 161.49C53.6607 160.019 53.9853 158.549 54.6453 157.073H54.8995L54.9049 157.067Z" fill="white"/>
<path d="M41.1811 181.236C46.861 179.516 52.7682 179.57 58.578 180.365C60.4983 180.673 62.4187 181.079 64.3337 181.82V182.074C58.6483 183.793 52.7357 183.739 46.9314 182.944C45.011 182.636 43.0906 182.23 41.1757 181.49V181.236H41.1811Z" fill="white"/>
<path d="M62.9705 163.031C65.1505 167.124 65.6482 171.693 65.3561 176.229C65.2209 177.727 64.9828 179.235 64.4094 180.771L64.1552 180.792C61.9752 176.699 61.4775 172.131 61.7696 167.589C61.9048 166.091 62.1429 164.583 62.7163 163.047L62.9705 163.026V163.031Z" fill="white"/>
<path d="M50.1338 188.091C55.5757 185.902 61.4017 185.458 67.1845 185.761C69.1049 185.907 71.0252 186.15 72.9726 186.729L72.9889 186.983C67.5469 189.173 61.7209 189.616 55.9382 189.313C54.0178 189.173 52.0974 188.924 50.15 188.346L50.1338 188.091Z" fill="white"/>
<path d="M71.2091 168.173C73.5731 172.201 74.2763 176.775 74.1952 181.355C74.1248 182.868 73.9571 184.399 73.4595 185.967L73.2052 185.999C70.8413 181.971 70.138 177.397 70.2192 172.817C70.2895 171.303 70.4572 169.773 70.9549 168.205L71.2091 168.173Z" fill="white"/>
<path d="M59.6761 194.661C65.1235 192.038 71.0739 191.141 77.046 190.984C79.0313 190.973 81.0274 191.065 83.0722 191.487L83.1046 191.741C77.6573 194.358 71.7068 195.261 65.7348 195.418C63.7495 195.428 61.7534 195.337 59.7086 194.915L59.6761 194.661Z" fill="white"/>
<path d="M79.6696 172.26C82.3744 176.256 83.4562 180.922 83.7592 185.653C83.8187 187.221 83.7808 188.811 83.413 190.47L83.1641 190.524C80.4594 186.529 79.3775 181.863 79.0746 177.132C79.0151 175.564 79.0529 173.974 79.4208 172.314L79.6696 172.26Z" fill="white"/>
<path d="M70.5599 200.716C75.4717 197.51 81.0976 195.942 86.8317 195.109C88.7412 194.877 90.6778 194.742 92.6955 194.931L92.7605 195.18C87.8486 198.386 82.2228 199.954 76.4887 200.787C74.5792 201.019 72.6426 201.154 70.6248 200.965L70.5599 200.716Z" fill="white"/>
<path d="M89.385 177.516C92.0572 180.992 93.15 185.188 93.4475 189.465C93.507 190.881 93.4637 192.32 93.0959 193.833L92.847 193.893C90.1747 190.416 89.082 186.221 88.7845 181.944C88.725 180.527 88.7683 179.089 89.1361 177.575L89.385 177.516Z" fill="white"/>
<path d="M83.0559 204.831C87.1996 201.381 92.2142 199.484 97.3965 198.321C99.1275 197.975 100.891 197.732 102.763 197.797L102.849 198.04C98.7056 201.489 93.691 203.387 88.5087 204.55C86.7776 204.896 85.0141 205.139 83.1425 205.074L83.0559 204.831Z" fill="white"/>
<path d="M97.7968 181.355C101.535 185.264 103.72 191.627 103.179 197.007L102.936 197.088C99.1978 193.179 97.0124 186.815 97.5534 181.436L97.7968 181.355Z" fill="white"/>
<path d="M22.87 94.7053C20.3167 87.5197 20.4303 79.9124 21.6475 72.5105C22.1235 70.0612 22.7294 67.6119 23.8599 65.1897L24.244 65.2005C26.7811 72.4023 26.6945 79.961 25.4666 87.3629C24.9905 89.8122 24.3847 92.2615 23.2541 94.7053H22.87Z" fill="white"/>
<path d="M130.416 197.391C129.453 196.423 126.905 195.958 123.924 196.64C120.949 197.315 118.737 198.797 118.158 200.078C118.986 201.1 121.501 201.868 124.541 201.23C127.581 200.603 129.842 198.764 130.41 197.397L130.416 197.391Z" fill="white"/>
<path d="M102.465 197.391C103.433 196.423 105.976 195.958 108.956 196.64C111.932 197.315 114.144 198.797 114.723 200.078C113.89 201.1 111.375 201.868 108.334 201.23C105.294 200.603 103.033 198.764 102.465 197.397V197.391Z" fill="white"/>
<path d="M103.26 210.827C102.995 209.032 104.607 206.047 107.848 203.576C111.082 201.111 114.561 200.084 116.454 200.559C116.892 202.263 115.643 205.463 112.402 208.037C109.173 210.616 105.251 211.384 103.26 210.827Z" fill="white"/>
<path d="M129.745 210.827C130.01 209.032 128.398 206.047 125.158 203.576C121.923 201.111 118.445 200.084 116.551 200.559C116.113 202.263 117.363 205.463 120.603 208.037C123.833 210.616 127.754 211.384 129.745 210.827Z" fill="white"/>
<path d="M119.472 199.338C119.472 200.916 118.136 202.198 116.497 202.198C114.858 202.198 113.527 200.916 113.527 199.338C113.527 197.759 114.858 196.483 116.497 196.483C118.136 196.483 119.472 197.764 119.472 199.338Z" fill="white"/>
<path d="M50.9939 72.6619V14.2577L51.7134 14.2253C64.7664 13.69 80.7623 12.6249 90.6076 11.6408L91.4298 11.5597V71.5427L90.6941 71.5535C77.3706 71.7589 64.2742 72.1212 51.7729 72.6294L50.9939 72.6619ZM52.4923 15.6905V71.1047C64.5393 70.6181 77.1271 70.2721 89.9314 70.072V13.2142C80.1943 14.1604 65.0748 15.1606 52.4923 15.6959V15.6905Z" fill="white"/>
<path d="M181.887 72.6565L181.108 72.624C168.537 72.1158 155.446 71.7535 142.187 71.5535L141.451 71.5427V11.5597L142.274 11.6408C152.13 12.6249 168.125 13.69 181.168 14.2253L181.887 14.2577V72.6565ZM142.95 70.072C155.689 70.2721 168.277 70.6181 180.389 71.0993V15.6905C167.812 15.1606 152.692 14.155 142.95 13.2088V70.0666V70.072Z" fill="white"/>
<path d="M116.443 188.318L115.664 187.578C110.006 182.171 94.3293 170.919 75.3095 159.873C63.3005 152.899 54.9753 144.35 49.8525 133.742C45.4708 124.664 43.426 114.213 43.426 100.858V6.9477L44.5187 6.91526C58.4969 6.52597 79.318 5.21753 90.9321 4.001C100.015 3.0494 111.748 1.1354 116.167 0.0594494L116.432 -0.00543213L116.698 0.0594494C121.117 1.1354 132.85 3.0494 141.933 4.001C153.547 5.21753 174.368 6.52597 188.346 6.91526L189.439 6.9477V100.858C189.439 114.213 187.399 124.659 183.012 133.742C177.89 144.35 169.564 152.899 157.555 159.873C138.541 170.919 122.864 182.171 117.206 187.578L116.427 188.318H116.443ZM45.6818 9.13204V100.864C45.6818 113.867 47.6508 124.005 51.881 132.769C56.7983 142.961 64.8368 151.19 76.4455 157.932C94.8107 168.6 110.13 179.505 116.443 185.231C122.756 179.5 138.081 168.6 156.441 157.932C168.05 151.19 176.083 142.956 181.005 132.769C185.236 124.005 187.205 113.867 187.205 100.864V9.13204C173.205 8.70491 153.071 7.4289 141.711 6.23941C133.472 5.37432 121.577 3.5252 116.443 2.30867C111.31 3.5198 99.4142 5.37432 91.1756 6.23941C79.8156 7.4289 59.6815 8.70491 45.6818 9.13204Z" fill="white"/>
<path d="M176.38 39.1289V39.1181C175.964 37.7989 174.698 36.977 172.502 36.6148C171.333 36.4472 169.965 36.4147 168.439 36.5229C168.764 32.0515 167.882 29.4129 165.799 28.6776H165.772C164.728 28.4668 163.668 28.8669 162.624 29.8617C162.5 29.8347 162.391 29.8239 162.283 29.8239C161.347 29.8239 160.585 30.5916 160.585 31.5324C160.585 31.7703 160.639 32.0082 160.736 32.2299C160.736 32.2623 160.736 32.2948 160.725 32.3326C160.401 32.8733 160.076 33.468 159.714 34.1925L159.681 34.2628C159.016 33.7979 158.421 33.4194 157.858 33.1058C156.3 32.3056 153.395 30.8133 151.54 32.5218C150.036 34.0141 150.582 36.7391 153.163 40.6266C153.184 40.6591 153.206 40.6861 153.228 40.7185L153.184 40.7348C151.383 41.6647 149.522 42.7136 148.283 44.4384C147.715 45.2494 147.526 46.0875 147.732 46.8553C147.937 47.623 148.516 48.2502 149.414 48.6719C149.868 48.872 150.361 49.0342 150.918 49.1639C151.01 49.218 151.086 49.2721 151.15 49.337C151.41 49.9858 152.027 50.4075 152.725 50.4075C153.287 50.4075 153.807 50.1264 154.126 49.6614C154.31 49.5478 154.488 49.4992 154.629 49.4667H154.672C154.932 49.4559 155.197 49.4505 155.462 49.4343L155.451 49.5208C155.3 52.0728 155.575 54.0247 156.317 55.6683C156.717 56.5334 157.366 57.1282 158.14 57.3336C158.345 57.3877 158.556 57.4147 158.772 57.4147C159.373 57.4147 160 57.1984 160.574 56.7929C162.024 55.744 162.938 54.1274 163.819 52.4242L163.83 52.4026C163.917 52.1863 163.819 52.0241 163.695 51.9593C163.571 51.8944 163.376 51.916 163.246 52.1161C160.904 55.9927 159.395 56.2522 158.702 56.0684C157.42 55.717 156.663 53.3434 156.625 49.5532C156.625 49.483 156.625 49.4127 156.625 49.337C157.469 49.2559 158.367 49.1423 159.459 48.9801C159.811 48.9206 160.163 48.8558 160.514 48.7909C161.044 49.2937 161.84 50.0344 162.721 50.7211C164.934 52.3215 168.066 54.2247 170.397 54.2247C170.69 54.2247 170.96 54.1923 171.209 54.1382C172.664 53.8462 173.291 52.3972 173.162 51.1158C173.102 50.6238 172.994 50.1155 172.832 49.5749C173.302 49.2559 173.578 48.7314 173.578 48.1637C173.578 47.2229 172.815 46.4551 171.88 46.4551C171.788 46.4551 171.707 46.466 171.631 46.4768C171.49 46.4227 171.366 46.3416 171.263 46.2497C171.139 46.055 171.009 45.8496 170.873 45.6495C172.193 44.9737 173.34 44.2221 174.379 43.3517C175.455 42.3838 176.84 40.897 176.38 39.1235V39.1289ZM157.777 38.8748C156.549 39.302 155.37 39.7561 154.272 40.2373C154.255 40.2103 154.239 40.1833 154.218 40.1562C154.185 40.1076 154.153 40.0589 154.126 40.0103C152.903 37.8421 151.637 34.9603 152.552 33.5221C154.093 32.3272 157.896 34.3764 159.032 35.036C159.108 35.0793 159.178 35.1225 159.259 35.1712C158.664 36.5012 158.177 37.7178 157.777 38.8748ZM153.747 41.5296C153.747 41.5296 153.779 41.5133 153.796 41.5079C155.067 43.2327 156.555 44.9196 158.34 46.6606C158.578 46.8931 158.81 47.1256 159.048 47.3635L159.184 47.4932C159.281 47.596 159.411 47.6338 159.546 47.6014C159.67 47.5689 159.779 47.4662 159.806 47.3473C159.833 47.2499 159.806 47.1472 159.73 47.0823C157.88 45.3305 156.208 43.2868 154.764 41.0105C155.651 40.5563 156.565 40.1508 157.48 39.794C157.16 40.7996 156.901 41.7891 156.684 42.8164C156.641 43.0218 156.766 43.2219 156.971 43.2705C157.177 43.3138 157.35 43.1894 157.398 42.984C157.663 41.8107 158.004 40.6266 158.41 39.4588C161.207 38.4801 164.16 37.9178 167.2 37.7773C167.152 38.7343 167.054 39.7291 166.903 40.7456C166.21 40.0103 165.469 39.2695 164.647 38.4801C164.512 38.3558 164.317 38.3504 164.193 38.4747C164.074 38.5937 164.079 38.7775 164.209 38.9019C165.994 40.5726 167.617 42.5136 169.034 44.6709C168.244 45.0656 167.455 45.4333 166.676 45.7631C163.224 47.2824 159.779 48.1583 156.436 48.3746C155.895 48.4016 155.354 48.4124 154.824 48.4016C154.623 48.3529 154.461 48.2556 154.32 48.1042C154.072 47.4392 153.439 46.9958 152.735 46.9958C152.146 46.9958 151.605 47.304 151.291 47.8177C151.21 47.8663 151.102 47.8934 150.961 47.8934C149.933 47.5635 149.3 47.0823 149.127 46.5038C148.916 45.7901 149.219 44.1951 153.655 41.5944C153.693 41.5728 153.725 41.5566 153.763 41.5404L153.747 41.5296ZM163.976 31.527C163.976 31.2026 163.884 30.8836 163.706 30.6078C164.339 30.1375 164.918 29.9482 165.404 30.0564C166.849 30.6024 167.195 33.8411 167.227 36.4634C167.227 36.5067 167.227 36.5499 167.227 36.5932C167.227 36.6094 167.227 36.6256 167.227 36.6364C165.761 36.7986 164.22 37.0744 162.64 37.4528C161.385 37.7502 160.071 38.1233 158.724 38.5612C159.243 37.2041 159.854 35.8795 160.541 34.6305C160.833 34.1277 161.131 33.6573 161.418 33.2301C161.504 33.1815 161.607 33.149 161.731 33.1382C161.921 33.2031 162.099 33.2355 162.278 33.2355C163.214 33.2355 163.976 32.4678 163.976 31.527ZM171.155 43.5139L170.955 43.6328C170.619 43.822 170.262 44.0221 169.862 44.233C169.407 43.6328 168.904 43.0056 168.288 42.2757C168.093 42.0486 167.893 41.8215 167.687 41.5944C167.974 40.2373 168.19 38.9343 168.326 37.7232C168.336 37.7232 168.353 37.7232 168.363 37.7232C168.401 37.7232 168.434 37.7232 168.472 37.7232C172.107 37.7664 174.314 38.4315 174.682 39.5831C175.05 41.2376 172.518 42.7245 171.16 43.5193L171.155 43.5139ZM169.932 46.1091C170.073 46.3632 170.219 46.6282 170.37 46.9201C170.392 47.0553 170.392 47.2175 170.37 47.3851C170.241 47.6392 170.176 47.8988 170.176 48.1637C170.176 48.9963 170.787 49.71 171.604 49.8398C171.707 50.2075 171.771 50.5319 171.804 50.8184C171.89 51.7105 171.69 52.3215 171.203 52.6351C170.603 53.019 168.991 53.3272 164.901 50.9914C163.76 50.3156 162.613 49.5154 161.488 48.607C163.933 48.1313 167.06 47.4121 169.932 46.1091ZM159.519 43.0435C159.519 41.7458 160.574 40.6915 161.872 40.6915C163.17 40.6915 164.225 41.7458 164.225 43.0435C164.225 44.3411 163.17 45.3954 161.872 45.3954C160.574 45.3954 159.519 44.3411 159.519 43.0435Z" fill="white"/>
<path d="M77.9547 38.9451L77.906 38.9992L77.9655 38.9505C78.1224 39.0965 78.2576 39.2209 78.3658 39.4425C78.4902 39.7129 78.566 40.0211 78.5768 40.3725C78.5876 40.6807 78.5119 40.9943 78.3658 41.2808C78.328 41.3565 78.2685 41.4268 78.209 41.4971C78.1873 41.5242 78.1603 41.5566 78.144 41.5782C78.1224 41.6053 78.1062 41.6323 78.09 41.6539C78.0413 41.7242 77.998 41.7837 77.9223 41.854C77.668 42.0865 77.3651 42.2541 77.0513 42.3352C76.8782 42.3676 76.7051 42.3892 76.5428 42.3892C76.202 42.3892 75.8829 42.3135 75.607 42.1676C75.5096 42.1189 75.4393 42.0594 75.3582 41.9945C75.3365 41.9783 75.3203 41.9675 75.3041 41.9567C75.277 41.9405 75.25 41.9189 75.2283 41.9026C75.0498 41.7404 74.8984 41.5404 74.7848 41.3079C74.6279 40.8483 74.59 40.4969 74.6387 40.0805C74.6657 39.8589 74.7198 39.7345 74.7631 39.6318C74.7739 39.5993 74.7902 39.5723 74.7956 39.5453C74.8605 39.3506 74.92 39.1884 75.0606 39.01C75.3041 38.7126 75.6286 38.5126 76.0289 38.4207C76.5428 38.3017 77.0946 38.3666 77.5436 38.5991C77.668 38.664 77.787 38.7775 77.8952 38.8802C77.9223 38.9073 77.9493 38.9289 77.9709 38.9559L77.9547 38.9451ZM71.2686 52.527C71.1334 51.716 70.8467 51.0023 70.5545 50.348C70.2246 49.6884 70.0515 49.0883 70.0352 48.553C69.9865 47.6122 70.4896 47.2554 70.9224 47.1148C71.8907 46.812 73.2485 47.3148 73.784 48.1691L73.7948 48.1853C73.903 48.3259 74.0923 48.3692 74.2384 48.2772C74.3845 48.1907 74.4385 48.0015 74.3628 47.8501C73.9246 46.8282 72.6859 46.0605 71.4201 46.028C71.3876 46.028 71.3551 46.028 71.3281 46.028C70.3436 46.028 69.5592 46.4876 69.1589 47.2986C68.7099 48.261 68.8073 49.4181 69.4564 50.8346C69.7648 51.5862 69.9433 52.1755 70.0082 52.6838C70.0515 53.311 69.8892 53.7868 69.5267 54.1003C68.6558 54.8519 66.8707 54.5816 66.1404 54.4248C63.6466 53.8462 61.4666 52.262 60.006 49.9696C58.605 47.7798 57.9342 45.1197 58.1127 42.4703C58.2912 39.183 59.887 36.1336 62.4944 34.106C65.1613 32.0352 68.6071 31.2296 71.9394 31.8893C76.0993 32.5975 79.6046 35.4848 80.8758 39.2425C80.9353 39.4155 81.1139 39.5074 81.2924 39.4534C81.4763 39.3993 81.5845 39.2155 81.5412 39.0424C80.9029 36.2796 79.0042 33.7708 76.3319 32.1596C71.4309 29.3048 65.6914 29.5427 61.3584 32.7814C59.3353 34.2953 57.8044 36.3444 56.9443 38.7018C56.0192 41.2268 55.9002 44.0437 56.5872 46.8444C57.4636 50.6454 60.1575 53.9111 63.625 55.3655C64.4905 55.7278 65.9294 56.1117 67.3521 56.1117C68.7748 56.1117 69.8459 55.7386 70.5221 55.0357C71.1388 54.3923 71.4309 53.4245 71.2848 52.5108L71.2686 52.527ZM64.0361 37.4799C64.0361 37.4799 64.0848 37.5177 64.1118 37.5339C64.1281 37.5448 64.1443 37.5556 64.1551 37.5664L64.1713 37.5772C64.2525 37.6421 64.3228 37.6961 64.4148 37.7448C64.6907 37.8908 65.0098 37.9665 65.3506 37.9665C65.5129 37.9665 65.686 37.9503 65.8591 37.9124C66.1729 37.8313 66.4758 37.6691 66.73 37.4312C66.8004 37.3663 66.849 37.3015 66.8977 37.2312C66.914 37.2095 66.9356 37.1825 66.9518 37.1555C66.9735 37.1284 66.9951 37.1014 67.0167 37.0744C67.0762 37.0041 67.1357 36.9284 67.1736 36.8527C67.3251 36.5661 67.3954 36.2525 67.3846 35.9443C67.3738 35.5983 67.3034 35.2847 67.1736 35.0144C67.0654 34.7927 66.9302 34.6683 66.7733 34.5224L66.7138 34.571L66.7625 34.517C66.7625 34.517 66.7084 34.4683 66.6868 34.4413C66.584 34.3385 66.465 34.225 66.3351 34.1601C65.8916 33.933 65.3236 33.8681 64.8205 33.9817C64.4202 34.0736 64.0956 34.2682 63.8522 34.571C63.7115 34.744 63.652 34.9116 63.5871 35.1063C63.5763 35.1333 63.5655 35.1604 63.5547 35.1928C63.5114 35.2955 63.4573 35.4199 63.4357 35.6416C63.387 36.0579 63.4302 36.4093 63.5817 36.8689C63.6953 37.1014 63.8468 37.3015 64.0253 37.4637L64.0361 37.4799ZM73.3945 33.8898C73.2917 33.787 73.1727 33.6735 73.0429 33.6086C72.5939 33.3815 72.0313 33.3166 71.5228 33.4302C71.1225 33.5221 70.798 33.7222 70.5545 34.0195C70.4085 34.198 70.3544 34.3602 70.2895 34.5548C70.2787 34.5818 70.2678 34.6089 70.257 34.6413C70.2137 34.744 70.1596 34.8684 70.138 35.0901C70.0893 35.5064 70.1326 35.8578 70.2841 36.3174C70.4031 36.5499 70.5491 36.75 70.7276 36.9122C70.7493 36.9284 70.7763 36.95 70.8034 36.9662C70.8196 36.977 70.8358 36.9879 70.8467 36.9987L70.8629 37.0095C70.944 37.0744 71.0143 37.1284 71.1063 37.1771C71.3822 37.3231 71.7013 37.3988 72.0421 37.3988C72.2044 37.3988 72.3775 37.3826 72.5506 37.3447C72.8644 37.269 73.1673 37.1014 73.4216 36.8635C73.4919 36.7986 73.5406 36.7337 73.5838 36.6689C73.6001 36.6418 73.6217 36.6202 73.6434 36.5932C73.665 36.5661 73.6866 36.5391 73.7083 36.5121C73.7678 36.4418 73.8273 36.3661 73.8651 36.2904C74.0166 36.0038 74.0869 35.6902 74.0761 35.3874C74.0653 35.0414 73.995 34.7332 73.8651 34.4575C73.757 34.2358 73.6271 34.1114 73.4702 33.9655L73.4107 34.0141L73.4594 33.9601C73.4594 33.9601 73.4107 33.9114 73.3837 33.8844L73.3945 33.8898ZM75.9532 50.4237C74.4277 50.5156 73.4702 51.4997 73.1186 53.3488C72.7454 55.2952 71.9394 56.3766 70.8521 56.3928H70.3327L70.8304 56.5388C71.3335 56.6794 71.9177 56.7497 72.5236 56.7497C73.2322 56.7497 73.9787 56.6524 74.6603 56.4631C75.5908 56.2036 76.4671 55.4683 77.1866 54.3382C77.5815 53.7219 77.9223 53.0568 77.7762 51.7917C77.7005 51.1266 76.8782 50.3643 75.9532 50.4183V50.4237ZM86.6856 37.0798C86.4909 36.9446 86.1934 36.9068 85.9608 37.1392C85.052 38.053 84.1918 39.0046 83.4562 39.8318C81.8928 41.589 80.3565 43.4219 78.7553 45.4279C78.6147 45.6225 78.447 45.8226 78.2685 46.0388C77.6301 46.812 76.9107 47.6879 76.981 48.6882C77.0405 49.3802 77.4084 49.8993 77.998 50.121C78.1873 50.1912 78.3875 50.2237 78.593 50.2237C79.0853 50.2237 79.5938 50.0182 79.9779 49.6452C80.3511 49.3532 80.8163 48.58 81.1842 47.9582C81.3248 47.7257 81.4438 47.5203 81.5412 47.3797C83.2344 44.5952 85.1872 41.2754 86.8695 37.7827C87.0102 37.4907 86.8695 37.2203 86.6802 37.0852L86.6856 37.0798ZM62.9596 39.6318C62.9596 39.6318 62.9109 39.5831 62.8839 39.5561C62.7811 39.4534 62.6621 39.3398 62.5323 39.2749C62.0833 39.0478 61.5207 38.983 61.0176 39.0965C60.6173 39.1884 60.2927 39.3831 60.0493 39.6858C59.9033 39.8643 59.8492 40.0265 59.7843 40.2211C59.7734 40.2482 59.7626 40.2752 59.7518 40.3076C59.7085 40.4104 59.6544 40.5347 59.6274 40.7564C59.5787 41.1727 59.622 41.5242 59.7734 41.9837C59.8924 42.2162 60.0385 42.4163 60.217 42.5785C60.2386 42.5947 60.2657 42.6163 60.2927 42.6325C60.309 42.6434 60.3252 42.6542 60.336 42.6596L60.3522 42.6704C60.4334 42.7353 60.5037 42.7893 60.5957 42.838C60.8716 42.984 61.1907 43.0597 61.5315 43.0597C61.6938 43.0597 61.8669 43.0435 62.04 43.0056C62.3538 42.9299 62.6567 42.7623 62.9109 42.5298C62.9813 42.4649 63.0299 42.4001 63.0786 42.3298C63.0949 42.3027 63.1165 42.2811 63.1327 42.2541C63.149 42.227 63.1706 42.2 63.1976 42.1784C63.2517 42.1081 63.3166 42.0324 63.3599 41.9567C63.5114 41.6701 63.5817 41.3565 63.5709 41.0538C63.5601 40.7077 63.4897 40.3941 63.3599 40.1238C63.2517 39.9021 63.1165 39.7724 62.9596 39.6318L62.9001 39.6804L62.9488 39.6264L62.9596 39.6318Z" fill="white"/>
<path d="M136.301 10.9541C129.21 10.062 121.29 8.79143 116.595 7.78577L116.438 7.75333L116.281 7.78577C111.586 8.79143 103.666 10.062 96.5742 10.9541L95.9197 11.0352V71.4832L96.677 71.4724C102.974 71.3913 109.438 71.3534 116.438 71.3534C123.438 71.3534 129.848 71.3912 136.199 71.4669L136.956 71.4778V11.0407L136.301 10.9596V10.9541ZM128.977 32.6732C128.901 33.414 128.414 33.933 127.717 33.933H122.253C122.015 39.3236 121.712 46.174 121.674 47.4013C121.599 49.71 123.156 50.4507 124.785 50.3372C126.294 50.2345 127.755 49.1423 127.933 47.0769C127.998 47.4229 128.03 47.7852 128.03 48.1529C128.03 51.0671 125.98 53.4299 123.454 53.4299C119.889 53.4299 118.623 50.7914 118.623 48.1529C118.623 47.0607 118.986 39.6372 119.267 33.933H114.393L112.987 46.9904C112.824 48.9369 111.807 51.105 110.276 52.1431C108.919 53.0676 107.377 53.2893 106.219 53.2623C105.408 53.2461 104.97 53.0622 104.613 52.581C104.326 52.1917 104.261 51.1915 104.602 50.3588C105.013 49.3532 105.716 48.4665 106.89 48.0718C107.869 47.742 108.475 47.9312 109.049 48.061C109.606 48.1853 110.006 48.061 110.304 47.8176C110.59 47.5797 110.796 47.2175 110.947 46.8066C111.337 45.7685 111.369 44.4114 111.402 43.9842L112.354 33.933H110.531C107.658 33.933 105.24 35.847 104.477 38.4693C104.315 37.907 104.223 37.3177 104.223 36.7067C104.223 35.7118 104.456 34.7711 104.867 33.933C105.738 32.1542 107.426 30.9647 109.443 30.6132C109.8 30.5538 110.163 30.5159 110.531 30.5159H128.09C128.366 30.5159 129.161 30.2618 129.161 30.2618H129.258L128.982 32.6732H128.977Z" fill="white"/>
<path d="M181.168 77.1224C160.39 76.2736 138.611 75.8464 116.443 75.8464C94.2751 75.8464 72.4966 76.2736 51.7187 77.1224L50.9993 77.1495V100.853C50.9993 113.034 52.8006 122.437 56.6738 130.45C61.115 139.657 68.4557 147.146 79.1178 153.331C93.2798 161.56 107.058 170.736 115.973 177.883L116.443 178.256L116.914 177.883C125.845 170.73 139.628 161.555 153.774 153.331C164.431 147.146 171.771 139.657 176.218 130.45C180.086 122.431 181.887 113.029 181.887 100.853V77.1495L181.168 77.1224ZM134.706 96.5058C134.792 96.8626 134.5 97.5979 134.468 98.1386C134.473 101.318 135.382 101.756 136.604 104.037C137.492 105.676 137.767 106.671 137.232 109.017C137.199 109.25 137.226 109.504 137.47 109.558C138.779 109.677 140.05 110.628 141.359 110.509C141.825 110.601 142.284 110.666 142.777 110.758C144.389 111.066 144.8 111.515 144.865 112.969C144.875 113.315 144.421 114.824 144.318 115.17C144.243 115.392 144.221 115.608 144.297 115.819C144.605 116.895 145.076 117.414 145.681 118.041C146.039 118.571 146.082 118.657 145.849 119.166C145.633 119.647 145.665 120.296 145.86 121.166C145.968 121.674 146.222 122.426 145.828 122.707C145.427 123.064 145.557 123.805 145.319 124.253C144.87 125.14 144.437 124.756 143.566 124.026C143.161 123.686 142.885 123.242 142.831 122.669C142.798 122.426 142.879 122.134 142.906 121.918C142.955 121.804 142.993 121.674 142.869 121.501C142.566 121.107 142.852 120.317 143.199 120.285C143.28 120.279 143.361 120.263 143.453 120.204C143.334 119.939 143.377 119.701 143.188 119.495C142.777 120.047 142.609 119.982 142.214 119.982C142.095 119.982 141.971 120.004 141.906 120.09C141.814 120.377 141.505 120.598 141.235 120.744C140.451 120.928 139.796 121.577 138.947 121.491C138.568 121.501 138.243 121.831 137.903 122.02C136.41 122.837 136.41 120.69 136.929 119.593C137.151 119.112 137.54 118.836 138.114 118.668C138.33 118.073 139.325 118.057 139.85 118.49C140.337 118.836 139.828 118.219 140.478 117.668C141.121 116.981 141.927 116.17 141.581 115.078C141.419 114.7 141.148 114.31 141.208 113.872C141.121 113.613 140.948 113.629 140.748 113.716C140.386 113.878 138.492 114.629 136.258 114.559C135.474 114.505 135.171 115.424 134.689 115.857C134.089 116.608 132.509 118.56 132.293 118.76C129.815 122.15 123.719 124.513 122.015 125.378C118.667 127.054 117.255 127.595 116.941 129.395C116.865 129.849 116.784 130.385 116.714 130.758C116.422 133.796 114.382 135.489 112.532 137.397C111.32 138.641 110.379 140.366 109.259 141.723C108.724 142.404 108.378 142.761 107.988 143.145C107.215 143.923 105.283 144.35 104.932 147.308C104.602 149.352 104.51 150.395 104.396 152.693C104.391 153.856 103.909 155.332 105.094 156.299C105.824 157.267 107.469 157.419 107.631 158.77C109.297 161.322 107.02 160.663 105.895 160.284C105.505 160.165 105.132 160.014 104.851 159.771C103.574 159.522 103.79 159.073 102.968 158.554C102.379 158.213 101.437 158.105 101.253 157.516C101.107 157.056 100.978 156.64 101.037 156.04C101.053 155.764 100.842 155.326 100.756 154.867C100.583 153.872 101.097 154.207 101.47 153.304C101.659 152.855 101.621 152.823 101.535 152.012C101.475 151.504 101.205 148.665 101.026 147.8C100.858 146.881 100.62 146.146 100.696 145.243C100.756 144.486 100.588 143.999 100.361 143.415C99.9226 142.55 99.4899 141.82 99.3384 140.987C99.095 139.679 99.6684 139.365 100.718 138.744C102.914 137.462 104.97 135.424 103.552 133.423C100.945 129.325 100.858 126.492 102.022 123.529C101.967 123.491 101.908 123.442 101.848 123.383C101.697 123.415 101.545 123.405 101.399 123.361C101.221 123.291 101.08 123.177 100.983 123.031C100.182 123.215 98.5216 125.01 98.0997 126.021V125.935C96.6337 129.487 92.8038 130.801 92.8038 130.801C89.9476 130.509 87.1617 134.072 87.1617 134.072C86.9669 133.477 87.2266 132.223 87.4267 131.439C87.4646 131.363 87.5025 131.298 87.5457 131.234C87.6323 131.082 87.6269 130.942 87.5836 130.882C87.6053 130.801 87.6161 130.747 87.6161 130.747C84.4245 131.277 84.9113 130.46 84.9113 130.46C80.3349 131.104 79.9454 135.754 79.9454 135.754C78.209 132.423 84.1648 127.027 86.0311 124.389C88.0867 121.123 89.7474 120.409 93.0796 118.928C95.1515 118.263 97.2936 118.16 99.3763 119.176C100.085 119.398 100.826 120.215 101.616 120.674C101.832 120.523 102.119 120.474 102.384 120.571C102.584 120.647 102.736 120.788 102.833 120.961H102.86C103.666 120.598 106.923 117.641 108.48 116.57C110.898 114.775 113.425 115.219 115.843 112.137C116.395 111.558 117.222 110.488 117.974 109.709L116.741 109.65C116.946 103.567 118.391 99.047 119.04 97.3006C119.354 96.3003 120.982 91.8289 126.402 88.5956C128.479 87.3251 130.4 86.7033 131.46 86.4167C131.801 86.2653 132.25 86.2275 132.563 86.022C133.04 85.8057 133.321 85.5624 133.667 85.2597C133.802 85.0434 133.91 84.892 133.737 84.6271C133.543 84.1945 133.407 83.6592 133.407 83.0915L133.38 83.0645C133.38 83.0645 133.391 82.7617 133.467 82.3995C133.472 82.3832 133.478 82.3724 133.478 82.3454C133.483 82.3184 133.494 82.2859 133.499 82.2643C133.505 82.2264 133.516 82.1832 133.521 82.1616C133.532 82.1291 133.537 82.1021 133.543 82.0805C133.553 82.048 133.564 82.0156 133.575 81.9777C133.58 81.9561 133.586 81.9399 133.597 81.9129C133.608 81.8804 133.624 81.848 133.629 81.8155C133.699 81.6533 133.754 81.556 133.802 81.4965C133.938 81.3127 134.111 81.1775 134.343 81.1613C134.343 81.1613 134.83 82.8807 135.247 82.7617C135.604 82.659 135.279 83.8971 136.042 84.4865C136.199 84.5027 136.361 84.5622 136.518 84.6325C136.594 84.6811 136.664 84.7352 136.718 84.8001C136.994 84.9082 137.237 85.7571 137.692 86.0274C137.93 86.1734 138.179 86.2491 138.427 86.3194C138.849 86.3789 139.845 86.6222 140.256 87.6224C140.256 87.6224 140.38 88.2064 141.062 88.547C141.062 88.547 141.284 88.5957 141.662 89.2066C141.662 89.2066 141.549 89.6337 144.243 90.6881H144.232C145.146 91.0882 146.271 91.6991 146.082 92.3047C145.882 92.9751 146.493 93.5212 146.141 94.2349C145.936 94.6621 144.594 94.9973 144.443 95.3163C144.335 95.5326 143.534 95.857 143.366 95.6461C143.107 95.3271 142.679 95.1487 142.257 95.1C142.106 95.0838 139.406 94.7918 138.319 94.6188C137.07 94.7756 136.199 95.2136 135.49 94.2079C134.819 94.462 134.744 95.0514 134.7 95.4623C134.646 95.8191 134.624 96.1597 134.695 96.5328L134.706 96.5058Z" fill="white"/>
</g>
<defs>
<clipPath id="clip0_651_978">
<rect width="234" height="30" fill="white" transform="translate(0 244)"/>
</clipPath>
<clipPath id="clip1_651_978">
<rect width="215" height="211" fill="white" transform="translate(9)"/>
</clipPath>
</defs>
</svg>
