<svg xmlns="http://www.w3.org/2000/svg" viewBox="32 0 128 30" fill="none">
  <g transform="translate(0, 0)">
    <path d="M36.2873 20.7464H33.818L33.3453 22.01H32.7698L34.7488 16.7572H35.3624L37.3355 22.01H36.76L36.2873 20.7464ZM36.1229 20.3061L35.0512 17.4278L33.9795 20.3061H36.1229Z" fill="white"/>
    <path d="M41.2464 16.691V17.1313H39.7402V22.01H39.197V17.1313H37.6819V16.691H41.2464Z" fill="white"/>
    <path d="M46.596 16.691V22.01H46.0528V19.5203H43.1108V22.01H42.5676V16.691H43.1108V19.0799H46.0528V16.691H46.596Z" fill="white"/>
    <path d="M48.939 17.1256V19.1116H50.9972V19.552H48.939V21.5696H51.2291V22.01H48.3958V16.6823H51.2291V17.1227H48.939V17.1256Z" fill="white"/>
    <path d="M55.5423 22.01L54.2005 19.788H53.1992V22.01H52.6561V16.691H54.2856C54.8904 16.691 55.3514 16.832 55.6626 17.1169C55.9768 17.4019 56.1324 17.7732 56.1324 18.2366C56.1324 18.6223 56.0208 18.9504 55.7948 19.2209C55.5687 19.4915 55.2369 19.67 54.7965 19.7505L56.1941 22.01H55.5423ZM53.1963 19.3533H54.2915C54.7172 19.3533 55.0343 19.2526 55.2516 19.0483C55.4659 18.8468 55.5746 18.5733 55.5746 18.2337C55.5746 17.8941 55.4718 17.612 55.2633 17.422C55.0549 17.2321 54.729 17.1371 54.2856 17.1371H53.1992V19.3505L53.1963 19.3533Z" fill="white"/>
    <path d="M60.5865 16.691V17.1313H59.0803V22.01H58.5371V17.1313H57.0221V16.691H60.5865Z" fill="white"/>
    <path d="M62.3188 21.7164C61.9107 21.4861 61.5877 21.1638 61.3528 20.7493C61.1179 20.3348 61.0005 19.8686 61.0005 19.3447C61.0005 18.8209 61.1179 18.3546 61.3528 17.9401C61.5877 17.5257 61.9107 17.2033 62.3188 16.973C62.7269 16.7428 63.182 16.6276 63.6841 16.6276C64.1861 16.6276 64.6501 16.7428 65.0582 16.973C65.4663 17.2033 65.7893 17.5257 66.0212 17.9401C66.2532 18.3546 66.3706 18.8209 66.3706 19.3447C66.3706 19.8686 66.2532 20.3348 66.0212 20.7493C65.7893 21.1638 65.4663 21.4861 65.0582 21.7164C64.6501 21.9467 64.192 22.0618 63.6841 22.0618C63.1761 22.0618 62.7269 21.9467 62.3188 21.7164ZM64.7734 21.325C65.0934 21.1407 65.3488 20.8788 65.5338 20.5363C65.7217 20.1938 65.8127 19.7966 65.8127 19.3447C65.8127 18.8928 65.7188 18.4985 65.5338 18.1589C65.3488 17.8192 65.0934 17.5573 64.7734 17.376C64.4533 17.1947 64.0893 17.1026 63.687 17.1026C63.2848 17.1026 62.9207 17.1947 62.6007 17.376C62.2806 17.5602 62.0252 17.8192 61.8402 18.1589C61.6523 18.4985 61.5613 18.8957 61.5613 19.3447C61.5613 19.7937 61.6552 20.1938 61.8402 20.5363C62.0252 20.8788 62.2806 21.1407 62.6007 21.325C62.9207 21.5063 63.2848 21.5984 63.687 21.5984C64.0893 21.5984 64.4533 21.5063 64.7734 21.325Z" fill="white"/>
    <path d="M71.682 22.01H71.1388L68.1352 17.5343V22.01H67.592V16.691H68.1352L71.1388 21.158V16.691H71.682V22.01Z" fill="white"/>
    <path d="M36.9391 5.94934V6.92507H34.3759V8.47069H36.3401V9.42914H34.3759V11.9793H33.1427V5.94934H36.942H36.9391Z" fill="white"/>
    <path d="M39.5816 5.94934V9.68243C39.5816 10.0911 39.6902 10.4049 39.9075 10.6207C40.1248 10.8366 40.4301 10.946 40.8236 10.946C41.217 10.946 41.5312 10.8366 41.7484 10.6207C41.9657 10.4049 42.0744 10.0911 42.0744 9.68243V5.94934H43.3163V9.6738C43.3163 10.1861 43.2018 10.6207 42.9757 10.9748C42.7497 11.3288 42.4472 11.5965 42.0685 11.7749C41.6897 11.9534 41.2669 12.0426 40.803 12.0426C40.3391 12.0426 39.9281 11.9534 39.5552 11.7749C39.1823 11.5965 38.8857 11.3288 38.6685 10.9748C38.4512 10.6207 38.3426 10.1861 38.3426 9.6738V5.94934H39.5757H39.5816Z" fill="white"/>
    <path d="M46.4903 11.0208H48.5162V11.9793H45.2542V5.94934H46.4873V11.0208H46.4903Z" fill="white"/>
    <path d="M53.5398 5.94934V6.92507H51.9015V11.9793H50.6683V6.92507H49.03V5.94934H53.5428H53.5398Z" fill="white"/>
    <path d="M55.7772 11.6425C55.2956 11.3777 54.9139 11.0093 54.6321 10.5401C54.3502 10.071 54.2093 9.53852 54.2093 8.9456C54.2093 8.35268 54.3502 7.82884 54.6321 7.35968C54.9139 6.89053 55.2956 6.52211 55.7772 6.25731C56.2587 5.99251 56.7872 5.86012 57.3626 5.86012C57.9381 5.86012 58.4754 5.99251 58.954 6.25731C59.4326 6.52211 59.8114 6.89053 60.0903 7.35968C60.3692 7.82884 60.5101 8.35844 60.5101 8.9456C60.5101 9.53276 60.3692 10.071 60.0903 10.5401C59.8114 11.0093 59.4297 11.3777 58.9481 11.6425C58.4666 11.9073 57.9381 12.0397 57.3626 12.0397C56.7872 12.0397 56.2587 11.9073 55.7772 11.6425ZM58.3433 10.7128C58.6252 10.5488 58.8454 10.3156 59.0039 10.0077C59.1625 9.70258 59.2418 9.34855 59.2418 8.9456C59.2418 8.54264 59.1625 8.18862 59.0039 7.8864C58.8454 7.58419 58.6252 7.35105 58.3433 7.18987C58.0614 7.02868 57.7355 6.94809 57.3656 6.94809C56.9956 6.94809 56.6668 7.02868 56.382 7.18987C56.0972 7.35105 55.874 7.58419 55.7155 7.8864C55.5569 8.18862 55.4777 8.54264 55.4777 8.9456C55.4777 9.34855 55.5569 9.70258 55.7155 10.0077C55.874 10.3128 56.0972 10.5488 56.382 10.7128C56.6668 10.8769 56.9956 10.9604 57.3656 10.9604C57.7355 10.9604 58.0614 10.8798 58.3433 10.7128Z" fill="white"/>
    <path d="M67.2191 11.9793H65.986L63.1908 7.84035V11.9793H61.9576V5.9407H63.1908L65.986 10.0883V5.9407H67.2191V11.9793Z" fill="white"/>
    <path d="M72.6597 11.8238C72.3162 11.6799 72.0432 11.4727 71.8435 11.2021C71.6439 10.9316 71.5411 10.6121 71.5352 10.2437H72.8565C72.8741 10.4912 72.9622 10.6869 73.1237 10.8309C73.2851 10.9748 73.5083 11.0467 73.7901 11.0467C74.072 11.0467 74.304 10.9805 74.4684 10.8452C74.6328 10.71 74.715 10.5315 74.715 10.3128C74.715 10.1343 74.6592 9.98752 74.5477 9.8724C74.4361 9.75727 74.2952 9.66516 74.1278 9.59896C73.9604 9.53276 73.7285 9.46081 73.4349 9.38021C73.0356 9.26508 72.7097 9.14995 72.4601 9.0377C72.2105 8.92545 71.9962 8.75563 71.8171 8.52825C71.638 8.30087 71.547 7.99578 71.547 7.61585C71.547 7.25894 71.638 6.94809 71.82 6.68329C72.0021 6.4185 72.2575 6.21414 72.5863 6.07311C72.9152 5.93207 73.291 5.86012 73.7138 5.86012C74.348 5.86012 74.8648 6.00978 75.2611 6.31488C75.6575 6.61709 75.8777 7.0402 75.9188 7.58131H74.5623C74.5506 7.37407 74.4625 7.20426 74.2922 7.0661C74.1249 6.93082 73.9017 6.86175 73.6257 6.86175C73.385 6.86175 73.1912 6.92219 73.0473 7.04308C72.9034 7.16396 72.833 7.33954 72.833 7.5698C72.833 7.73098 72.8858 7.86626 72.9945 7.97275C73.1031 8.07925 73.2382 8.16559 73.3996 8.23179C73.5611 8.29799 73.7901 8.37571 74.0838 8.46205C74.4831 8.57718 74.809 8.69231 75.0615 8.80744C75.314 8.92257 75.5313 9.09527 75.7133 9.32553C75.8953 9.55579 75.9863 9.858 75.9863 10.2322C75.9863 10.5545 75.9012 10.8539 75.7309 11.1302C75.5606 11.4065 75.311 11.6281 74.9822 11.7922C74.6534 11.9562 74.2629 12.0397 73.8107 12.0397C73.382 12.0397 72.9945 11.9678 72.6509 11.8238H72.6597Z" fill="white"/>
    <path d="M77.3839 7.36256C77.657 6.89341 78.0299 6.52787 78.5026 6.26595C78.9753 6.00403 79.5067 5.87163 80.094 5.87163C80.781 5.87163 81.3829 6.04432 81.8997 6.38971C82.4164 6.7351 82.7776 7.21289 82.9831 7.82308H81.5649C81.424 7.53526 81.2244 7.31939 80.9689 7.17548C80.7135 7.03156 80.4169 6.95961 80.0822 6.95961C79.724 6.95961 79.404 7.0402 79.125 7.20714C78.8461 7.3712 78.6288 7.60433 78.4732 7.90367C78.3176 8.20301 78.2383 8.55416 78.2383 8.95711C78.2383 9.36007 78.3176 9.70546 78.4732 10.0077C78.6288 10.3099 78.8461 10.543 79.125 10.7071C79.404 10.8711 79.724 10.9546 80.0822 10.9546C80.4169 10.9546 80.7135 10.8798 80.9689 10.733C81.2244 10.5862 81.424 10.3703 81.5649 10.0796H82.9831C82.7776 10.6956 82.4164 11.1762 81.9026 11.5188C81.3888 11.8613 80.7839 12.034 80.091 12.034C79.5038 12.034 78.9724 11.9016 78.4996 11.6396C78.0269 11.3777 77.6541 11.0122 77.381 10.5459C77.1079 10.0796 76.9699 9.55003 76.9699 8.95711C76.9699 8.36419 77.1079 7.83172 77.381 7.36256H77.3839Z" fill="white"/>
    <path d="M85.881 5.94934V11.9793H84.6478V5.94934H85.881Z" fill="white"/>
    <path d="M89.0814 6.92507V8.43615H91.1513V9.39461H89.0814V10.992H91.4156V11.9764H87.8453V5.93783H91.4156V6.92219H89.0814V6.92507Z" fill="white"/>
    <path d="M98.5004 11.9793H97.2672L94.4721 7.84035V11.9793H93.2389V5.9407H94.4721L97.2672 10.0883V5.9407H98.5004V11.9793Z" fill="white"/>
    <path d="M100.171 7.36256C100.444 6.89341 100.817 6.52787 101.29 6.26595C101.762 6.00403 102.294 5.87163 102.881 5.87163C103.568 5.87163 104.17 6.04432 104.687 6.38971C105.203 6.7351 105.565 7.21289 105.77 7.82308H104.352C104.211 7.53526 104.011 7.31939 103.756 7.17548C103.501 7.03156 103.204 6.95961 102.869 6.95961C102.511 6.95961 102.191 7.0402 101.912 7.20714C101.633 7.3712 101.416 7.60433 101.26 7.90367C101.105 8.20301 101.025 8.55416 101.025 8.95711C101.025 9.36007 101.105 9.70546 101.26 10.0077C101.416 10.3099 101.633 10.543 101.912 10.7071C102.191 10.8711 102.511 10.9546 102.869 10.9546C103.204 10.9546 103.501 10.8798 103.756 10.733C104.011 10.5862 104.211 10.3703 104.352 10.0796H105.77C105.565 10.6956 105.204 11.1762 104.69 11.5188C104.176 11.8613 103.571 12.034 102.878 12.034C102.291 12.034 101.759 11.9016 101.287 11.6396C100.814 11.3777 100.441 11.0122 100.168 10.5459C99.895 10.0796 99.757 9.55003 99.757 8.95711C99.757 8.36419 99.895 7.83172 100.168 7.36256H100.171Z" fill="white"/>
    <path d="M108.674 6.92507V8.43615H110.744V9.39461H108.674V10.992H111.008V11.9764H107.438V5.93783H111.008V6.92219H108.674V6.92507Z" fill="white"/>
    <path d="M119.162 10.8309H116.713L116.308 11.9793H115.013L117.224 5.9407H118.66L120.871 11.9793H119.567L119.162 10.8309ZM118.827 9.86376L117.937 7.34241L117.048 9.86376H118.827Z" fill="white"/>
    <path d="M121.581 7.36256C121.854 6.89341 122.227 6.52787 122.7 6.26595C123.172 6.00403 123.704 5.87163 124.291 5.87163C124.978 5.87163 125.58 6.04432 126.097 6.38971C126.614 6.7351 126.975 7.21289 127.18 7.82308H125.762C125.621 7.53526 125.422 7.31939 125.166 7.17548C124.911 7.03156 124.614 6.95961 124.279 6.95961C123.921 6.95961 123.601 7.0402 123.322 7.20714C123.043 7.3712 122.826 7.60433 122.67 7.90367C122.515 8.20301 122.435 8.55416 122.435 8.95711C122.435 9.36007 122.515 9.70546 122.67 10.0077C122.826 10.3099 123.043 10.543 123.322 10.7071C123.601 10.8711 123.921 10.9546 124.279 10.9546C124.614 10.9546 124.911 10.8798 125.166 10.733C125.422 10.5862 125.621 10.3703 125.762 10.0796H127.18C126.975 10.6956 126.614 11.1762 126.1 11.5188C125.586 11.8613 124.981 12.034 124.288 12.034C123.701 12.034 123.17 11.9016 122.697 11.6396C122.224 11.3777 121.851 11.0122 121.578 10.5459C121.305 10.0796 121.167 9.55003 121.167 8.95711C121.167 8.36419 121.305 7.83172 121.578 7.36256H121.581Z" fill="white"/>
    <path d="M131.763 10.8309H129.315L128.91 11.9793H127.615L129.826 5.9407H131.261L133.472 11.9793H132.169L131.763 10.8309ZM131.429 9.86376L130.539 7.34241L129.649 9.86376H131.429Z" fill="white"/>
    <path d="M138.493 6.32063C138.983 6.56816 139.362 6.92219 139.629 7.37983C139.897 7.83747 140.032 8.36995 140.032 8.97438C140.032 9.57881 139.897 10.1084 139.629 10.5603C139.362 11.0122 138.983 11.3633 138.493 11.6109C138.003 11.8584 137.433 11.9822 136.787 11.9822H134.638V5.95222H136.787C137.433 5.95222 138.003 6.07598 138.493 6.32351V6.32063ZM138.241 10.4337C138.593 10.0883 138.769 9.60184 138.769 8.97438C138.769 8.34692 138.593 7.85474 138.241 7.50072C137.888 7.14669 137.389 6.96824 136.743 6.96824H135.871V10.9517H136.743C137.389 10.9517 137.888 10.779 138.241 10.4337Z" fill="white"/>
    <path d="M142.718 6.92507V8.43615H144.788V9.39461H142.718V10.992H145.052V11.9764H141.482V5.93783H145.052V6.92219H142.718V6.92507Z" fill="white"/>
    <path d="M153.276 5.94934V11.9793H152.043V8.05622L150.396 11.9793H149.462L147.806 8.05622V11.9793H146.573V5.94934H147.974L149.929 10.4337L151.885 5.94934H153.276Z" fill="white"/>
    <path d="M160 5.94934L157.921 9.88103V11.9793H156.688V9.88103L154.6 5.94934H155.992L157.313 8.7067L158.626 5.94934H160Z" fill="white"/>
  </g>
</svg>
