<svg width="129" height="105" viewBox="0 0 129 105" fill="none" xmlns="http://www.w3.org/2000/svg">
<g clip-path="url(#clip0_649_566)">
<path d="M105.722 102.087H88.9622V102.493H105.722V102.087Z" fill="#9C9C9C" style="fill:#9C9C9C;fill:color(display-p3 0.6130 0.6130 0.6130);fill-opacity:1;"/>
<path d="M39.4074 102.087H22.6499V102.493H39.4074V102.087Z" fill="#9C9C9C" style="fill:#9C9C9C;fill:color(display-p3 0.6130 0.6130 0.6130);fill-opacity:1;"/>
<path d="M47.9006 103.747H45.537L45.1021 104.946H44.3552L46.3152 99.581H47.1308L49.0824 104.946H48.3355L47.9006 103.747ZM47.6988 103.173L46.7188 100.449L45.7388 103.173H47.6988Z" fill="#9C9C9C" style="fill:#9C9C9C;fill:color(display-p3 0.6130 0.6130 0.6130);fill-opacity:1;"/>
<path d="M52.915 99.5499V100.124H51.4377V104.946H50.7303V100.124H49.2447V99.5499H52.915Z" fill="#9C9C9C" style="fill:#9C9C9C;fill:color(display-p3 0.6130 0.6130 0.6130);fill-opacity:1;"/>
<path d="M58.1915 99.5499V104.946H57.4841V102.5H54.723V104.946H54.0156V99.5499H54.723V101.918H57.4841V99.5499H58.1915Z" fill="#9C9C9C" style="fill:#9C9C9C;fill:color(display-p3 0.6130 0.6130 0.6130);fill-opacity:1;"/>
<path d="M60.474 100.124V101.928H62.4485V102.508H60.474V104.366H62.6815V104.946H59.7665V99.5437H62.6815V100.124H60.474Z" fill="#9C9C9C" style="fill:#9C9C9C;fill:color(display-p3 0.6130 0.6130 0.6130);fill-opacity:1;"/>
<path d="M66.8366 104.946L65.5466 102.74H64.6914V104.946H63.984V99.5499H65.7338C66.1437 99.5499 66.4891 99.6203 66.7721 99.7591C67.055 99.8979 67.2652 100.086 67.4046 100.325C67.544 100.563 67.6147 100.832 67.6147 101.137C67.6147 101.507 67.5065 101.837 67.2922 102.121C67.0779 102.404 66.7554 102.593 66.3247 102.686L67.6855 104.946H66.8387H66.8366ZM64.6914 102.174H65.7338C66.1167 102.174 66.4059 102.081 66.5973 101.893C66.7887 101.704 66.8844 101.454 66.8844 101.139C66.8844 100.824 66.7908 100.571 66.6015 100.395C66.4121 100.219 66.1229 100.132 65.7338 100.132H64.6914V102.174Z" fill="#9C9C9C" style="fill:#9C9C9C;fill:color(display-p3 0.6130 0.6130 0.6130);fill-opacity:1;"/>
<path d="M72.188 99.5499V100.124H70.7107V104.946H70.0033V100.124H68.5177V99.5499H72.188Z" fill="#9C9C9C" style="fill:#9C9C9C;fill:color(display-p3 0.6130 0.6130 0.6130);fill-opacity:1;"/>
<path d="M74.0835 104.648C73.6694 104.414 73.3407 104.084 73.0993 103.664C72.8579 103.243 72.7373 102.769 72.7373 102.243C72.7373 101.717 72.8579 101.242 73.0993 100.822C73.3407 100.401 73.6673 100.074 74.0835 99.8378C74.4975 99.6037 74.9573 99.4857 75.4588 99.4857C75.9602 99.4857 76.4283 99.6037 76.8424 99.8378C77.2564 100.072 77.5831 100.399 77.8224 100.818C78.0616 101.236 78.1802 101.71 78.1802 102.243C78.1802 102.775 78.0616 103.25 77.8224 103.668C77.5831 104.086 77.2564 104.412 76.8424 104.648C76.4283 104.882 75.9664 105 75.4588 105C74.9511 105 74.4975 104.882 74.0835 104.648ZM76.4824 104.126C76.7862 103.95 77.0234 103.699 77.1982 103.374C77.3709 103.049 77.4583 102.672 77.4583 102.243C77.4583 101.814 77.3709 101.431 77.1982 101.11C77.0234 100.787 76.7883 100.538 76.4866 100.362C76.1849 100.186 75.8437 100.099 75.4608 100.099C75.078 100.099 74.7347 100.186 74.4351 100.362C74.1355 100.538 73.8983 100.787 73.7235 101.11C73.5487 101.433 73.4634 101.81 73.4634 102.243C73.4634 102.676 73.5508 103.049 73.7235 103.374C73.8962 103.699 74.1355 103.95 74.4392 104.126C74.743 104.302 75.0822 104.389 75.4608 104.389C75.8395 104.389 76.1807 104.302 76.4824 104.126Z" fill="#9C9C9C" style="fill:#9C9C9C;fill:color(display-p3 0.6130 0.6130 0.6130);fill-opacity:1;"/>
<path d="M83.7252 104.946H83.0177L80.1714 100.65V104.946H79.464V99.5437H80.1714L83.0177 103.832V99.5437H83.7252V104.946Z" fill="#9C9C9C" style="fill:#9C9C9C;fill:color(display-p3 0.6130 0.6130 0.6130);fill-opacity:1;"/>
<path d="M0 88.9977H5.24323L5.30356 91.0381H4.94153C4.87703 90.4084 4.72931 89.9734 4.49836 89.7331C4.2674 89.4907 3.90953 89.3706 3.4289 89.3706H2.54879C2.41979 89.3706 2.32616 89.3996 2.2679 89.4514C2.20965 89.5031 2.17844 89.5798 2.17844 89.6792V91.6596H2.49886C3.13761 91.6596 3.50589 91.2805 3.60368 90.5223H3.95531V93.2526H3.60368C3.59327 92.9605 3.54542 92.7285 3.45803 92.5586C3.37273 92.3887 3.25413 92.2582 3.10432 92.1609C2.95244 92.0656 2.77974 92.0179 2.58208 92.0179H2.17844V94.1723C2.17844 94.2862 2.20965 94.3712 2.27206 94.425C2.35945 94.5017 2.46556 94.541 2.58624 94.541H3.14802V94.9118H0V94.541H0.526403C0.649161 94.541 0.744871 94.5079 0.811452 94.4437C0.878032 94.3774 0.911323 94.2966 0.911323 94.1972V89.6771C0.911323 89.5632 0.878032 89.4824 0.813532 89.4389C0.749032 89.3934 0.61379 89.3706 0.409887 89.3706H0V88.9998V88.9977Z" fill="#9C9C9C" style="fill:#9C9C9C;fill:color(display-p3 0.6130 0.6130 0.6130);fill-opacity:1;"/>
<path d="M5.82164 88.9977H8.80944V89.3685H8.20189C8.11659 89.3685 8.05001 89.3975 8.00215 89.4555C7.9543 89.5135 7.92933 89.6005 7.92933 89.7165V92.9895C7.92933 93.4493 8.05209 93.8036 8.29968 94.0501C8.54728 94.2966 8.88643 94.4209 9.3192 94.4209C9.63754 94.4209 9.92675 94.3525 10.1868 94.2179C10.3762 94.1164 10.5322 93.9486 10.655 93.7166C10.7757 93.4846 10.8381 93.1925 10.8381 92.8424V90.3317C10.8381 90.0107 10.7673 89.7704 10.6238 89.6109C10.4802 89.4514 10.2888 89.3706 10.0474 89.3706H9.95796V88.9998H12.2238V89.3706H12.0677C11.8305 89.3706 11.6516 89.4596 11.5288 89.6378C11.4061 89.8159 11.3437 90.0334 11.3437 90.2945V93.0185C11.3437 93.6233 11.1398 94.1101 10.732 94.4768C10.3221 94.8476 9.7603 95.032 9.04456 95.032C8.53272 95.032 8.08746 94.9491 7.70878 94.7834C7.3301 94.6156 7.0617 94.4022 6.90149 94.1392C6.74336 93.8761 6.66222 93.5281 6.66222 93.0972V89.7745C6.66222 89.6191 6.63309 89.5135 6.57275 89.4555C6.51449 89.3975 6.40838 89.3685 6.25441 89.3685H5.81747V88.9977H5.82164Z" fill="#9C9C9C" style="fill:#9C9C9C;fill:color(display-p3 0.6130 0.6130 0.6130);fill-opacity:1;"/>
<path d="M12.7627 89.3706V88.9998H15.8108V89.3706H15.2969C15.1492 89.3706 15.0472 89.3996 14.9869 89.4555C14.9286 89.5114 14.8974 89.6005 14.8974 89.7269V94.1267C14.8974 94.3049 14.9265 94.4188 14.9827 94.4685C15.0389 94.5182 15.1721 94.5431 15.3801 94.5431H16.2353C16.5536 94.5431 16.8511 94.3919 17.1279 94.0915C17.4025 93.7911 17.6147 93.3085 17.7625 92.6477H18.1245L17.9872 94.916H12.7627V94.5452H13.2849C13.4014 94.5452 13.4867 94.5162 13.5471 94.4561C13.6053 94.3981 13.6365 94.3152 13.6365 94.2096V89.6854C13.6365 89.5777 13.6053 89.4969 13.545 89.4493C13.4846 89.3996 13.3806 89.3747 13.235 89.3747H12.7647L12.7627 89.3706Z" fill="#9C9C9C" style="fill:#9C9C9C;fill:color(display-p3 0.6130 0.6130 0.6130);fill-opacity:1;"/>
<path d="M18.6551 88.9977H23.8504L23.9815 91.2453H23.6153C23.53 90.7668 23.4197 90.3897 23.2824 90.1204C23.1451 89.8532 22.989 89.6606 22.8143 89.5466C22.6395 89.4348 22.446 89.3768 22.2379 89.3768C22.1173 89.3768 22.0278 89.4016 21.9716 89.4514C21.9154 89.499 21.8884 89.5736 21.8884 89.6647V94.2407C21.8884 94.3277 21.9154 94.4002 21.9716 94.4561C22.0257 94.512 22.0923 94.541 22.1693 94.541H22.8434V94.9118H19.6663V94.541H20.3092C20.4049 94.541 20.4819 94.5141 20.538 94.4582C20.5942 94.4022 20.6234 94.3297 20.6234 94.2407V89.6896C20.6234 89.5819 20.5942 89.5031 20.538 89.4534C20.4798 89.4037 20.3903 89.3768 20.2655 89.3768C19.583 89.3768 19.1211 90.0003 18.8798 91.2453H18.5261L18.653 88.9977H18.6551Z" fill="#9C9C9C" style="fill:#9C9C9C;fill:color(display-p3 0.6130 0.6130 0.6130);fill-opacity:1;"/>
<path d="M27.5893 88.8506C28.149 88.8506 28.665 88.9832 29.1373 89.2546C29.6097 89.5238 29.9779 89.8905 30.2422 90.3545C30.5064 90.8185 30.6375 91.3426 30.6375 91.9289C30.6375 92.8155 30.3462 93.555 29.7636 94.1454C29.181 94.7378 28.4591 95.032 27.5956 95.032C27.0234 95.032 26.5095 94.8994 26.0559 94.6301C25.6023 94.3608 25.2424 93.9962 24.9802 93.5405C24.7181 93.0848 24.587 92.5524 24.587 91.9496C24.587 91.0485 24.8741 90.311 25.4504 89.7248C26.0247 89.1406 26.7384 88.8506 27.5873 88.8506H27.5893ZM27.6143 89.2338C27.296 89.2338 27.0192 89.3208 26.7841 89.4948C26.549 89.6689 26.3638 89.9506 26.2265 90.34C26.0892 90.7274 26.0185 91.2598 26.0185 91.9371C26.0185 92.6477 26.083 93.1883 26.2099 93.555C26.3368 93.9196 26.522 94.1909 26.7654 94.3691C27.0088 94.5431 27.2918 94.6322 27.6164 94.6322C28.097 94.6322 28.4799 94.4292 28.767 94.019C29.0541 93.6109 29.1956 92.9004 29.1956 91.8874C29.1956 91.179 29.1353 90.6466 29.0104 90.2903C28.8877 89.934 28.7046 89.6689 28.4591 89.4948C28.2156 89.3208 27.9327 89.2338 27.6122 89.2338H27.6143Z" fill="#9C9C9C" style="fill:#9C9C9C;fill:color(display-p3 0.6130 0.6130 0.6130);fill-opacity:1;"/>
<path d="M31.347 88.9977H33.1904L36.4092 93.0537V90.2986C36.4092 90.0272 36.3322 89.8077 36.1762 89.6461C36.0201 89.4824 35.7996 89.3892 35.5124 89.3706V88.9998H37.6805V89.3706C37.3788 89.4037 37.1603 89.4928 37.0292 89.6419C36.8982 89.789 36.8316 90.0086 36.8316 90.2986V94.9139H36.3676L32.7057 90.2468V93.4804C32.7057 93.8512 32.791 94.1205 32.9616 94.2883C33.1322 94.4582 33.3423 94.5431 33.5941 94.5431H33.696V94.9139H31.2971V94.5431H31.4614C31.6965 94.5431 31.8963 94.4478 32.0565 94.2634C32.2167 94.077 32.2978 93.8367 32.2978 93.5446V89.7269C32.1189 89.4907 31.888 89.3726 31.6112 89.3726H31.347V89.0018V88.9977Z" fill="#9C9C9C" style="fill:#9C9C9C;fill:color(display-p3 0.6130 0.6130 0.6130);fill-opacity:1;"/>
<path d="M44.5861 89.4555L44.9607 88.9273H45.2457L45.2811 90.9698H44.919C44.7318 90.3835 44.4655 89.9444 44.1201 89.6523C43.7747 89.3602 43.3939 89.2152 42.9757 89.2152C42.6199 89.2152 42.3286 89.3105 42.106 89.5052C41.8813 89.6979 41.771 89.9278 41.771 90.1992C41.771 90.3587 41.8147 90.5037 41.9042 90.6383C41.9916 90.7709 42.1351 90.8848 42.3307 90.978C42.5263 91.0713 42.8717 91.1707 43.3627 91.2722C43.937 91.3903 44.3365 91.5001 44.557 91.5953C44.9045 91.7507 45.1666 91.9558 45.3414 92.2106C45.5162 92.4654 45.6036 92.774 45.6036 93.1386C45.6036 93.6855 45.4142 94.1205 45.0376 94.4457C44.582 94.8372 44.0181 95.032 43.3461 95.032C42.7281 95.032 42.1622 94.8186 41.6503 94.3877L41.1822 94.9719H40.8847V92.7802H41.2384C41.5879 94.0314 42.3016 94.6549 43.3731 94.6549C43.8121 94.6549 44.1534 94.5555 44.3968 94.3525C44.6402 94.1516 44.763 93.9009 44.763 93.5985C44.763 93.3872 44.7089 93.2111 44.6028 93.0703C44.4946 92.9273 44.3302 92.8134 44.1055 92.7243C43.9828 92.6767 43.6769 92.6021 43.19 92.4964C42.5346 92.3535 42.0686 92.2044 41.7877 92.0511C41.5089 91.8999 41.3029 91.7114 41.1718 91.4897C41.0407 91.266 40.9741 90.9967 40.9741 90.6756C40.9741 90.1391 41.1552 89.6999 41.5193 89.3602C41.8834 89.0205 42.3682 88.8506 42.9799 88.8506C43.5916 88.8506 44.1034 89.0515 44.5903 89.4534L44.5861 89.4555Z" fill="#9C9C9C" style="fill:#9C9C9C;fill:color(display-p3 0.6130 0.6130 0.6130);fill-opacity:1;"/>
<path d="M51.0049 89.4472L51.2817 88.8589H51.5792L51.6791 91.2308H51.3108C51.1964 90.5492 50.98 90.0417 50.6595 89.7103C50.3391 89.3788 49.9771 89.2152 49.5672 89.2152C49.1178 89.2152 48.7454 89.4265 48.4499 89.8532C48.1545 90.2799 48.0067 90.9532 48.0067 91.8729C48.0067 92.8424 48.169 93.5674 48.4936 94.0376C48.7537 94.4084 49.1365 94.5928 49.6421 94.5928C50.1477 94.5928 50.5742 94.4064 50.9196 94.0376C51.1693 93.7683 51.342 93.3706 51.4419 92.8465H51.8039C51.7186 93.5198 51.4585 94.0542 51.0299 94.4457C50.5992 94.8372 50.0686 95.032 49.4382 95.032C48.6247 95.032 47.9422 94.7482 47.3929 94.1764C46.8416 93.6047 46.569 92.8735 46.569 91.9806C46.569 90.9905 46.8853 90.1992 47.5219 89.6067C48.0629 89.1033 48.6954 88.8506 49.4216 88.8506C49.7087 88.8506 49.9729 88.8941 50.2185 88.9832C50.464 89.0723 50.7261 89.2276 51.007 89.4451L51.0049 89.4472Z" fill="#9C9C9C" style="fill:#9C9C9C;fill:color(display-p3 0.6130 0.6130 0.6130);fill-opacity:1;"/>
<path d="M52.6195 88.9977H55.6635V89.3685H55.1121C54.9956 89.3685 54.9082 89.3934 54.8541 89.4369C54.8 89.4845 54.773 89.5529 54.773 89.644V94.2241C54.773 94.3297 54.8021 94.4064 54.8562 94.4519C54.929 94.512 55.0331 94.541 55.1704 94.541H55.6614V94.9118H52.6174V94.541H53.0835C53.2437 94.541 53.3561 94.5141 53.4226 94.4602C53.4892 94.4064 53.5204 94.3277 53.5204 94.2241V89.6958C53.5204 89.5839 53.4913 89.5011 53.431 89.4493C53.3706 89.3975 53.277 89.3685 53.148 89.3685H52.6174V88.9977H52.6195Z" fill="#9C9C9C" style="fill:#9C9C9C;fill:color(display-p3 0.6130 0.6130 0.6130);fill-opacity:1;"/>
<path d="M56.4021 88.9977H61.5767L61.6911 91.065H61.3374C61.2542 90.5762 61.1502 90.2261 61.0274 90.0107C60.9026 89.7952 60.7382 89.6357 60.5364 89.528C60.3346 89.4203 60.0703 89.3664 59.7437 89.3664H58.9322C58.8053 89.3664 58.7137 89.3913 58.6576 89.441C58.6014 89.4886 58.5743 89.5591 58.5743 89.6461V91.6989H58.8511C59.1694 91.6989 59.417 91.6078 59.5918 91.4276C59.7686 91.2453 59.8706 90.9532 59.9039 90.5513H60.2659V93.3023H59.9039C59.8789 92.8486 59.779 92.5255 59.6022 92.339C59.4253 92.1526 59.159 92.0594 58.8032 92.0594H58.5743V94.2469C58.5743 94.3442 58.6035 94.4105 58.6576 94.4499C58.7429 94.5099 58.8677 94.5389 59.0279 94.5389H59.7437C60.2347 94.5389 60.6342 94.3815 60.9442 94.0708C61.2542 93.758 61.4477 93.2878 61.5226 92.6601H61.8846L61.7952 94.9097H56.4001V94.5389H56.9348C57.0555 94.5389 57.147 94.5079 57.2115 94.4457C57.2739 94.3857 57.3051 94.3028 57.3051 94.1992V89.6481C57.3051 89.5529 57.2739 89.4804 57.2115 89.4369C57.147 89.3913 57.0346 89.3685 56.8724 89.3685H56.4021V88.9977Z" fill="#9C9C9C" style="fill:#9C9C9C;fill:color(display-p3 0.6130 0.6130 0.6130);fill-opacity:1;"/>
<path d="M62.5983 88.9977H64.4417L67.6584 93.0537V90.2986C67.6584 90.0272 67.5794 89.8077 67.4254 89.6461C67.2693 89.4824 67.0488 89.3892 66.7637 89.3706V88.9998H68.9318V89.3706C68.628 89.4037 68.4116 89.4928 68.2805 89.6419C68.1495 89.789 68.085 90.0086 68.085 90.2986V94.9139H67.621L63.959 90.2468V93.4804C63.959 93.8512 64.0443 94.1205 64.215 94.2883C64.3856 94.4582 64.5957 94.5431 64.8475 94.5431H64.9473V94.9139H62.5484V94.5431H62.7127C62.9499 94.5431 63.1476 94.4478 63.3078 94.2634C63.468 94.077 63.5491 93.8367 63.5491 93.5446V89.7269C63.3702 89.4907 63.1413 89.3726 62.8625 89.3726H62.5983V89.0018V88.9977Z" fill="#9C9C9C" style="fill:#9C9C9C;fill:color(display-p3 0.6130 0.6130 0.6130);fill-opacity:1;"/>
<path d="M73.7131 89.4472L73.9898 88.8589H74.2874L74.3893 91.2308H74.019C73.9045 90.5492 73.6861 90.0417 73.3698 89.7103C73.0515 89.3788 72.6853 89.2152 72.2754 89.2152C71.826 89.2152 71.4535 89.4265 71.1601 89.8532C70.8668 90.2799 70.7191 90.9532 70.7191 91.8729C70.7191 92.8424 70.8813 93.5674 71.2038 94.0376C71.4639 94.4084 71.8468 94.5928 72.3524 94.5928C72.858 94.5928 73.2845 94.4064 73.632 94.0376C73.8796 93.7683 74.0543 93.3706 74.1542 92.8465H74.5162C74.4309 93.5198 74.1729 94.0542 73.7422 94.4457C73.3095 94.8372 72.781 95.032 72.1526 95.032C71.337 95.032 70.6566 94.7482 70.1053 94.1764C69.556 93.6047 69.2813 92.8735 69.2813 91.9806C69.2813 90.9905 69.5976 90.1992 70.2343 89.6067C70.7752 89.1033 71.4077 88.8506 72.1339 88.8506C72.421 88.8506 72.6853 88.8941 72.9308 88.9832C73.1763 89.0723 73.4385 89.2276 73.7214 89.4451L73.7131 89.4472Z" fill="#9C9C9C" style="fill:#9C9C9C;fill:color(display-p3 0.6130 0.6130 0.6130);fill-opacity:1;"/>
<path d="M75.2653 88.9977H80.4398L80.5563 91.065H80.2026C80.1194 90.5762 80.0154 90.2261 79.8905 90.0107C79.7657 89.7952 79.6034 89.6357 79.4016 89.528C79.1977 89.4203 78.9334 89.3664 78.6068 89.3664H77.7953C77.6705 89.3664 77.5789 89.3913 77.5228 89.441C77.4666 89.4886 77.4375 89.5591 77.4375 89.6461V91.6989H77.7163C78.0346 91.6989 78.2801 91.6078 78.457 91.4276C78.6317 91.2453 78.7358 90.9532 78.7691 90.5513H79.1311V93.3023H78.7691C78.7441 92.8486 78.6442 92.5255 78.4674 92.339C78.2926 92.1526 78.0263 92.0594 77.6684 92.0594H77.4395V94.2469C77.4395 94.3442 77.4687 94.4105 77.5248 94.4499C77.6101 94.5099 77.7329 94.5389 77.8931 94.5389H78.6089C79.0999 94.5389 79.4973 94.3815 79.8094 94.0708C80.1194 93.758 80.315 93.2878 80.3878 92.6601H80.7498L80.6604 94.9097H75.2653V94.5389H75.8C75.9207 94.5389 76.0122 94.5079 76.0767 94.4457C76.1391 94.3857 76.1703 94.3028 76.1703 94.1992V89.6481C76.1703 89.5529 76.1391 89.4804 76.0767 89.4369C76.0143 89.3913 75.9019 89.3685 75.7376 89.3685H75.2673V88.9977H75.2653Z" fill="#9C9C9C" style="fill:#9C9C9C;fill:color(display-p3 0.6130 0.6130 0.6130);fill-opacity:1;"/>
<path d="M87.5015 88.8506L89.7278 94.1578C89.7923 94.3069 89.8631 94.4084 89.938 94.4623C90.0108 94.5141 90.1107 94.5431 90.2334 94.5431H90.4519V94.9139H87.6638V94.5431H87.926C88.132 94.5431 88.2735 94.5203 88.3504 94.4747C88.4295 94.4292 88.467 94.3712 88.467 94.2945C88.467 94.2365 88.4503 94.1681 88.4191 94.0915L87.9614 92.9957H85.7372L85.5249 93.4949C85.4355 93.7021 85.3918 93.8574 85.3918 93.9589C85.3918 94.1309 85.4563 94.2738 85.5853 94.3815C85.7143 94.4872 85.889 94.5431 86.1117 94.5431H86.301V94.9139H84.0435V94.5431H84.1746C84.3181 94.5431 84.4471 94.4975 84.5574 94.4064C84.7114 94.2779 84.8342 94.1143 84.9195 93.9154L87.05 88.8527H87.5015V88.8506ZM86.8545 90.3483L85.9036 92.6H87.797L86.8545 90.3483Z" fill="#9C9C9C" style="fill:#9C9C9C;fill:color(display-p3 0.6130 0.6130 0.6130);fill-opacity:1;"/>
<path d="M95.0231 89.4472L95.2998 88.8589H95.5973L95.6993 91.2308H95.3289C95.2145 90.5492 94.996 90.0417 94.6777 89.7103C94.3593 89.3788 93.9952 89.2152 93.5853 89.2152C93.1359 89.2152 92.7614 89.4265 92.468 89.8532C92.1747 90.2799 92.0269 90.9532 92.0269 91.8729C92.0269 92.8424 92.1871 93.5674 92.5138 94.0376C92.7718 94.4084 93.1567 94.5928 93.6623 94.5928C94.1679 94.5928 94.5944 94.4064 94.9398 94.0376C95.1895 93.7683 95.3622 93.3706 95.4621 92.8465H95.8241C95.7388 93.5198 95.4808 94.0542 95.048 94.4457C94.6173 94.8372 94.0868 95.032 93.4584 95.032C92.6428 95.032 91.9624 94.7482 91.4111 94.1764C90.8597 93.6047 90.5871 92.8735 90.5871 91.9806C90.5871 90.9905 90.9034 90.1992 91.538 89.6067C92.079 89.1033 92.7115 88.8506 93.4376 88.8506C93.7247 88.8506 93.9911 88.8941 94.2345 88.9832C94.48 89.0723 94.7422 89.2276 95.0251 89.4451L95.0231 89.4472Z" fill="#9C9C9C" style="fill:#9C9C9C;fill:color(display-p3 0.6130 0.6130 0.6130);fill-opacity:1;"/>
<path d="M99.278 88.8506L101.506 94.1578C101.571 94.3069 101.642 94.4084 101.717 94.4623C101.791 94.5141 101.889 94.5431 102.014 94.5431H102.23V94.9139H99.4424V94.5431H99.7024C99.9084 94.5431 100.052 94.5203 100.127 94.4747C100.204 94.4292 100.243 94.3712 100.243 94.2945C100.243 94.2365 100.227 94.1681 100.196 94.0915L99.7378 92.9957H97.5136L97.3035 93.4949C97.214 93.7021 97.1703 93.8574 97.1703 93.9589C97.1703 94.1309 97.2348 94.2738 97.3638 94.3815C97.4928 94.4872 97.6676 94.5431 97.8923 94.5431H98.0795V94.9139H95.822V94.5431H95.951C96.0967 94.5431 96.2236 94.4975 96.3339 94.4064C96.4899 94.2779 96.6106 94.1143 96.6959 93.9154L98.8265 88.8527H99.2759L99.278 88.8506ZM98.633 90.3483L97.6821 92.6H99.5755L98.633 90.3483Z" fill="#9C9C9C" style="fill:#9C9C9C;fill:color(display-p3 0.6130 0.6130 0.6130);fill-opacity:1;"/>
<path d="M102.482 88.9977H105.68C106.261 88.9977 106.772 89.1199 107.209 89.3664C107.648 89.6109 107.994 89.9609 108.243 90.4146C108.491 90.8683 108.616 91.3778 108.616 91.9454C108.616 92.513 108.504 93.0475 108.277 93.4825C108.048 93.9175 107.707 94.2655 107.255 94.5244C106.804 94.7834 106.317 94.9118 105.799 94.9118H102.484V94.541H102.979C103.1 94.541 103.192 94.5079 103.252 94.4437C103.312 94.3774 103.344 94.2862 103.344 94.1702V89.7144C103.344 89.5943 103.31 89.5073 103.248 89.4514C103.183 89.3975 103.075 89.3685 102.923 89.3685H102.484V88.9977H102.482ZM105.403 94.541C105.772 94.541 106.096 94.4478 106.379 94.2634C106.662 94.0791 106.868 93.8284 106.993 93.5094C107.12 93.1904 107.182 92.6953 107.182 92.0262C107.182 91.3219 107.11 90.7833 106.96 90.4084C106.81 90.0334 106.61 89.7662 106.354 89.6067C106.098 89.4493 105.726 89.3685 105.233 89.3685C104.962 89.3685 104.792 89.3934 104.723 89.4369C104.656 89.4824 104.621 89.5632 104.621 89.6834V94.1619C104.621 94.2945 104.648 94.3919 104.704 94.4499C104.758 94.5099 104.848 94.5389 104.966 94.5389H105.401L105.403 94.541Z" fill="#9C9C9C" style="fill:#9C9C9C;fill:color(display-p3 0.6130 0.6130 0.6130);fill-opacity:1;"/>
<path d="M109.015 88.9977H114.19L114.306 91.065H113.953C113.87 90.5762 113.766 90.2261 113.641 90.0107C113.516 89.7952 113.354 89.6357 113.152 89.528C112.948 89.4203 112.684 89.3664 112.357 89.3664H111.545C111.419 89.3664 111.327 89.3913 111.271 89.441C111.215 89.4886 111.188 89.5591 111.188 89.6461V91.6989H111.464C111.783 91.6989 112.03 91.6078 112.205 91.4276C112.38 91.2453 112.484 90.9532 112.517 90.5513H112.879V93.3023H112.517C112.492 92.8486 112.392 92.5255 112.215 92.339C112.041 92.1526 111.772 92.0594 111.416 92.0594H111.188V94.2469C111.188 94.3442 111.217 94.4105 111.271 94.4499C111.356 94.5099 111.481 94.5389 111.641 94.5389H112.357C112.848 94.5389 113.247 94.3815 113.557 94.0708C113.87 93.758 114.063 93.2878 114.136 92.6601H114.498L114.408 94.9097H109.013V94.5389H109.548C109.669 94.5389 109.76 94.5079 109.823 94.4457C109.885 94.3857 109.916 94.3028 109.916 94.1992V89.6481C109.916 89.5529 109.885 89.4804 109.823 89.4369C109.76 89.3913 109.646 89.3685 109.484 89.3685H109.013V88.9977H109.015Z" fill="#9C9C9C" style="fill:#9C9C9C;fill:color(display-p3 0.6130 0.6130 0.6130);fill-opacity:1;"/>
<path d="M115.23 88.9977H117.623L118.973 93.006L120.315 88.9977H122.771V89.3685H122.238C122.107 89.3685 122.015 89.3933 121.965 89.441C121.915 89.4886 121.89 89.5715 121.89 89.6896V94.2075C121.89 94.3214 121.917 94.4002 121.97 94.4437C122.051 94.5079 122.161 94.541 122.298 94.541H122.768V94.9118H119.743V94.541H120.313C120.417 94.541 120.496 94.512 120.553 94.4519C120.607 94.3939 120.636 94.3132 120.636 94.2096V89.3706L118.749 94.9139H118.393L116.51 89.3229V93.6461C116.51 93.8947 116.589 94.0977 116.747 94.2552C116.905 94.4147 117.134 94.5099 117.434 94.5431V94.9139H115.228V94.5431C115.507 94.5182 115.723 94.4209 115.877 94.251C116.031 94.0791 116.108 93.8636 116.108 93.6006V89.7766C116.108 89.6129 116.081 89.5052 116.025 89.4514C115.969 89.3996 115.861 89.3706 115.698 89.3706H115.228V88.9998L115.23 88.9977Z" fill="#9C9C9C" style="fill:#9C9C9C;fill:color(display-p3 0.6130 0.6130 0.6130);fill-opacity:1;"/>
<path d="M123.004 88.9977H125.96V89.3685H125.552C125.409 89.3685 125.309 89.3871 125.253 89.4244C125.197 89.4596 125.17 89.5052 125.17 89.5653C125.17 89.6336 125.194 89.7082 125.242 89.7931L126.48 91.9164L127.348 90.195C127.421 90.0521 127.458 89.9216 127.458 89.8035C127.458 89.6689 127.412 89.5632 127.317 89.4866C127.223 89.4099 127.08 89.3706 126.888 89.3706H126.707V88.9998H129.004V89.3706C128.738 89.3747 128.526 89.4286 128.365 89.528C128.205 89.6295 128.068 89.789 127.956 90.0107L126.763 92.3577V94.2179C126.763 94.3277 126.79 94.4064 126.853 94.4602C126.913 94.512 127.007 94.541 127.136 94.541H127.75V94.9118H124.495V94.541H125.107C125.247 94.541 125.344 94.5141 125.4 94.4623C125.457 94.4105 125.484 94.3277 125.484 94.2179V92.5648L123.886 89.8263C123.784 89.6502 123.676 89.5301 123.561 89.4679C123.449 89.4037 123.305 89.3706 123.135 89.3706H123.006V88.9998L123.004 88.9977Z" fill="#9C9C9C" style="fill:#9C9C9C;fill:color(display-p3 0.6130 0.6130 0.6130);fill-opacity:1;"/>
<path d="M100.632 35.5676L100.173 35.5759C100.366 47.7356 98.3438 56.5436 94.324 61.0449C89.9629 65.9274 82.3457 72.8048 66.6035 76.1627L66.6992 76.6122C82.5766 73.2253 90.2646 66.2817 94.6694 61.3494C98.8265 56.6948 100.832 48.0214 100.635 35.5676H100.632Z" fill="#9C9C9C" style="fill:#9C9C9C;fill:color(display-p3 0.6130 0.6130 0.6130);fill-opacity:1;"/>
<path d="M105.763 30.4676C103.706 33.3138 102.314 36.5081 101.153 39.7934C100.786 40.8913 100.454 42.0037 100.241 43.1679L100.333 43.2073C102.355 40.3527 103.764 37.1585 104.923 33.8814C105.293 32.7876 105.624 31.6649 105.849 30.5214L105.765 30.4696L105.763 30.4676Z" fill="#9C9C9C" style="fill:#9C9C9C;fill:color(display-p3 0.6130 0.6130 0.6130);fill-opacity:1;"/>
<path d="M97.6239 33.5313C97.6384 36.0295 98.2293 38.4532 99.0366 40.8002C99.3196 41.577 99.6338 42.3435 100.05 43.0871L100.129 43.0664C100.114 40.5682 99.5235 38.1445 98.7162 35.7975C98.4332 35.0207 98.1191 34.2543 97.7029 33.5106L97.6239 33.5313Z" fill="#9C9C9C" style="fill:#9C9C9C;fill:color(display-p3 0.6130 0.6130 0.6130);fill-opacity:1;"/>
<path d="M105.582 39.201C103.508 41.1979 101.979 43.6257 100.699 46.1757C100.289 47.0313 99.9126 47.9075 99.6442 48.85L99.7274 48.9018C101.802 46.9049 103.331 44.4771 104.611 41.9271C105.021 41.0716 105.397 40.1953 105.666 39.2528L105.582 39.201Z" fill="#9C9C9C" style="fill:#9C9C9C;fill:color(display-p3 0.6130 0.6130 0.6130);fill-opacity:1;"/>
<path d="M96.5711 38.7308C96.6273 41.4154 97.318 44.0069 98.2439 46.5072C98.5664 47.3337 98.9243 48.1499 99.3945 48.937L99.4819 48.9122C99.4257 46.2275 98.7349 43.6361 97.8091 41.1358C97.4866 40.3092 97.1287 39.4931 96.6585 38.7059L96.5711 38.7308Z" fill="#9C9C9C" style="fill:#9C9C9C;fill:color(display-p3 0.6130 0.6130 0.6130);fill-opacity:1;"/>
<path d="M104.725 46.6066C102.711 47.777 101.136 49.4756 99.794 51.34C99.3612 51.9697 98.9576 52.6243 98.6496 53.3638L98.7225 53.4301C100.737 52.2597 102.312 50.5611 103.654 48.6967C104.086 48.067 104.49 47.4124 104.798 46.6729L104.725 46.6066Z" fill="#9C9C9C" style="fill:#9C9C9C;fill:color(display-p3 0.6130 0.6130 0.6130);fill-opacity:1;"/>
<path d="M95.3809 44.4357C95.4163 46.82 96.132 49.0862 97.1079 51.2343C97.447 51.9407 97.8236 52.6367 98.3209 53.2913L98.4145 53.2602C98.3791 50.8759 97.6634 48.6097 96.6876 46.4616C96.3484 45.7552 95.9718 45.0592 95.4746 44.4046L95.3809 44.4357Z" fill="#9C9C9C" style="fill:#9C9C9C;fill:color(display-p3 0.6130 0.6130 0.6130);fill-opacity:1;"/>
<path d="M102.241 57.7388C100.108 57.948 98.1628 58.8118 96.3693 59.9242C95.7825 60.3075 95.2124 60.7238 94.6964 61.2583L94.738 61.3474C96.8707 61.1381 98.8161 60.2743 100.61 59.1619C101.196 58.7787 101.766 58.3623 102.282 57.8279L102.241 57.7388Z" fill="#9C9C9C" style="fill:#9C9C9C;fill:color(display-p3 0.6130 0.6130 0.6130);fill-opacity:1;"/>
<path d="M93.0048 53.8485C92.6282 55.6963 92.9299 57.542 93.5167 59.2987C93.7268 59.8766 93.9744 60.4463 94.3469 60.9931L94.4447 60.9745C94.8213 59.1288 94.5196 57.281 93.9328 55.5244C93.7227 54.9464 93.4751 54.3768 93.1026 53.8299L93.0048 53.8485Z" fill="#9C9C9C" style="fill:#9C9C9C;fill:color(display-p3 0.6130 0.6130 0.6130);fill-opacity:1;"/>
<path d="M103.997 51.9966C101.868 52.7859 100.085 54.1696 98.504 55.7543C97.9901 56.2929 97.5032 56.8605 97.0954 57.5275L97.1578 57.6042C99.2863 56.8149 101.069 55.4312 102.651 53.8465C103.165 53.3079 103.652 52.7403 104.059 52.0733L103.997 51.9966Z" fill="#9C9C9C" style="fill:#9C9C9C;fill:color(display-p3 0.6130 0.6130 0.6130);fill-opacity:1;"/>
<path d="M94.401 49.9168C94.2824 51.949 94.8421 53.8941 95.6681 55.7212C95.9573 56.3198 96.2839 56.9081 96.7334 57.4592L96.827 57.4302C96.9456 55.398 96.3859 53.4529 95.5599 51.6258C95.2707 51.0272 94.944 50.4389 94.4946 49.8878L94.401 49.9168Z" fill="#9C9C9C" style="fill:#9C9C9C;fill:color(display-p3 0.6130 0.6130 0.6130);fill-opacity:1;"/>
<path d="M100.243 62.2381C98.0421 62.0227 95.8907 62.4908 93.8392 63.2262C93.163 63.4872 92.4951 63.7834 91.8584 64.206L91.8813 64.3013C94.0826 64.5167 96.234 64.0507 98.2855 63.3132C98.9617 63.0522 99.6296 62.756 100.266 62.3334L100.243 62.2381Z" fill="#9C9C9C" style="fill:#9C9C9C;fill:color(display-p3 0.6130 0.6130 0.6130);fill-opacity:1;"/>
<path d="M90.66 57.2914C90.1481 58.9693 90.3083 60.7011 90.7619 62.3583C90.9263 62.9031 91.1323 63.4437 91.4631 63.9678L91.5609 63.9554C92.0706 62.2775 91.9125 60.5457 91.4589 58.8885C91.2946 58.3437 91.0886 57.803 90.7578 57.2789L90.66 57.2914Z" fill="#9C9C9C" style="fill:#9C9C9C;fill:color(display-p3 0.6130 0.6130 0.6130);fill-opacity:1;"/>
<path d="M97.0746 65.8612C94.8379 65.4904 92.6033 65.8052 90.4456 66.3956C89.7341 66.6069 89.0266 66.8575 88.34 67.2346L88.3546 67.3319C90.5913 67.7027 92.8259 67.3878 94.9835 66.7975C95.6951 66.5862 96.4025 66.3355 97.0891 65.9585L97.0746 65.8612Z" fill="#9C9C9C" style="fill:#9C9C9C;fill:color(display-p3 0.6130 0.6130 0.6130);fill-opacity:1;"/>
<path d="M88.1902 60.177C87.2727 62.1615 87.2082 64.8751 88.0342 66.901L88.132 66.9031C88.8768 65.3143 88.9663 63.5763 88.7541 61.8715C88.6688 61.308 88.5439 60.7446 88.2901 60.179H88.1923L88.1902 60.177Z" fill="#9C9C9C" style="fill:#9C9C9C;fill:color(display-p3 0.6130 0.6130 0.6130);fill-opacity:1;"/>
<path d="M93.4688 69.4366C91.2841 68.7778 89.0121 68.7985 86.7775 69.103C86.0388 69.2211 85.3002 69.3765 84.5637 69.6603V69.7576C86.7504 70.4164 89.0246 70.3957 91.2571 70.0911C91.9957 69.9731 92.7344 69.8177 93.4709 69.5339V69.4366H93.4688Z" fill="#9C9C9C" style="fill:#9C9C9C;fill:color(display-p3 0.6130 0.6130 0.6130);fill-opacity:1;"/>
<path d="M85.088 62.4618C84.2495 64.03 84.0581 65.7804 84.1704 67.5184C84.2224 68.0922 84.314 68.6701 84.5345 69.2584L84.6323 69.2667C85.4708 67.6986 85.6622 65.9482 85.5499 64.2081C85.4979 63.6343 85.4063 63.0563 85.1858 62.468L85.088 62.4598V62.4618Z" fill="#9C9C9C" style="fill:#9C9C9C;fill:color(display-p3 0.6130 0.6130 0.6130);fill-opacity:1;"/>
<path d="M90.0254 72.0632C87.9322 71.2243 85.6914 71.0544 83.4672 71.1704C82.7285 71.2263 81.9899 71.3195 81.2409 71.5412L81.2346 71.6386C83.3278 72.4775 85.5686 72.6474 87.7928 72.5314C88.5315 72.4775 89.2701 72.3822 90.0191 72.1606L90.0254 72.0632Z" fill="#9C9C9C" style="fill:#9C9C9C;fill:color(display-p3 0.6130 0.6130 0.6130);fill-opacity:1;"/>
<path d="M81.9213 64.4318C81.012 65.9751 80.7415 67.7276 80.7727 69.4821C80.7998 70.0621 80.8643 70.6484 81.0557 71.2491L81.1535 71.2615C82.0627 69.7183 82.3332 67.9658 82.302 66.2112C82.275 65.6312 82.2105 65.045 82.019 64.4442L81.9213 64.4318Z" fill="#9C9C9C" style="fill:#9C9C9C;fill:color(display-p3 0.6130 0.6130 0.6130);fill-opacity:1;"/>
<path d="M86.3572 74.5801C84.262 73.5754 81.9733 73.2315 79.6762 73.1715C78.9126 73.1673 78.1449 73.2025 77.3584 73.3641L77.3459 73.4615C79.4411 74.4641 81.7298 74.81 84.0269 74.8701C84.7905 74.8742 85.5582 74.839 86.3447 74.6774L86.3572 74.5801Z" fill="#9C9C9C" style="fill:#9C9C9C;fill:color(display-p3 0.6130 0.6130 0.6130);fill-opacity:1;"/>
<path d="M78.665 65.9979C77.6247 67.5287 77.2086 69.3164 77.0921 71.129C77.0692 71.7297 77.0837 72.3387 77.2252 72.9747L77.3209 72.9954C78.3613 71.4645 78.7774 69.6768 78.8939 67.8643C78.9168 67.2636 78.9022 66.6545 78.7607 66.0186L78.665 65.9979Z" fill="#9C9C9C" style="fill:#9C9C9C;fill:color(display-p3 0.6130 0.6130 0.6130);fill-opacity:1;"/>
<path d="M82.1688 76.9002C80.2796 75.6718 78.1157 75.071 75.9103 74.752C75.1758 74.6629 74.4309 74.6111 73.6548 74.6837L73.6299 74.7789C75.5191 76.0073 77.683 76.6081 79.8884 76.9271C80.6229 77.0162 81.3678 77.0679 82.1439 76.9954L82.1688 76.9002Z" fill="#9C9C9C" style="fill:#9C9C9C;fill:color(display-p3 0.6130 0.6130 0.6130);fill-opacity:1;"/>
<path d="M74.9282 68.0114C73.9004 69.3433 73.4801 70.9508 73.3656 72.5894C73.3427 73.1321 73.3594 73.6831 73.5009 74.2631L73.5966 74.2859C74.6244 72.954 75.0447 71.3465 75.1591 69.7079C75.182 69.1652 75.1654 68.6142 75.0239 68.0342L74.9282 68.0114Z" fill="#9C9C9C" style="fill:#9C9C9C;fill:color(display-p3 0.6130 0.6130 0.6130);fill-opacity:1;"/>
<path d="M77.3625 78.4766C75.7688 77.155 73.84 76.4279 71.8468 75.9825C71.1809 75.8499 70.5027 75.7567 69.7828 75.7815L69.7495 75.8748C71.3432 77.1964 73.272 77.9235 75.2653 78.3689C75.9311 78.5014 76.6094 78.5946 77.3293 78.5698L77.3625 78.4766Z" fill="#9C9C9C" style="fill:#9C9C9C;fill:color(display-p3 0.6130 0.6130 0.6130);fill-opacity:1;"/>
<path d="M71.6949 69.4821C70.2571 70.9798 69.4166 73.418 69.6246 75.4791L69.7183 75.5102C71.156 74.0125 71.9966 71.5743 71.7885 69.5132L71.6949 69.4821Z" fill="#9C9C9C" style="fill:#9C9C9C;fill:color(display-p3 0.6130 0.6130 0.6130);fill-opacity:1;"/>
<path d="M100.512 36.2843C101.494 33.5313 101.45 30.6167 100.982 27.7808C100.799 26.8425 100.566 25.9041 100.131 24.976L99.9833 24.9802C99.0075 27.7394 99.0408 30.6354 99.5131 33.4712C99.6962 34.4096 99.9292 35.348 100.364 36.2843H100.512Z" fill="#9C9C9C" style="fill:#9C9C9C;fill:color(display-p3 0.6130 0.6130 0.6130);fill-opacity:1;"/>
<path d="M28.3675 35.5676L28.8273 35.5759C28.6338 47.7356 30.6562 56.5436 34.676 61.0449C39.0371 65.9274 46.6543 72.8048 62.3965 76.1627L62.3008 76.6122C46.4233 73.2253 38.7354 66.2817 34.3306 61.3494C30.1735 56.6948 28.1678 48.0214 28.3654 35.5676H28.3675Z" fill="#9C9C9C" style="fill:#9C9C9C;fill:color(display-p3 0.6130 0.6130 0.6130);fill-opacity:1;"/>
<path d="M23.2366 30.4676C25.2944 33.3138 26.6864 36.5081 27.8474 39.7934C28.2135 40.8913 28.5464 42.0037 28.7587 43.1679L28.6671 43.2073C26.6447 40.3527 25.2361 37.1585 24.0772 33.8814C23.7069 32.7876 23.376 31.6649 23.1513 30.5214L23.2346 30.4696L23.2366 30.4676Z" fill="#9C9C9C" style="fill:#9C9C9C;fill:color(display-p3 0.6130 0.6130 0.6130);fill-opacity:1;"/>
<path d="M31.3761 33.5313C31.3616 36.0295 30.7707 38.4532 29.9634 40.8002C29.6804 41.577 29.3662 42.3435 28.9501 43.0871L28.871 43.0664C28.8856 40.5682 29.4765 38.1445 30.2838 35.7975C30.5668 35.0207 30.8809 34.2543 31.2971 33.5106L31.3761 33.5313Z" fill="#9C9C9C" style="fill:#9C9C9C;fill:color(display-p3 0.6130 0.6130 0.6130);fill-opacity:1;"/>
<path d="M23.4177 39.201C25.4921 41.1979 27.0213 43.6257 28.3009 46.1757C28.7108 47.0313 29.0874 47.9075 29.3558 48.85L29.2726 48.9018C27.1982 46.9049 25.6689 44.4771 24.3893 41.9271C23.9794 41.0716 23.6028 40.1953 23.3344 39.2528L23.4177 39.201Z" fill="#9C9C9C" style="fill:#9C9C9C;fill:color(display-p3 0.6130 0.6130 0.6130);fill-opacity:1;"/>
<path d="M32.4289 38.7308C32.3728 41.4154 31.682 44.0069 30.7561 46.5072C30.4336 47.3337 30.0757 48.1499 29.6055 48.937L29.5181 48.9122C29.5743 46.2275 30.2651 43.6361 31.191 41.1358C31.5135 40.3092 31.8713 39.4931 32.3415 38.7059L32.4289 38.7308Z" fill="#9C9C9C" style="fill:#9C9C9C;fill:color(display-p3 0.6130 0.6130 0.6130);fill-opacity:1;"/>
<path d="M24.2749 46.6066C26.2889 47.777 27.864 49.4756 29.206 51.34C29.6388 51.9697 30.0424 52.6243 30.3504 53.3638L30.2775 53.4301C28.2635 52.2597 26.6884 50.5611 25.3464 48.6967C24.9136 48.067 24.51 47.4124 24.2021 46.6729L24.2749 46.6066Z" fill="#9C9C9C" style="fill:#9C9C9C;fill:color(display-p3 0.6130 0.6130 0.6130);fill-opacity:1;"/>
<path d="M33.6191 44.4357C33.5837 46.82 32.8679 49.0862 31.8921 51.2343C31.553 51.9407 31.1764 52.6367 30.6791 53.2913L30.5855 53.2602C30.6209 50.8759 31.3366 48.6097 32.3124 46.4616C32.6516 45.7552 33.0282 45.0592 33.5254 44.4046L33.6191 44.4357Z" fill="#9C9C9C" style="fill:#9C9C9C;fill:color(display-p3 0.6130 0.6130 0.6130);fill-opacity:1;"/>
<path d="M26.7592 57.7388C28.8918 57.948 30.8372 58.8118 32.6308 59.9242C33.2175 60.3075 33.7876 60.7238 34.3036 61.2583L34.262 61.3474C32.1293 61.1381 30.1839 60.2743 28.3904 59.1619C27.8037 58.7787 27.2336 58.3623 26.7176 57.8279L26.7592 57.7388Z" fill="#9C9C9C" style="fill:#9C9C9C;fill:color(display-p3 0.6130 0.6130 0.6130);fill-opacity:1;"/>
<path d="M35.9952 53.8486C36.3718 55.6963 36.0701 57.542 35.4833 59.2987C35.2732 59.8766 35.0256 60.4463 34.6531 60.9931L34.5554 60.9745C34.1788 59.1288 34.4804 57.281 35.0672 55.5244C35.2773 54.9464 35.5249 54.3768 35.8974 53.8299L35.9952 53.8486Z" fill="#9C9C9C" style="fill:#9C9C9C;fill:color(display-p3 0.6130 0.6130 0.6130);fill-opacity:1;"/>
<path d="M25.0031 51.9966C27.1316 52.7859 28.9147 54.1696 30.496 55.7543C31.0099 56.2929 31.4968 56.8605 31.9046 57.5275L31.8422 57.6042C29.7137 56.8149 27.9306 55.4312 26.3493 53.8465C25.8354 53.3079 25.3485 52.7403 24.9407 52.0733L25.0031 51.9966Z" fill="#9C9C9C" style="fill:#9C9C9C;fill:color(display-p3 0.6130 0.6130 0.6130);fill-opacity:1;"/>
<path d="M34.599 49.9168C34.7176 51.949 34.158 53.8941 33.3319 55.7212C33.0427 56.3198 32.7161 56.9081 32.2666 57.4592L32.173 57.4302C32.0544 55.398 32.6141 53.4529 33.4401 51.6258C33.7293 51.0272 34.056 50.4389 34.5054 49.8878L34.599 49.9168Z" fill="#9C9C9C" style="fill:#9C9C9C;fill:color(display-p3 0.6130 0.6130 0.6130);fill-opacity:1;"/>
<path d="M28.7566 62.2381C30.9579 62.0227 33.1093 62.4908 35.1608 63.2262C35.837 63.4872 36.5049 63.7834 37.1416 64.206L37.1187 64.3013C34.9174 64.5167 32.766 64.0507 30.7145 63.3132C30.0383 63.0522 29.3704 62.756 28.7337 62.3334L28.7566 62.2381Z" fill="#9C9C9C" style="fill:#9C9C9C;fill:color(display-p3 0.6130 0.6130 0.6130);fill-opacity:1;"/>
<path d="M38.34 57.2914C38.8519 58.9693 38.6917 60.7011 38.2381 62.3583C38.0737 62.9031 37.8677 63.4437 37.5369 63.9678L37.4391 63.9554C36.9294 62.2775 37.0875 60.5457 37.5411 58.8885C37.7054 58.3437 37.9114 57.803 38.2423 57.2789L38.34 57.2914Z" fill="#9C9C9C" style="fill:#9C9C9C;fill:color(display-p3 0.6130 0.6130 0.6130);fill-opacity:1;"/>
<path d="M31.9254 65.8612C34.1621 65.4904 36.3967 65.8052 38.5544 66.3956C39.2659 66.6069 39.9734 66.8575 40.66 67.2346L40.6454 67.3319C38.4087 67.7027 36.1741 67.3878 34.0165 66.7975C33.3049 66.5862 32.5975 66.3355 31.9109 65.9585L31.9254 65.8612Z" fill="#9C9C9C" style="fill:#9C9C9C;fill:color(display-p3 0.6130 0.6130 0.6130);fill-opacity:1;"/>
<path d="M40.8098 60.177C41.7273 62.1615 41.7918 64.8751 40.9658 66.901L40.868 66.9031C40.1232 65.3143 40.0337 63.5763 40.2459 61.8715C40.3312 61.308 40.4561 60.7446 40.7099 60.179H40.8077L40.8098 60.177Z" fill="#9C9C9C" style="fill:#9C9C9C;fill:color(display-p3 0.6130 0.6130 0.6130);fill-opacity:1;"/>
<path d="M35.5312 69.4366C37.7159 68.7778 39.9879 68.7985 42.2225 69.103C42.9612 69.2211 43.6998 69.3765 44.4363 69.6603V69.7576C42.2496 70.4164 39.9754 70.3957 37.7429 70.0911C37.0043 69.9731 36.2656 69.8177 35.5291 69.5339V69.4366H35.5312Z" fill="#9C9C9C" style="fill:#9C9C9C;fill:color(display-p3 0.6130 0.6130 0.6130);fill-opacity:1;"/>
<path d="M43.912 62.4618C44.7505 64.03 44.9419 65.7804 44.8296 67.5184C44.7776 68.0922 44.686 68.6701 44.4655 69.2584L44.3677 69.2667C43.5292 67.6986 43.3378 65.9482 43.4501 64.2081C43.5021 63.6343 43.5937 63.0563 43.8142 62.468L43.912 62.4598V62.4618Z" fill="#9C9C9C" style="fill:#9C9C9C;fill:color(display-p3 0.6130 0.6130 0.6130);fill-opacity:1;"/>
<path d="M38.9746 72.0632C41.0678 71.2243 43.3086 71.0544 45.5328 71.1704C46.2715 71.2263 47.0101 71.3195 47.7591 71.5412L47.7654 71.6386C45.6722 72.4775 43.4314 72.6474 41.2072 72.5314C40.4685 72.4775 39.7299 72.3822 38.9809 72.1606L38.9746 72.0632Z" fill="#9C9C9C" style="fill:#9C9C9C;fill:color(display-p3 0.6130 0.6130 0.6130);fill-opacity:1;"/>
<path d="M47.0788 64.4318C47.988 65.9751 48.2585 67.7276 48.2273 69.4821C48.2002 70.0622 48.1357 70.6484 47.9443 71.2491L47.8465 71.2615C46.9373 69.7183 46.6668 67.9658 46.698 66.2112C46.725 65.6312 46.7895 65.045 46.981 64.4443L47.0788 64.4318Z" fill="#9C9C9C" style="fill:#9C9C9C;fill:color(display-p3 0.6130 0.6130 0.6130);fill-opacity:1;"/>
<path d="M42.6428 74.5801C44.738 73.5754 47.0267 73.2315 49.3238 73.1715C50.0874 73.1673 50.8551 73.2025 51.6416 73.3641L51.6541 73.4615C49.5589 74.4641 47.2702 74.81 44.9731 74.8701C44.2095 74.8742 43.4418 74.839 42.6553 74.6774L42.6428 74.5801Z" fill="#9C9C9C" style="fill:#9C9C9C;fill:color(display-p3 0.6130 0.6130 0.6130);fill-opacity:1;"/>
<path d="M50.335 65.9979C51.3753 67.5287 51.7914 69.3164 51.9079 71.129C51.9308 71.7297 51.9163 72.3387 51.7748 72.9747L51.6791 72.9954C50.6387 71.4645 50.2226 69.6768 50.1061 67.8643C50.0832 67.2636 50.0978 66.6545 50.2393 66.0186L50.335 65.9979Z" fill="#9C9C9C" style="fill:#9C9C9C;fill:color(display-p3 0.6130 0.6130 0.6130);fill-opacity:1;"/>
<path d="M46.8312 76.9002C48.7204 75.6718 50.8843 75.071 53.0897 74.752C53.8242 74.6629 54.5691 74.6111 55.3452 74.6837L55.3701 74.7789C53.4809 76.0073 51.317 76.6081 49.1115 76.9271C48.3771 77.0162 47.6322 77.0679 46.8561 76.9954L46.8312 76.9002Z" fill="#9C9C9C" style="fill:#9C9C9C;fill:color(display-p3 0.6130 0.6130 0.6130);fill-opacity:1;"/>
<path d="M54.0718 68.0114C55.0996 69.3433 55.5199 70.9508 55.6344 72.5894C55.6573 73.1321 55.6406 73.6831 55.4991 74.2631L55.4034 74.2859C54.3756 72.954 53.9553 71.3465 53.8408 69.7079C53.818 69.1652 53.8346 68.6142 53.9761 68.0342L54.0718 68.0114Z" fill="#9C9C9C" style="fill:#9C9C9C;fill:color(display-p3 0.6130 0.6130 0.6130);fill-opacity:1;"/>
<path d="M51.6375 78.4766C53.2312 77.155 55.16 76.4279 57.1532 75.9825C57.819 75.8499 58.4973 75.7567 59.2172 75.7815L59.2505 75.8748C57.6568 77.1964 55.728 77.9235 53.7347 78.3689C53.0689 78.5014 52.3906 78.5946 51.6707 78.5698L51.6375 78.4766Z" fill="#9C9C9C" style="fill:#9C9C9C;fill:color(display-p3 0.6130 0.6130 0.6130);fill-opacity:1;"/>
<path d="M57.3051 69.4821C58.7429 70.9798 59.5834 73.418 59.3754 75.4791L59.2817 75.5102C57.844 74.0125 57.0034 71.5743 57.2115 69.5132L57.3051 69.4821Z" fill="#9C9C9C" style="fill:#9C9C9C;fill:color(display-p3 0.6130 0.6130 0.6130);fill-opacity:1;"/>
<path d="M28.4882 36.2843C27.5061 33.5313 27.5498 30.6167 28.018 27.7808C28.2011 26.8425 28.4341 25.9041 28.8689 24.976L29.0167 24.9802C29.9925 27.7394 29.9592 30.6354 29.4869 33.4712C29.3038 34.4096 29.0708 35.348 28.6359 36.2843H28.4882Z" fill="#9C9C9C" style="fill:#9C9C9C;fill:color(display-p3 0.6130 0.6130 0.6130);fill-opacity:1;"/>
<path d="M69.8535 75.6262C69.4832 75.2554 68.5032 75.0772 67.3567 75.3382C66.2124 75.5972 65.3614 76.1648 65.1388 76.6557C65.4571 77.0472 66.4246 77.3414 67.5939 77.0969C68.7632 76.8567 69.633 76.1523 69.8514 75.6283L69.8535 75.6262Z" fill="#9C9C9C" style="fill:#9C9C9C;fill:color(display-p3 0.6130 0.6130 0.6130);fill-opacity:1;"/>
<path d="M59.1028 75.6262C59.4752 75.2554 60.4532 75.0772 61.5996 75.3382C62.7439 75.5972 63.5949 76.1648 63.8176 76.6557C63.4971 77.0472 62.5296 77.3414 61.3603 77.0969C60.191 76.8567 59.3213 76.1523 59.1028 75.6283V75.6262Z" fill="#9C9C9C" style="fill:#9C9C9C;fill:color(display-p3 0.6130 0.6130 0.6130);fill-opacity:1;"/>
<path d="M59.4066 80.7738C59.3046 80.0861 59.9247 78.9426 61.171 77.996C62.4152 77.0514 63.7531 76.6578 64.4813 76.8401C64.6498 77.4926 64.1692 78.7189 62.9229 79.705C61.6807 80.6931 60.1723 80.9872 59.4066 80.7738Z" fill="#9C9C9C" style="fill:#9C9C9C;fill:color(display-p3 0.6130 0.6130 0.6130);fill-opacity:1;"/>
<path d="M69.5955 80.7738C69.6975 80.0861 69.0774 78.9426 67.8311 77.996C66.5869 77.0514 65.249 76.6578 64.5208 76.8401C64.3523 77.4926 64.8329 78.7189 66.0792 79.705C67.3214 80.6931 68.8298 80.9872 69.5955 80.7738Z" fill="#9C9C9C" style="fill:#9C9C9C;fill:color(display-p3 0.6130 0.6130 0.6130);fill-opacity:1;"/>
<path d="M65.6444 76.3719C65.6444 76.9768 65.1305 77.4677 64.5 77.4677C63.8696 77.4677 63.3577 76.9768 63.3577 76.3719C63.3577 75.767 63.8696 75.2782 64.5 75.2782C65.1305 75.2782 65.6444 75.7691 65.6444 76.3719Z" fill="#9C9C9C" style="fill:#9C9C9C;fill:color(display-p3 0.6130 0.6130 0.6130);fill-opacity:1;"/>
<path d="M39.3055 27.8388V5.46254L39.5822 5.45011C44.6028 5.24503 50.7553 4.83694 54.542 4.45993L54.8583 4.42886V27.41L54.5753 27.4142C49.4507 27.4929 44.4135 27.6317 39.6051 27.8264L39.3055 27.8388ZM39.8818 6.01148V27.2422C44.5154 27.0558 49.3571 26.9232 54.282 26.8466V5.06274C50.5368 5.42525 44.7214 5.80848 39.8818 6.01355V6.01148Z" fill="#9C9C9C" style="fill:#9C9C9C;fill:color(display-p3 0.6130 0.6130 0.6130);fill-opacity:1;"/>
<path d="M89.6488 27.8368L89.3491 27.8243C84.5137 27.6296 79.4786 27.4908 74.3789 27.4142L74.0959 27.41V4.42886L74.4122 4.45993C78.2031 4.83694 84.3556 5.24503 89.372 5.45011L89.6488 5.46254V27.8368ZM74.6723 26.8466C79.5722 26.9232 84.4139 27.0558 89.0724 27.2402V6.01148C84.2349 5.80848 78.4195 5.42318 74.6723 5.06067V26.8445V26.8466Z" fill="#9C9C9C" style="fill:#9C9C9C;fill:color(display-p3 0.6130 0.6130 0.6130);fill-opacity:1;"/>
<path d="M64.4771 72.1502L64.1775 71.8664C62.0011 69.7949 55.9714 65.4841 48.6559 61.2521C44.0369 58.5798 40.8347 55.3048 38.8644 51.2405C37.179 47.7625 36.3926 43.7583 36.3926 38.6417V2.66187L36.8129 2.64944C42.1892 2.50029 50.1976 1.99899 54.6648 1.5329C58.1582 1.16832 62.6711 0.435011 64.371 0.0227828L64.4729 -0.0020752L64.5749 0.0227828C66.2748 0.435011 70.7877 1.16832 74.2811 1.5329C78.7483 1.99899 86.7567 2.50029 92.133 2.64944L92.5533 2.66187V38.6417C92.5533 43.7583 91.7689 47.7604 90.0815 51.2405C88.1112 55.3048 84.909 58.5798 80.29 61.2521C72.9765 65.4841 66.9468 69.7949 64.7705 71.8664L64.4709 72.1502H64.4771ZM37.2602 3.49875V38.6438C37.2602 43.6257 38.0175 47.5098 39.6446 50.8677C41.5359 54.7724 44.6278 57.9253 49.0928 60.5084C56.1566 64.5955 62.049 68.7737 64.4771 70.9674C66.9052 68.7716 72.7997 64.5955 79.8614 60.5084C84.3265 57.9253 87.4162 54.7704 89.3096 50.8677C90.9367 47.5098 91.694 43.6257 91.694 38.6438V3.49875C86.3093 3.33511 78.5652 2.84623 74.1958 2.3905C71.027 2.05906 66.4516 1.35061 64.4771 0.884525C62.5026 1.34854 57.9272 2.05906 54.7584 2.3905C50.3891 2.84623 42.6449 3.33511 37.2602 3.49875Z" fill="#9C9C9C" style="fill:#9C9C9C;fill:color(display-p3 0.6130 0.6130 0.6130);fill-opacity:1;"/>
<path d="M87.5327 14.9914V14.9873C87.3725 14.4818 86.8857 14.167 86.0409 14.0282C85.5915 13.964 85.0651 13.9515 84.4784 13.993C84.6032 12.2798 84.2641 11.2689 83.463 10.9872H83.4526C83.051 10.9064 82.6432 11.0597 82.2417 11.4409C82.1938 11.4305 82.1522 11.4264 82.1106 11.4264C81.7506 11.4264 81.4573 11.7205 81.4573 12.081C81.4573 12.1721 81.4781 12.2633 81.5155 12.3482C81.5155 12.3606 81.5155 12.373 81.5114 12.3875C81.3865 12.5947 81.2617 12.8226 81.1223 13.1001L81.1098 13.1271C80.8539 12.9489 80.625 12.8039 80.4086 12.6838C79.8094 12.3772 78.6921 11.8055 77.9784 12.4601C77.4 13.0318 77.6101 14.0758 78.6026 15.5652C78.6109 15.5777 78.6193 15.588 78.6276 15.6004L78.6109 15.6067C77.9181 15.963 77.2023 16.3648 76.7259 17.0256C76.5074 17.3364 76.4346 17.6574 76.5136 17.9516C76.5927 18.2457 76.8153 18.486 77.1607 18.6476C77.3355 18.7243 77.5248 18.7864 77.7391 18.8361C77.7745 18.8568 77.8036 18.8775 77.8286 18.9024C77.9285 19.151 78.1657 19.3126 78.4341 19.3126C78.6505 19.3126 78.8502 19.2048 78.973 19.0267C79.0437 18.9832 79.1124 18.9645 79.1665 18.9521H79.1831C79.283 18.948 79.3849 18.9459 79.4869 18.9397L79.4827 18.9728C79.4245 19.9506 79.5306 20.6984 79.8156 21.3281C79.9696 21.6596 80.2193 21.8874 80.5168 21.9661C80.5959 21.9869 80.677 21.9972 80.7602 21.9972C80.9912 21.9972 81.2326 21.9144 81.4531 21.759C82.0107 21.3571 82.3623 20.7378 82.7015 20.0852L82.7056 20.0769C82.7389 19.9941 82.7015 19.9319 82.6536 19.9071C82.6058 19.8822 82.5309 19.8905 82.4809 19.9672C81.58 21.4524 80.9995 21.5518 80.7332 21.4814C80.2401 21.3468 79.9488 20.4374 79.9342 18.9853C79.9342 18.9583 79.9342 18.9314 79.9342 18.9024C80.2588 18.8713 80.6042 18.8278 81.0245 18.7657C81.1597 18.7429 81.295 18.718 81.4302 18.6932C81.6341 18.8858 81.94 19.1696 82.2791 19.4327C83.1301 20.0459 84.3348 20.775 85.2316 20.775C85.3439 20.775 85.4479 20.7626 85.5436 20.7419C86.1033 20.63 86.3447 20.0749 86.2948 19.5839C86.2719 19.3954 86.2303 19.2007 86.1678 18.9936C86.3489 18.8713 86.455 18.6704 86.455 18.4529C86.455 18.0924 86.1616 17.7983 85.8016 17.7983C85.7663 17.7983 85.7351 17.8024 85.7059 17.8066C85.6518 17.7859 85.604 17.7548 85.5645 17.7196C85.5166 17.645 85.4667 17.5663 85.4146 17.4896C85.9223 17.2307 86.3634 16.9428 86.7629 16.6093C87.177 16.2385 87.7096 15.6688 87.5327 14.9893V14.9914ZM80.3774 14.8941C79.9051 15.0577 79.4515 15.2317 79.0291 15.4161C79.0229 15.4057 79.0167 15.3954 79.0083 15.385C78.9959 15.3664 78.9834 15.3477 78.973 15.3291C78.5027 14.4984 78.0159 13.3943 78.3675 12.8433C78.9605 12.3855 80.4232 13.1706 80.8601 13.4233C80.8892 13.4399 80.9163 13.4564 80.9475 13.4751C80.7186 13.9847 80.5314 14.4508 80.3774 14.8941ZM78.8273 15.9112C78.8273 15.9112 78.8398 15.9049 78.8461 15.9029C79.335 16.5637 79.9072 17.21 80.5938 17.877C80.6853 17.9661 80.7748 18.0552 80.8664 18.1463L80.9184 18.196C80.9558 18.2354 81.0058 18.2499 81.0578 18.2375C81.1056 18.225 81.1472 18.1857 81.1576 18.1401C81.168 18.1028 81.1576 18.0634 81.1285 18.0386C80.4169 17.3674 79.774 16.5844 79.2185 15.7123C79.5597 15.5383 79.9113 15.3829 80.263 15.2462C80.1402 15.6315 80.0403 16.0106 79.9571 16.4042C79.9405 16.4829 79.9883 16.5595 80.0674 16.5782C80.1465 16.5948 80.213 16.5471 80.2318 16.4684C80.3337 16.0189 80.4648 15.5652 80.6208 15.1178C81.6965 14.7428 82.8326 14.5274 84.0019 14.4735C83.9832 14.8402 83.9457 15.2214 83.8875 15.6108C83.6211 15.3291 83.3361 15.0453 83.0198 14.7428C82.9678 14.6952 82.8929 14.6931 82.8451 14.7408C82.7993 14.7863 82.8014 14.8568 82.8513 14.9044C83.5379 15.5445 84.1621 16.2882 84.7072 17.1147C84.4035 17.2659 84.0997 17.4068 83.8001 17.5331C82.4726 18.1152 81.1472 18.4508 79.8614 18.5337C79.6533 18.544 79.4453 18.5482 79.2414 18.544C79.1644 18.5254 79.102 18.4881 79.0479 18.4301C78.9522 18.1753 78.7087 18.0054 78.4382 18.0054C78.2115 18.0054 78.0034 18.1235 77.8827 18.3203C77.8515 18.339 77.8099 18.3493 77.7558 18.3493C77.3605 18.223 77.117 18.0386 77.0505 17.8169C76.9693 17.5435 77.0858 16.9324 78.792 15.936C78.8065 15.9277 78.819 15.9215 78.8336 15.9153L78.8273 15.9112ZM82.7618 12.0789C82.7618 11.9546 82.7264 11.8324 82.6578 11.7267C82.9012 11.5465 83.1239 11.474 83.3111 11.5154C83.8666 11.7247 83.9998 12.9655 84.0123 13.9702C84.0123 13.9867 84.0123 14.0033 84.0123 14.0199C84.0123 14.0261 84.0123 14.0323 84.0123 14.0365C83.4484 14.0986 82.8554 14.2043 82.2479 14.3493C81.7652 14.4632 81.2596 14.6061 80.7415 14.7739C80.9413 14.254 81.1764 13.7465 81.4406 13.2679C81.553 13.0753 81.6674 12.8951 81.7777 12.7314C81.811 12.7128 81.8505 12.7003 81.8984 12.6962C81.9712 12.7211 82.0398 12.7335 82.1085 12.7335C82.4685 12.7335 82.7618 12.4393 82.7618 12.0789ZM85.5228 16.6714L85.4459 16.717C85.3169 16.7895 85.1795 16.8661 85.0256 16.9469C84.8508 16.717 84.6573 16.4767 84.4201 16.197C84.3452 16.11 84.2682 16.023 84.1891 15.936C84.2994 15.4161 84.3826 14.9168 84.4347 14.4528C84.4388 14.4528 84.4451 14.4528 84.4492 14.4528C84.4638 14.4528 84.4763 14.4528 84.4908 14.4528C85.889 14.4694 86.7379 14.7242 86.8794 15.1654C87.0209 15.7993 86.0472 16.369 85.5249 16.6735L85.5228 16.6714ZM85.0526 17.6657C85.1067 17.7631 85.1629 17.8646 85.2211 17.9764C85.2295 18.0282 85.2295 18.0904 85.2211 18.1546C85.1712 18.252 85.1462 18.3514 85.1462 18.4529C85.1462 18.7719 85.3814 19.0453 85.6955 19.0951C85.7351 19.2359 85.76 19.3602 85.7725 19.47C85.8058 19.8118 85.7288 20.0459 85.5416 20.166C85.3106 20.3131 84.6906 20.4312 83.1176 19.5363C82.6786 19.2773 82.2375 18.9708 81.8047 18.6228C82.7452 18.4405 83.9478 18.165 85.0526 17.6657ZM81.0474 16.4912C81.0474 15.994 81.4531 15.5901 81.9525 15.5901C82.4518 15.5901 82.8575 15.994 82.8575 16.4912C82.8575 16.9883 82.4518 17.3923 81.9525 17.3923C81.4531 17.3923 81.0474 16.9883 81.0474 16.4912Z" fill="#9C9C9C" style="fill:#9C9C9C;fill:color(display-p3 0.6130 0.6130 0.6130);fill-opacity:1;"/>
<path d="M49.6754 14.921L49.6567 14.9417L49.6796 14.9231C49.7399 14.979 49.7919 15.0266 49.8335 15.1116C49.8814 15.2151 49.9105 15.3332 49.9147 15.4679C49.9188 15.5859 49.8897 15.7061 49.8335 15.8159C49.819 15.8449 49.7961 15.8718 49.7732 15.8987C49.7649 15.9091 49.7545 15.9215 49.7482 15.9298C49.7399 15.9402 49.7337 15.9505 49.7274 15.9588C49.7087 15.9857 49.692 16.0085 49.6629 16.0355C49.5651 16.1245 49.4486 16.1887 49.3279 16.2198C49.2614 16.2322 49.1948 16.2405 49.1324 16.2405C49.0013 16.2405 48.8785 16.2115 48.7724 16.1556C48.735 16.137 48.7079 16.1142 48.6767 16.0893C48.6684 16.0831 48.6621 16.079 48.6559 16.0748C48.6455 16.0686 48.6351 16.0603 48.6268 16.0541C48.5581 15.992 48.4998 15.9153 48.4561 15.8262C48.3958 15.6502 48.3812 15.5155 48.4 15.356C48.4104 15.2711 48.4312 15.2234 48.4478 15.1841C48.452 15.1716 48.4582 15.1613 48.4603 15.1509C48.4853 15.0763 48.5082 15.0142 48.5623 14.9458C48.6559 14.8319 48.7807 14.7553 48.9347 14.7201C49.1324 14.6745 49.3446 14.6993 49.5173 14.7884C49.5651 14.8133 49.6109 14.8568 49.6525 14.8961C49.6629 14.9065 49.6733 14.9148 49.6816 14.9251L49.6754 14.921ZM47.1037 20.1246C47.0517 19.8139 46.9414 19.5404 46.8291 19.2898C46.7022 19.0371 46.6356 18.8071 46.6293 18.602C46.6106 18.2416 46.8041 18.1049 46.9706 18.051C47.343 17.935 47.8652 18.1277 48.0712 18.455L48.0754 18.4612C48.117 18.515 48.1898 18.5316 48.246 18.4964C48.3022 18.4632 48.323 18.3907 48.2939 18.3327C48.1253 17.9412 47.6489 17.6471 47.162 17.6346C47.1495 17.6346 47.137 17.6346 47.1266 17.6346C46.7479 17.6346 46.4462 17.8107 46.2923 18.1214C46.1196 18.4902 46.157 18.9335 46.4067 19.4762C46.5253 19.7641 46.594 19.9899 46.6189 20.1847C46.6356 20.425 46.5732 20.6072 46.4338 20.7274C46.0988 21.0153 45.4122 20.9118 45.1313 20.8517C44.1721 20.63 43.3336 20.0231 42.7718 19.1448C42.2329 18.3058 41.9749 17.2866 42.0436 16.2716C42.1123 15.0121 42.726 13.8438 43.7289 13.067C44.7547 12.2736 46.08 11.965 47.3617 12.2177C48.9617 12.4891 50.31 13.5952 50.7989 15.0349C50.8218 15.1012 50.8905 15.1364 50.9592 15.1157C51.0299 15.095 51.0715 15.0246 51.0549 14.9583C50.8094 13.8997 50.079 12.9386 49.0512 12.3213C47.1661 11.2275 44.9586 11.3187 43.292 12.5595C42.5138 13.1395 41.925 13.9246 41.5942 14.8278C41.2384 15.7952 41.1926 16.8744 41.4569 17.9474C41.7939 19.4037 42.8301 20.6549 44.1638 21.2121C44.4967 21.3509 45.0501 21.498 45.5973 21.498C46.1445 21.498 46.5565 21.3551 46.8166 21.0858C47.0538 20.8393 47.1661 20.4685 47.11 20.1184L47.1037 20.1246ZM44.3219 14.3596C44.3219 14.3596 44.3406 14.3741 44.351 14.3803C44.3573 14.3845 44.3635 14.3886 44.3677 14.3928L44.3739 14.3969C44.4051 14.4218 44.4322 14.4425 44.4675 14.4611C44.5737 14.517 44.6964 14.546 44.8275 14.546C44.8899 14.546 44.9565 14.5398 45.0231 14.5253C45.1438 14.4943 45.2603 14.4321 45.3581 14.341C45.3851 14.3161 45.4038 14.2913 45.4226 14.2643C45.4288 14.256 45.4371 14.2457 45.4434 14.2353C45.4517 14.225 45.46 14.2146 45.4683 14.2043C45.4912 14.1773 45.5141 14.1483 45.5287 14.1193C45.5869 14.0095 45.614 13.8894 45.6098 13.7713C45.6057 13.6387 45.5786 13.5186 45.5287 13.415C45.4871 13.3301 45.435 13.2824 45.3747 13.2265L45.3518 13.2451L45.3705 13.2244C45.3705 13.2244 45.3497 13.2058 45.3414 13.1954C45.3019 13.1561 45.2561 13.1126 45.2062 13.0877C45.0356 13.0007 44.8171 12.9759 44.6236 13.0194C44.4696 13.0546 44.3448 13.1291 44.2512 13.2451C44.1971 13.3114 44.1742 13.3757 44.1492 13.4502C44.145 13.4606 44.1409 13.4709 44.1367 13.4834C44.1201 13.5227 44.0993 13.5704 44.091 13.6553C44.0722 13.8148 44.0889 13.9495 44.1471 14.1255C44.1908 14.2146 44.2491 14.2913 44.3177 14.3534L44.3219 14.3596ZM47.9193 12.9841C47.8798 12.9448 47.834 12.9013 47.7841 12.8764C47.6114 12.7894 47.395 12.7646 47.1994 12.8081C47.0455 12.8433 46.9206 12.9199 46.827 13.0339C46.7708 13.1022 46.75 13.1644 46.725 13.2389C46.7209 13.2493 46.7167 13.2596 46.7126 13.2721C46.6959 13.3114 46.6751 13.3591 46.6668 13.444C46.6481 13.6035 46.6647 13.7382 46.723 13.9142C46.7687 14.0033 46.8249 14.08 46.8936 14.1421C46.9019 14.1483 46.9123 14.1566 46.9227 14.1628C46.929 14.167 46.9352 14.1711 46.9394 14.1752L46.9456 14.1794C46.9768 14.2042 47.0039 14.225 47.0392 14.2436C47.1453 14.2995 47.2681 14.3285 47.3992 14.3285C47.4616 14.3285 47.5282 14.3223 47.5948 14.3078C47.7154 14.2788 47.832 14.2146 47.9297 14.1235C47.9568 14.0986 47.9755 14.0737 47.9922 14.0489C47.9984 14.0385 48.0067 14.0302 48.015 14.0199C48.0234 14.0095 48.0317 13.9992 48.04 13.9888C48.0629 13.9619 48.0858 13.9329 48.1004 13.9039C48.1586 13.7941 48.1857 13.6739 48.1815 13.5579C48.1773 13.4254 48.1503 13.3073 48.1004 13.2016C48.0587 13.1167 48.0088 13.0691 47.9485 13.0131L47.9256 13.0318L47.9443 13.0111C47.9443 13.0111 47.9256 12.9924 47.9152 12.9821L47.9193 12.9841ZM48.9056 19.3188C48.3188 19.354 47.9505 19.731 47.8153 20.4395C47.6717 21.1852 47.3617 21.5995 46.9435 21.6057H46.7438L46.9352 21.6616C47.1287 21.7155 47.3534 21.7424 47.5864 21.7424C47.859 21.7424 48.1461 21.7051 48.4083 21.6326C48.7662 21.5332 49.1032 21.2515 49.38 20.8185C49.5318 20.5824 49.6629 20.3276 49.6067 19.8429C49.5776 19.5881 49.2614 19.296 48.9056 19.3167V19.3188ZM53.0336 14.2063C52.9587 14.1545 52.8442 14.14 52.7548 14.2291C52.4052 14.5792 52.0744 14.9438 51.7914 15.2607C51.1901 15.9339 50.5992 16.6362 49.9833 17.4047C49.9292 17.4793 49.8647 17.5559 49.7961 17.6388C49.5506 17.935 49.2738 18.2706 49.3009 18.6538C49.3238 18.919 49.4653 19.1178 49.692 19.2028C49.7649 19.2297 49.8419 19.2421 49.9209 19.2421C50.1103 19.2421 50.3058 19.1634 50.4536 19.0205C50.5971 18.9086 50.7761 18.6124 50.9175 18.3742C50.9716 18.2851 51.0174 18.2064 51.0549 18.1525C51.7061 17.0857 52.4572 15.8138 53.1043 14.4756C53.1584 14.3638 53.1043 14.2602 53.0315 14.2084L53.0336 14.2063ZM43.9058 15.1841C43.9058 15.1841 43.887 15.1654 43.8766 15.1551C43.8371 15.1157 43.7913 15.0722 43.7414 15.0473C43.5687 14.9603 43.3523 14.9355 43.1588 14.979C43.0049 15.0142 42.88 15.0888 42.7864 15.2048C42.7302 15.2731 42.7094 15.3353 42.6844 15.4099C42.6803 15.4202 42.6761 15.4306 42.6719 15.443C42.6553 15.4824 42.6345 15.53 42.6241 15.6149C42.6054 15.7744 42.622 15.9091 42.6803 16.0852C42.726 16.1742 42.7822 16.2509 42.8509 16.313C42.8592 16.3192 42.8696 16.3275 42.88 16.3337C42.8863 16.3379 42.8925 16.342 42.8967 16.3441L42.9029 16.3482C42.9341 16.3731 42.9612 16.3938 42.9965 16.4125C43.1026 16.4684 43.2254 16.4974 43.3565 16.4974C43.4189 16.4974 43.4855 16.4912 43.5521 16.4767C43.6727 16.4477 43.7893 16.3835 43.887 16.2944C43.9141 16.2695 43.9328 16.2447 43.9515 16.2177C43.9578 16.2074 43.9661 16.1991 43.9724 16.1887C43.9786 16.1784 43.9869 16.168 43.9973 16.1597C44.0181 16.1328 44.0431 16.1038 44.0597 16.0748C44.118 15.965 44.145 15.8449 44.1409 15.7289C44.1367 15.5963 44.1097 15.4761 44.0597 15.3726C44.0181 15.2876 43.9661 15.2379 43.9058 15.1841L43.8829 15.2027L43.9016 15.182L43.9058 15.1841Z" fill="#9C9C9C" style="fill:#9C9C9C;fill:color(display-p3 0.6130 0.6130 0.6130);fill-opacity:1;"/>
<path d="M72.1172 4.19685C69.3895 3.85506 66.3434 3.36825 64.5374 2.98296L64.4771 2.97053L64.4168 2.98296C62.6108 3.36825 59.5647 3.85506 56.837 4.19685L56.5852 4.22793V27.3873L56.8765 27.3831C59.2984 27.352 61.7848 27.3375 64.4771 27.3375C67.1695 27.3375 69.635 27.352 72.0777 27.381L72.369 27.3852V4.23L72.1172 4.19892V4.19685ZM69.3 12.5181C69.2709 12.8018 69.0837 13.0007 68.8153 13.0007H66.7138C66.6223 15.066 66.5057 17.6906 66.4912 18.1608C66.462 19.0453 67.0613 19.3291 67.6875 19.2856C68.268 19.2463 68.8298 18.8278 68.8985 18.0365C68.9235 18.1691 68.9359 18.3079 68.9359 18.4487C68.9359 19.5653 68.1474 20.4705 67.1757 20.4705C65.8046 20.4705 65.3177 19.4596 65.3177 18.4487C65.3177 18.0303 65.4571 15.1861 65.5653 13.0007H63.6906L63.1497 18.0034C63.0872 18.7491 62.6961 19.5798 62.1073 19.9775C61.585 20.3317 60.992 20.4167 60.5468 20.4063C60.2347 20.4001 60.0661 20.3297 59.9288 20.1453C59.8185 19.9962 59.7936 19.6129 59.9247 19.2939C60.0828 18.9086 60.3533 18.5689 60.8048 18.4177C61.1814 18.2913 61.4144 18.3638 61.635 18.4135C61.8493 18.4612 62.0032 18.4135 62.1177 18.3203C62.2279 18.2292 62.307 18.0904 62.3653 17.9329C62.5151 17.5352 62.5275 17.0153 62.54 16.8516L62.9062 13.0007H62.205C61.1002 13.0007 60.1702 13.734 59.8768 14.7387C59.8144 14.5233 59.779 14.2975 59.779 14.0634C59.779 13.6822 59.8685 13.3218 60.0266 13.0007C60.3616 12.3192 61.0108 11.8635 61.7868 11.7288C61.9242 11.706 62.0636 11.6915 62.205 11.6915H68.9588C69.0649 11.6915 69.3708 11.5942 69.3708 11.5942H69.4082L69.3021 12.5181H69.3Z" fill="#9C9C9C" style="fill:#9C9C9C;fill:color(display-p3 0.6130 0.6130 0.6130);fill-opacity:1;"/>
<path d="M89.3741 29.5478C81.3823 29.2226 73.0057 29.059 64.4792 29.059C55.9527 29.059 47.576 29.2226 39.5843 29.5478L39.3075 29.5582V38.6396C39.3075 43.3067 40.0004 46.909 41.4901 49.979C43.1983 53.5068 46.0218 56.3758 50.1227 58.7456C55.5699 61.8984 60.8693 65.4137 64.2982 68.1522L64.4792 68.2952L64.6602 68.1522C68.0953 65.4116 73.3968 61.8963 78.8377 58.7456C82.9366 56.3758 85.76 53.5068 87.4703 49.979C88.958 46.907 89.6508 43.3046 89.6508 38.6396V29.5582L89.3741 29.5478ZM71.5014 36.9741C71.5346 37.1109 71.4223 37.3926 71.4098 37.5997C71.4119 38.8178 71.7614 38.9856 72.2317 39.8597C72.5729 40.4874 72.679 40.8686 72.473 41.7676C72.4605 41.8567 72.4709 41.954 72.5646 41.9747C73.0681 42.0203 73.557 42.3849 74.0606 42.3393C74.2395 42.3745 74.4163 42.3994 74.6057 42.4346C75.2257 42.5527 75.3838 42.7246 75.4088 43.2818C75.413 43.4144 75.2382 43.9924 75.1987 44.1249C75.1695 44.2099 75.1612 44.2927 75.1903 44.3735C75.3089 44.7858 75.49 44.9846 75.723 45.2249C75.8603 45.4279 75.877 45.4611 75.7875 45.6558C75.7043 45.8401 75.7167 46.0887 75.7916 46.4222C75.8333 46.617 75.9311 46.9049 75.7792 47.0126C75.6252 47.1493 75.6751 47.4331 75.5836 47.6051C75.4109 47.9448 75.2444 47.7977 74.9095 47.5181C74.7534 47.3876 74.6473 47.2177 74.6265 46.9981C74.614 46.9049 74.6452 46.793 74.6556 46.7102C74.6743 46.6667 74.6889 46.617 74.6411 46.5507C74.5245 46.3994 74.6348 46.097 74.768 46.0846C74.7992 46.0825 74.8304 46.0763 74.8658 46.0535C74.82 45.952 74.8366 45.8609 74.7638 45.7821C74.6057 45.9934 74.5412 45.9686 74.3893 45.9686C74.3435 45.9686 74.2957 45.9769 74.2707 46.01C74.2353 46.1198 74.1167 46.2047 74.0127 46.2607C73.711 46.3311 73.4592 46.5797 73.1326 46.5465C72.9869 46.5507 72.8621 46.677 72.731 46.7495C72.1568 47.0623 72.1568 46.2399 72.3565 45.8194C72.4418 45.6351 72.5916 45.5294 72.8122 45.4652C72.8954 45.2373 73.2782 45.2311 73.4801 45.3968C73.6673 45.5294 73.4717 45.2933 73.7214 45.082C73.969 44.8189 74.279 44.5082 74.1459 44.0897C74.0834 43.9447 73.9794 43.7956 74.0023 43.6278C73.969 43.5284 73.9024 43.5346 73.8254 43.5677C73.686 43.6299 72.9578 43.9178 72.0985 43.8909C71.7968 43.8702 71.6803 44.2223 71.4951 44.388C71.2642 44.676 70.6566 45.4238 70.5734 45.5004C69.6205 46.7992 67.2756 47.7045 66.6202 48.0359C65.3322 48.6781 64.7892 48.8852 64.6685 49.5751C64.6394 49.7491 64.6082 49.9541 64.5811 50.0971C64.4688 51.2612 63.6844 51.9096 62.9728 52.6409C62.5067 53.1173 62.1447 53.7781 61.714 54.2981C61.508 54.5591 61.3749 54.6958 61.2251 54.8429C60.9275 55.1412 60.1847 55.3048 60.0495 56.4379C59.9226 57.2209 59.8872 57.6207 59.8435 58.5011C59.8414 58.9465 59.6562 59.512 60.1119 59.8828C60.3928 60.2536 61.0253 60.3116 61.0877 60.8295C61.7286 61.8072 60.8526 61.5545 60.4198 61.4095C60.27 61.3639 60.1265 61.3059 60.0183 61.2127C59.5272 61.1174 59.6105 60.9455 59.2942 60.7466C59.0674 60.6161 58.7054 60.5747 58.6347 60.3489C58.5785 60.1728 58.5285 60.0133 58.5514 59.7834C58.5577 59.6777 58.4765 59.5099 58.4432 59.3339C58.3767 58.9527 58.5743 59.0812 58.7179 58.7352C58.7907 58.5633 58.7761 58.5508 58.7428 58.2401C58.72 58.0454 58.6159 56.9579 58.5473 56.6264C58.4828 56.2743 58.3912 55.9925 58.4203 55.6466C58.4432 55.3566 58.3787 55.1702 58.2913 54.9464C58.1228 54.615 57.9564 54.3354 57.8981 54.0163C57.8045 53.515 58.025 53.3949 58.4287 53.1567C59.2734 52.6657 60.0641 51.8848 59.5189 51.1183C58.5161 49.5481 58.4828 48.4627 58.9301 47.3275C58.9093 47.313 58.8864 47.2943 58.8635 47.2715C58.8053 47.284 58.747 47.2798 58.6908 47.2633C58.6222 47.2363 58.5681 47.1928 58.5306 47.1369C58.2227 47.2073 57.5839 47.8951 57.4216 48.2824V48.2493C56.8578 49.6103 55.3847 50.1136 55.3847 50.1136C54.2861 50.0018 53.2146 51.3669 53.2146 51.3669C53.1397 51.139 53.2395 50.6584 53.3165 50.3581C53.3311 50.3291 53.3457 50.3042 53.3623 50.2794C53.3956 50.2214 53.3935 50.1675 53.3769 50.1447C53.3852 50.1136 53.3893 50.0929 53.3893 50.0929C52.1618 50.2959 52.349 49.9831 52.349 49.9831C50.5888 50.2296 50.439 52.0111 50.439 52.0111C49.7711 50.7351 52.0619 48.6677 52.7797 47.6568C53.5704 46.4057 54.2091 46.1322 55.4908 45.5646C56.2877 45.3098 57.1116 45.2705 57.9127 45.6599C58.1852 45.7449 58.4703 46.0577 58.7741 46.2337C58.8573 46.1757 58.9676 46.1571 59.0695 46.1944C59.1465 46.2234 59.2048 46.2772 59.2422 46.3435H59.2526C59.5626 46.2047 60.8152 45.0716 61.4144 44.6615C62.3444 43.9737 63.3161 44.1436 64.2462 42.9628C64.4584 42.7412 64.7767 42.331 65.0659 42.0327L64.5915 42.0099C64.6706 39.6795 65.2261 37.9477 65.4758 37.2787C65.5965 36.8954 66.2228 35.1823 68.3076 33.9435C69.1065 33.4567 69.8452 33.2185 70.253 33.1087C70.3841 33.0507 70.5567 33.0362 70.6774 32.9575C70.8605 32.8747 70.9687 32.7814 71.1019 32.6654C71.1539 32.5826 71.1955 32.5246 71.1289 32.4231C71.054 32.2573 71.002 32.0523 71.002 31.8348L70.9916 31.8244C70.9916 31.8244 70.9958 31.7084 71.0249 31.5696C71.027 31.5634 71.0291 31.5592 71.0291 31.5489C71.0311 31.5385 71.0353 31.5261 71.0374 31.5178C71.0395 31.5033 71.0436 31.4867 71.0457 31.4785C71.0499 31.466 71.0519 31.4557 71.054 31.4474C71.0582 31.435 71.0623 31.4225 71.0665 31.408C71.0686 31.3997 71.0707 31.3935 71.0748 31.3832C71.079 31.3707 71.0852 31.3583 71.0873 31.3459C71.1144 31.2837 71.1352 31.2465 71.1539 31.2237C71.2059 31.1532 71.2725 31.1014 71.362 31.0952C71.362 31.0952 71.5492 31.754 71.7094 31.7084C71.8467 31.669 71.7219 32.1434 72.0153 32.3692C72.0756 32.3754 72.138 32.3982 72.1984 32.4251C72.2275 32.4438 72.2546 32.4645 72.2754 32.4893C72.3815 32.5308 72.4751 32.856 72.6499 32.9596C72.7414 33.0155 72.8371 33.0445 72.9328 33.0714C73.0951 33.0942 73.478 33.1874 73.6361 33.5707C73.6361 33.5707 73.684 33.7944 73.9461 33.9249C73.9461 33.9249 74.0314 33.9435 74.1771 34.1776C74.1771 34.1776 74.1334 34.3413 75.1695 34.7452H75.1654C75.517 34.8985 75.9498 35.1326 75.877 35.3646C75.8 35.6215 76.0351 35.8307 75.8998 36.1041C75.8208 36.2678 75.3048 36.3962 75.2465 36.5184C75.2049 36.6013 74.897 36.7256 74.8325 36.6448C74.7326 36.5226 74.5682 36.4542 74.4059 36.4356C74.3477 36.4293 73.3094 36.3175 72.8912 36.2512C72.4106 36.3113 72.0756 36.4791 71.8031 36.0938C71.5451 36.1911 71.5159 36.4169 71.4993 36.5743C71.4785 36.7111 71.4702 36.8416 71.4972 36.9845L71.5014 36.9741Z" fill="#9C9C9C" style="fill:#9C9C9C;fill:color(display-p3 0.6130 0.6130 0.6130);fill-opacity:1;"/>
</g>
<defs>
<clipPath id="clip0_649_566">
<rect width="129" height="105" fill="white" style="fill:white;fill-opacity:1;"/>
</clipPath>
</defs>
</svg>
