<?xml version="1.0" encoding="UTF-8"?>
<svg id="_레이어_2" data-name="레이어 2" xmlns="http://www.w3.org/2000/svg" viewBox="0 0 800 800">
  <defs>
    <style>
      .cls-1 {
        fill: #0043ff;
      }
    </style>
  </defs>
  <g id="_레이어_1-2" data-name="레이어 1">
    <g>
      <polygon class="cls-1" points="369.23 61.54 430.77 61.54 492.31 61.54 553.85 61.54 553.85 0 492.31 0 430.77 0 369.23 0 307.69 0 246.15 0 246.15 61.54 307.69 61.54 369.23 61.54"/>
      <rect class="cls-1" x="184.62" y="61.54" width="61.54" height="61.54"/>
      <rect class="cls-1" x="553.85" y="61.54" width="61.54" height="61.54"/>
      <rect class="cls-1" x="123.08" y="123.08" width="61.54" height="61.54"/>
      <polygon class="cls-1" points="430.77 184.62 492.31 184.62 492.31 123.08 430.77 123.08 369.23 123.08 307.69 123.08 307.69 184.62 369.23 184.62 430.77 184.62"/>
      <rect class="cls-1" x="615.38" y="123.08" width="61.54" height="61.54"/>
      <rect class="cls-1" x="61.54" y="184.62" width="61.54" height="61.54"/>
      <rect class="cls-1" x="246.15" y="184.62" width="61.54" height="61.54"/>
      <rect class="cls-1" x="492.31" y="184.62" width="61.54" height="61.54"/>
      <rect class="cls-1" x="676.92" y="184.62" width="61.54" height="61.54"/>
      <rect class="cls-1" x="184.62" y="246.15" width="61.54" height="61.54"/>
      <rect class="cls-1" x="369.23" y="246.15" width="61.54" height="61.54"/>
      <rect class="cls-1" x="553.85" y="246.15" width="61.54" height="61.54"/>
      <polygon class="cls-1" points="738.46 246.15 738.46 307.69 738.46 369.23 738.46 430.77 738.46 492.31 738.46 553.85 800 553.85 800 492.31 800 430.77 800 369.23 800 307.69 800 246.15 738.46 246.15"/>
      <rect class="cls-1" x="307.69" y="307.69" width="61.54" height="61.54"/>
      <rect class="cls-1" x="430.77" y="307.69" width="61.54" height="61.54"/>
      <polygon class="cls-1" points="615.38 369.23 615.38 430.77 615.38 492.31 676.92 492.31 676.92 430.77 676.92 369.23 676.92 307.69 615.38 307.69 615.38 369.23"/>
      <polygon class="cls-1" points="184.62 369.23 184.62 307.69 123.08 307.69 123.08 369.23 123.08 430.77 123.08 492.31 184.62 492.31 184.62 430.77 184.62 369.23"/>
      <rect class="cls-1" x="246.15" y="369.23" width="61.54" height="61.54"/>
      <rect class="cls-1" x="369.23" y="369.23" width="61.54" height="61.54"/>
      <rect class="cls-1" x="492.31" y="369.23" width="61.54" height="61.54"/>
      <polygon class="cls-1" points="61.54 430.77 61.54 369.23 61.54 307.69 61.54 246.15 0 246.15 0 307.69 0 369.23 0 430.77 0 492.31 0 553.85 61.54 553.85 61.54 492.31 61.54 430.77"/>
      <rect class="cls-1" x="307.69" y="430.77" width="61.54" height="61.54"/>
      <rect class="cls-1" x="430.77" y="430.77" width="61.54" height="61.54"/>
      <rect class="cls-1" x="184.62" y="492.31" width="61.54" height="61.54"/>
      <rect class="cls-1" x="369.23" y="492.31" width="61.54" height="61.54"/>
      <rect class="cls-1" x="553.85" y="492.31" width="61.54" height="61.54"/>
      <rect class="cls-1" x="61.54" y="553.85" width="61.54" height="61.54"/>
      <rect class="cls-1" x="246.15" y="553.85" width="61.54" height="61.54"/>
      <rect class="cls-1" x="492.31" y="553.85" width="61.54" height="61.54"/>
      <rect class="cls-1" x="676.92" y="553.85" width="61.54" height="61.54"/>
      <rect class="cls-1" x="123.08" y="615.38" width="61.54" height="61.54"/>
      <polygon class="cls-1" points="369.23 615.38 307.69 615.38 307.69 676.92 369.23 676.92 430.77 676.92 492.31 676.92 492.31 615.38 430.77 615.38 369.23 615.38"/>
      <rect class="cls-1" x="615.38" y="615.38" width="61.54" height="61.54"/>
      <rect class="cls-1" x="184.62" y="676.92" width="61.54" height="61.54"/>
      <rect class="cls-1" x="553.85" y="676.92" width="61.54" height="61.54"/>
      <polygon class="cls-1" points="430.77 738.46 369.23 738.46 307.69 738.46 246.15 738.46 246.15 800 307.69 800 369.23 800 430.77 800 492.31 800 553.85 800 553.85 738.46 492.31 738.46 430.77 738.46"/>
    </g>
  </g>
</svg>