<svg width="317" height="154" viewBox="0 0 317 154" fill="none" xmlns="http://www.w3.org/2000/svg">
<g clip-path="url(#clip0_610_21)">
<path d="M23.9875 19.4152C23.2896 20.7045 20.8919 24.3935 19.1277 25.8046C17.961 26.7286 14.5506 26.7286 11.8093 26.7286C9.76234 26.7286 8.55992 26.5996 8.05175 25.9192C7.6581 25.3927 7.68673 24.5546 8.14122 23.0325L11.0006 12.8575H14.9299C17.0449 12.8575 17.6819 13.5344 17.9968 14.1218C18.5408 15.2141 18.2151 17.5492 18.0219 18.4733H18.072L21.1138 7.62855H21.0243C20.1905 9.70939 19.5249 10.8411 18.8092 11.407C18.1757 11.955 17.0914 12.6892 15.0086 12.6892H11.0399L14.5613 0.128933H19.2815C20.169 0.128933 21.8009 0.150422 22.7707 0.286518C24.535 0.526477 25.3473 3.41315 25.3617 6.02047H25.4297L27.0866 0H7.47201L7.46485 0.0179074C8.20563 0.082374 9.71224 0.41187 10.3421 0.687644C11.3226 1.13891 11.226 1.90535 11.0184 2.78997L5.05285 24.3433C4.77729 25.3963 4.2226 26.0409 3.30647 26.3704C2.62653 26.6104 0.615328 26.836 0.00695801 26.8503V26.8611H21.5218L24.0411 19.4152H23.991H23.9875Z" fill="white" style="fill:white;fill-opacity:1;"/>
<path d="M33.5534 15.4398C33.5534 10.8949 33.4747 4.87439 33.2349 1.81581H33.285C34.695 5.72678 40.7143 20.0276 43.6273 26.8575H45.7136C49.6251 18.0865 55.2328 5.42236 56.471 1.80148H56.5355C56.3959 4.48759 56.3816 9.40138 56.3816 14.616V26.8575H58.7184V0H55.2973C51.5361 8.51317 45.9534 21.3062 44.8476 23.8992H44.7975C43.9422 21.6321 38.6673 9.0683 34.6628 0H31.2738V26.8611H33.5498V15.4398H33.5534Z" fill="white" style="fill:white;fill-opacity:1;"/>
<path d="M67.3287 15.4505H76.2431C81.7434 15.4505 85.1861 12.6605 85.1861 7.59273C85.1861 3.31645 82.4127 0 76.1643 0H64.9703V26.8611H67.3287V15.4505ZM67.3287 2.17396H75.9675C80.3263 2.17396 82.7168 4.12944 82.7168 7.64288C82.7168 11.7544 80.1116 13.273 75.9174 13.273H67.3287V2.17396Z" fill="white" style="fill:white;fill-opacity:1;"/>
<path d="M90.5183 24.0962V21.3313H93.2202V24.0962H90.5183ZM93.2166 26.8611H105.359V24.0962H93.2166V26.8611ZM90.5183 5.5298H87.8164V21.3313H90.5183V5.5298ZM93.2166 2.7649H90.5147V5.5298H93.2166V2.7649ZM108.061 24.0962V21.3313H105.359V24.0962H108.061ZM108.061 21.3313H110.763V5.5298H108.061V21.3313ZM105.359 5.5298H108.061V2.7649H105.359V5.5298ZM105.359 0H93.2166V2.7649H105.359V0Z" fill="white" style="fill:white;fill-opacity:1;"/>
<path d="M124.161 26.8611C126.387 19.9954 131.021 5.79841 131.662 2.71834H131.701C132.245 5.39729 136.994 20.6222 138.923 26.8611H141.553L150.489 0H148.106C145.991 6.38578 141.217 20.5899 140.337 24.2717H140.297C139.818 21.9007 134.976 6.22461 133.047 0H130.52C128.38 6.7869 123.603 21.3026 122.998 24.3182H122.959C122.383 21.317 117.906 6.77258 115.83 0H113.35L121.613 26.8611H124.158H124.161Z" fill="white" style="fill:white;fill-opacity:1;"/>
<path d="M172.695 24.7265H155.481V13.7493H171.156V11.6147H155.481V2.13456H171.958V0H153.137V26.8611H172.326L172.695 24.7265Z" fill="white" style="fill:white;fill-opacity:1;"/>
<path d="M184.322 26.8432C183.534 26.7823 181.974 26.4492 181.577 26.2486C180.772 25.8833 180.539 25.2709 180.829 24.2645L184.007 13.0581H185.921C190.813 13.0581 191.805 14.068 191.805 19.0642V23.2545C191.805 26.1591 192.814 27.2944 195.405 27.2944C198.214 27.2944 199.481 24.6227 200.354 22.0082L200.687 20.9731L200.551 20.9337L200.218 21.933C199.323 24.5725 197.874 26.2164 196.432 26.2164C195.215 26.2164 194.7 25.3067 194.7 23.1757V18.6273C194.7 15.2571 193.322 13.6741 189.944 13.1655L189.879 13.1548V12.9076L189.94 12.8969C196.067 11.8762 199.044 9.36556 199.044 5.21821C199.044 1.80148 196.35 -0.00717163 191.257 -0.00717163H180.843V0.0107358C181.498 0.0752024 182.905 0.422606 183.427 0.684054C184.347 1.12458 184.361 1.82655 184.096 2.74699L178.052 24.4579C177.862 25.1169 177.479 26.0409 176.306 26.4456C175.74 26.6354 174.18 26.793 173.418 26.8432V26.8575H184.325V26.8432H184.322ZM184.028 12.7966L187.6 0.168321H190.738C194.149 0.168321 195.949 2.0665 195.949 5.65873C195.949 10.1857 192.613 12.8897 187.024 12.8897H184.003L184.028 12.7966Z" fill="white" style="fill:white;fill-opacity:1;"/>
<path d="M28.4789 66.4006V63.6357H31.1807V66.4006H28.4789ZM31.1807 69.1655H43.3231V66.4006H31.1807V69.1655ZM28.4789 47.8342H25.777V63.6357H28.4789V47.8342ZM31.1807 45.0693H28.4789V47.8342H31.1807V45.0693ZM46.025 66.4006V63.6357H43.3231V66.4006H46.025ZM46.025 63.6357H48.7268V47.8342H46.025V63.6357ZM43.3231 47.8342H46.025V45.0693H43.3231V47.8342ZM43.3231 42.3044H31.1807V45.0693H43.3231V42.3044Z" fill="white" style="fill:white;fill-opacity:1;"/>
<path d="M83.4289 69.1476C82.6416 69.0867 81.0813 68.7536 80.6841 68.5531C79.8789 68.1878 79.6463 67.5753 79.9362 66.5689L83.114 55.3625H85.0286C89.9206 55.3625 90.9119 56.3725 90.9119 61.3686V65.559C90.9119 68.4635 91.921 69.5989 94.512 69.5989C97.3212 69.5989 98.588 66.9271 99.4612 64.3126L99.7941 63.2776L99.6581 63.2382L99.3252 64.2374C98.4306 66.8769 96.9812 68.5208 95.539 68.5208C94.3223 68.5208 93.807 67.6111 93.807 65.4802V60.9317C93.807 57.5615 92.4292 55.9785 89.051 55.4699L88.9865 55.4592V55.2121L89.0474 55.2013C95.174 54.1806 98.1515 51.67 98.1515 47.5226C98.1515 44.1059 95.4567 42.2973 90.3643 42.2973H79.9505V42.3152C80.6054 42.3796 82.0118 42.727 82.5343 42.9885C83.454 43.429 83.4683 44.131 83.2035 45.0514L77.1591 66.7623C76.9695 67.4213 76.5865 68.3454 75.4127 68.7501C74.8473 68.9399 73.287 69.0975 72.5248 69.1476V69.1619H83.4325V69.1476H83.4289ZM83.1355 55.101L86.7069 42.4727H89.8454C93.2559 42.4727 95.0559 44.3709 95.0559 47.9632C95.0559 52.4901 91.7206 55.1942 86.1308 55.1942H83.1104L83.1355 55.101Z" fill="white" style="fill:white;fill-opacity:1;"/>
<path d="M14.2108 69.1655V58.4282C14.2108 58.1811 14.2179 57.9841 14.3396 57.8516L23.3649 42.3044H20.8563C18.4658 46.5341 15.3917 51.9028 13.1729 55.803C12.1101 53.869 7.93023 46.6058 5.5218 42.3044H2.85571L11.7021 57.694C11.7916 57.7943 11.8989 58.1023 11.8989 58.3423V69.1655H14.2108Z" fill="white" style="fill:white;fill-opacity:1;"/>
<path d="M56.5963 59.4096V42.3044H54.2129V59.8035C54.2129 66.286 57.1867 69.5523 63.4458 69.5523C70.4385 69.5523 72.7646 65.208 72.7646 59.5242V42.3044H70.3454V59.3737C70.3454 64.3914 68.5489 67.4356 63.5281 67.4356C58.5073 67.4356 56.5927 64.241 56.5927 59.406L56.5963 59.4096Z" fill="white" style="fill:white;fill-opacity:1;"/>
<path d="M131.029 42.2364L131.021 42.2543C131.762 42.3187 133.265 42.6482 133.899 42.924C134.879 43.3717 134.783 44.1417 134.571 45.0263L128.606 66.5761C128.33 67.6291 127.776 68.2737 126.859 68.6032C126.183 68.8432 124.168 69.0688 123.563 69.0831V69.0939H134.954V69.0796C134.188 69.0151 132.689 68.6677 132.099 68.4062C131.315 68.0481 131.075 67.2996 131.426 66.2967L134.561 55.1763H139.002C140.999 55.1763 142.044 55.957 142.233 56.4477C142.473 57.0458 142.394 59.7319 142.212 60.9066H142.265L145.343 49.9437H145.293C144.728 51.4193 143.754 53.2423 143.035 53.7651C141.94 54.5889 140.623 55.0043 139.12 55.0043H134.596L138.114 42.3617H143.897C145.304 42.3617 146.306 42.4119 147.147 42.5193C147.97 42.6268 149.881 43.429 149.899 48.4896H149.967L151.627 42.2328H131.029V42.2364Z" fill="white" style="fill:white;fill-opacity:1;"/>
<path d="M163.562 67.4392C158.534 67.4392 156.627 64.2446 156.627 59.4096V42.3044H154.243V59.8035C154.243 66.286 157.217 69.5523 163.476 69.5523C170.469 69.5523 172.795 65.208 172.795 59.5242V42.3044H170.376V59.3737C170.376 64.3914 168.579 67.4356 163.558 67.4356L163.562 67.4392Z" fill="white" style="fill:white;fill-opacity:1;"/>
<path d="M184.35 69.1655H186.702V44.4067H194.864V42.3044H176.227V44.4067H184.35V69.1655Z" fill="white" style="fill:white;fill-opacity:1;"/>
<path d="M216.844 59.5242V42.3044H214.425V59.3737C214.425 64.3914 212.629 67.4357 207.608 67.4357C202.587 67.4357 200.673 64.241 200.673 59.406V42.3008H198.289V59.7999C198.289 66.2824 201.263 69.5487 207.522 69.5487C214.515 69.5487 216.841 65.2044 216.841 59.5206L216.844 59.5242Z" fill="white" style="fill:white;fill-opacity:1;"/>
<path d="M235.181 62.2712V62.7296C235.181 65.3047 235.264 68.1125 235.614 69.1655H237.973C237.604 67.5538 237.59 65.1722 237.59 62.6365V62.2461C237.59 58.439 236.284 56.1755 233.41 55.3374C235.45 54.7572 237.926 53.0488 237.926 49.0662C237.926 44.5822 234.738 42.3044 230.15 42.3044H221.325V69.1655H223.658V56.419H228.833C233.682 56.419 235.181 58.1166 235.181 62.2712ZM223.662 44.3172H229.828C233.499 44.3172 235.486 46.065 235.486 49.1235C235.486 53.2637 232.948 54.4062 229.023 54.4062H223.662V44.3172Z" fill="white" style="fill:white;fill-opacity:1;"/>
<path d="M258.02 67.1026H244.557V56.0716H256.818V53.9693H244.557V44.3709H257.423V42.3044H242.264V69.1655H257.67L258.02 67.1026Z" fill="white" style="fill:white;fill-opacity:1;"/>
<path d="M264.34 67.1097H266.444V69.2157H268.545V62.9051H264.34V67.1097Z" fill="white" style="fill:white;fill-opacity:1;"/>
<path d="M266.441 69.2157H264.34V71.318H266.441V69.2157Z" fill="white" style="fill:white;fill-opacity:1;"/>
<path d="M22.1196 84.1719C23.1002 84.2471 25.1364 84.8667 25.7985 85.3717C26.9937 86.2993 26.0812 89.5477 25.6911 90.9338L25.6267 91.1665L22.5705 101.886C20.91 107.77 17.496 110.754 12.4251 110.754C8.52793 110.754 5.80459 108.651 5.80459 105.639C5.80459 104.361 6.06583 102.749 6.55968 100.976L10.5248 86.6861C10.8326 85.6081 11.4374 84.9205 12.3213 84.6483C13.0334 84.462 14.5758 84.2221 15.3775 84.1719V84.1576H4.38744V84.1755C5.04233 84.2435 6.44158 84.6196 6.9748 84.8488C7.93746 85.3502 7.85157 86.0844 7.65117 86.9189L3.52499 101.807C3.15997 103.093 2.97388 104.354 2.97388 105.557C2.97388 109.611 5.82964 111.753 11.2298 111.753C14.4685 111.753 16.9521 110.936 18.8201 109.253C20.5486 107.695 21.8047 105.392 22.7781 102.004L25.9524 90.8908C26.7003 88.3085 27.4876 85.9304 28.8439 85.1712C29.6813 84.6912 31.9788 84.2328 32.7482 84.1719V84.1576H22.1161V84.1719H22.1196Z" fill="white" style="fill:white;fill-opacity:1;"/>
<path d="M54.6924 96.0732C54.6924 100.418 54.6566 104.307 54.8821 108.143H54.8177C53.3039 105.475 42.4177 90.8621 37.5149 84.154H34.491V111.015H36.7813V98.7808C36.7813 93.9959 36.792 90.1387 36.6024 86.6252H36.6668C38.6887 89.7161 49.6501 104.919 54.1198 111.015H56.9828V84.154H54.6924V96.0732Z" fill="white" style="fill:white;fill-opacity:1;"/>
<path d="M62.4582 110.521C61.7818 110.761 59.767 110.986 59.1622 111.001V111.012H80.5947L83.1893 103.49H83.1392C82.0691 105.364 79.1346 109.103 77.7676 110.156C77.127 110.646 74.9655 110.883 71.165 110.883C69.0035 110.883 67.7367 110.757 67.2321 110.098C66.8098 109.543 66.9422 108.648 67.3394 107.194L73.0295 86.6754C73.3372 85.6009 73.9385 84.9169 74.8188 84.6483C75.5274 84.462 77.0662 84.2221 77.8642 84.1755V84.1612H66.6309L66.6237 84.1791C67.3645 84.2436 68.8675 84.5731 69.5009 84.8488C70.4815 85.2965 70.3849 86.0665 70.1737 86.9512L64.2081 108.501C63.9326 109.554 63.3779 110.199 62.4617 110.528L62.4582 110.521Z" fill="white" style="fill:white;fill-opacity:1;"/>
<path d="M89.1906 97.9033H104.865V95.7723H89.1906V86.2886H105.67V84.154H86.8466V111.015H106.039L106.404 108.884H89.1906V97.9033Z" fill="white" style="fill:white;fill-opacity:1;"/>
<path d="M120.228 84.154L109.002 111.015H111.46L115.272 101.843H128.04L131.98 111.015H134.55L122.905 84.154H120.228ZM116.145 99.6869C118.972 92.789 120.905 87.9683 121.474 86.1955H121.513C122.096 87.9396 123.742 91.6859 127.181 99.6869H116.145Z" fill="white" style="fill:white;fill-opacity:1;"/>
<path d="M146.868 109.457C141.593 109.457 139.113 107.054 138.121 103.49H135.67C136.439 108.057 139.818 111.531 146.771 111.531C153.724 111.531 157.117 107.971 157.117 103.909C157.117 100.403 155.703 97.4019 146.868 95.7365C140.784 94.6048 139.474 93.0898 139.474 90.4324C139.474 87.32 142.147 85.7335 146.259 85.7335C151.867 85.7335 153.324 88.262 153.946 90.5935H156.373C156.054 87.8215 153.996 83.6132 146.327 83.6132C140.662 83.6132 137.019 86.4999 137.019 90.6401C137.019 94.3935 139.202 96.5495 146.098 97.8639C153.112 99.1926 154.633 101.094 154.633 104.128C154.633 107.161 152.382 109.457 146.86 109.457H146.868Z" fill="white" style="fill:white;fill-opacity:1;"/>
<path d="M163.444 98.0036H180.815V111.327H183.159V84.4656H180.815V95.844H163.444V84.4656H161.1V111.327H163.444V98.0036Z" fill="white" style="fill:white;fill-opacity:1;"/>
<path d="M28.4789 150.798V148.033H31.1807V150.798H28.4789ZM31.1807 153.563H43.3231V150.798H31.1807V153.563ZM28.4789 132.232H25.777V148.033H28.4789V132.232ZM31.1807 129.467H28.4789V132.232H31.1807V129.467ZM46.025 150.798V148.033H43.3231V150.798H46.025ZM46.025 148.033H48.7268V132.232H46.025V148.033ZM43.3231 132.232H46.025V129.467H43.3231V132.232ZM43.3231 126.702H31.1807V129.467H43.3231V126.702Z" fill="white" style="fill:white;fill-opacity:1;"/>
<path d="M83.4289 153.549C82.6416 153.488 81.0813 153.155 80.6841 152.954C79.8789 152.589 79.6463 151.976 79.9362 150.97L83.114 139.764H85.0286C89.9206 139.764 90.9119 140.774 90.9119 145.77V149.96C90.9119 152.865 91.921 154 94.512 154C97.3212 154 98.588 151.328 99.4612 148.714L99.7941 147.679L99.6581 147.639L99.3252 148.639C98.4306 151.278 96.9812 152.922 95.539 152.922C94.3223 152.922 93.807 152.012 93.807 149.881V145.333C93.807 141.963 92.4292 140.38 89.051 139.871L88.9865 139.86V139.613L89.0474 139.602C95.174 138.582 98.1515 136.071 98.1515 131.924C98.1515 128.507 95.4567 126.698 90.3643 126.698H79.9505V126.716C80.6054 126.781 82.0118 127.128 82.5343 127.39C83.454 127.83 83.4683 128.532 83.2035 129.453L77.1591 151.163C76.9695 151.822 76.5865 152.746 75.4127 153.151C74.8473 153.341 73.287 153.499 72.5248 153.549V153.563H83.4325V153.549H83.4289ZM83.1355 139.499L86.7069 126.87H89.8454C93.2559 126.87 95.0559 128.768 95.0559 132.361C95.0559 136.888 91.7206 139.592 86.1308 139.592H83.1104L83.1355 139.499Z" fill="white" style="fill:white;fill-opacity:1;"/>
<path d="M14.2108 153.563V142.826C14.2108 142.579 14.2179 142.382 14.3396 142.249L23.3649 126.702H20.8563C18.4658 130.932 15.3917 136.3 13.1729 140.201C12.1101 138.267 7.93023 131.003 5.5218 126.702H2.85571L11.7021 142.092C11.7916 142.192 11.8989 142.5 11.8989 142.74V153.563H14.2108Z" fill="white" style="fill:white;fill-opacity:1;"/>
<path d="M56.5963 143.807V126.702H54.2129V144.201C54.2129 150.684 57.1867 153.95 63.4458 153.95C70.4385 153.95 72.7646 149.606 72.7646 143.922V126.702H70.3454V143.771C70.3454 148.789 68.5489 151.833 63.5281 151.833C58.5073 151.833 56.5927 148.639 56.5927 143.804L56.5963 143.807Z" fill="white" style="fill:white;fill-opacity:1;"/>
<path d="M135.502 126.702H126.895V153.585H129.243V141.458H135.072C140.301 141.458 143.822 139.001 143.822 133.865C143.822 129.295 140.469 126.698 135.502 126.698V126.702ZM135.029 139.416H129.243V128.715H135.015C138.816 128.715 141.396 130.384 141.396 133.915C141.396 138.159 138.791 139.416 135.029 139.416Z" fill="white" style="fill:white;fill-opacity:1;"/>
<path d="M171.206 133.564H171.446C172.365 131.834 175.769 127.393 177.572 127.157C178.535 127.039 180.296 126.999 181.176 126.999H183.259L176.492 150.974C176.252 151.837 175.772 152.585 174.731 152.94C174.169 153.137 171.889 153.373 171.167 153.413L171.127 153.57H183.781L183.821 153.413C183.101 153.373 180.696 152.94 180.256 152.743C179.415 152.349 179.294 151.565 179.576 150.777L186.226 126.996H188.308C189.389 126.996 190.871 127.035 191.833 127.153C193.637 127.39 194.277 130.731 194.277 133.561H194.517L196.478 126.72H173.174L171.213 133.561L171.206 133.564Z" fill="white" style="fill:white;fill-opacity:1;"/>
<path d="M201.03 140.48H213.28V138.381H201.03V128.79H213.881V126.727H198.736V153.563H214.128L214.479 151.504H201.03V140.48Z" fill="white" style="fill:white;fill-opacity:1;"/>
<path d="M235.543 138.32C235.543 142.657 235.582 146.962 235.818 150.716H235.775C235.249 149.577 233.732 147.045 221.747 126.727H218.544V153.563H220.799V141.798C220.799 136.97 220.863 132.533 220.67 129.03H220.709C221.371 130.208 222.166 131.687 234.97 153.563H237.833V126.727H235.543V138.32Z" fill="white" style="fill:white;fill-opacity:1;"/>
<path d="M241.516 128.826H249.632V153.563H251.983V128.826H260.135V126.727H241.516V128.826Z" fill="white" style="fill:white;fill-opacity:1;"/>
<path d="M266.334 126.727H264.022V153.563H266.334V126.727Z" fill="white" style="fill:white;fill-opacity:1;"/>
<path d="M279.51 126.727C276.597 135.505 273.133 145.827 270.531 153.563H272.9L275.853 144.552H286.17L289.172 153.563H291.72L282.387 126.727H279.514H279.51ZM276.483 142.453C278.558 136.175 280.029 132.067 280.823 128.815H280.899C281.378 130.781 282.949 134.85 285.497 142.453H276.486H276.483Z" fill="white" style="fill:white;fill-opacity:1;"/>
<path d="M316.95 146.06C315.88 147.933 312.945 151.672 311.578 152.725C310.938 153.216 308.776 153.452 304.976 153.452C302.814 153.452 301.547 153.327 301.043 152.668C300.621 152.113 300.753 151.217 301.15 149.763L306.84 129.245C307.148 128.17 307.749 127.486 308.63 127.218C309.338 127.031 310.877 126.792 311.675 126.745V126.731H300.442L300.434 126.749C301.175 126.813 302.678 127.142 303.312 127.418C304.292 127.866 304.196 128.636 303.984 129.521L298.019 151.07C297.743 152.123 297.189 152.768 296.273 153.097C295.596 153.337 293.581 153.563 292.977 153.577V153.588H314.409L317.004 146.067H316.953L316.95 146.06Z" fill="white" style="fill:white;fill-opacity:1;"/>
<path d="M148.897 150.798V148.033H151.599V150.798H148.897ZM151.599 153.563H163.741V150.798H151.599V153.563ZM148.897 132.232H146.195V148.033H148.897V132.232ZM151.599 129.467H148.897V132.232H151.599V129.467ZM166.443 150.798V148.033H163.741V150.798H166.443ZM166.443 148.033H169.145V132.232H166.443V148.033ZM163.741 132.232H166.443V129.467H163.741V132.232ZM163.741 126.702H151.599V129.467H163.741V126.702Z" fill="white" style="fill:white;fill-opacity:1;"/>
</g>
<defs>
<clipPath id="clip0_610_21">
<rect width="317" height="154" fill="white" style="fill:white;fill-opacity:1;"/>
</clipPath>
</defs>
</svg>
