<?xml version="1.0" encoding="UTF-8"?>
<svg id="_레이어_2" data-name="레이어 2" xmlns="http://www.w3.org/2000/svg" viewBox="0 0 416.02 330.92">
  <defs>
    <style>
      .cls-1, .cls-2, .cls-3 {
        fill-rule: evenodd;
      }

      .cls-1, .cls-4 {
        fill: #aa292a;
      }

      .cls-2, .cls-5 {
        fill: #fff;
      }

      .cls-3, .cls-6 {
        fill: #0e2953;
      }
    </style>
  </defs>
  <g id="_레이어_1-2" data-name="레이어 1">
    <g>
      <g>
        <g>
          <g>
            <path class="cls-6" d="M196.2,249.39c-9.48-2.4-18.76-5.6-27.63-9.72-8.74-4.07-17.08-9.04-24.71-14.92-7.68-5.89-14.65-12.69-20.71-20.21-6.1-7.54-11.31-15.82-15.57-24.53-4.25-8.68-7.57-17.8-10.01-27.16-2.4-9.33-4.04-18.9-4.48-28.51-.1-9.81-.03-19.67-.05-29.51h-1.13c.03,9.72-.04,19.39.06,29.14h-.03c.01.13.03.27.03.4v.26h.02c.46,9.54,2.06,18.98,4.42,28.2h0c.03.11.06.22.09.33.02.1.04.2.07.31h.02c2.41,9.21,5.7,18.2,9.87,26.77h0c.04.1.09.19.14.28.06.1.1.2.15.31h0c4.22,8.55,9.32,16.67,15.3,24.11h-.01c.08.1.17.2.24.3.06.06.11.14.18.21h0c6,7.4,12.86,14.12,20.41,19.95h0c.11.08.22.17.33.25.06.05.13.1.19.16h0c7.56,5.79,15.79,10.71,24.42,14.75h0c.11.06.21.1.31.16.09.04.18.09.28.13h0c8.85,4.09,18.11,7.27,27.54,9.67l.27-1.1Z"/>
            <g>
              <path class="cls-6" d="M92.48,76.24c1.72,1.18,3.41,4.81,3.41,9.45s-1.65,8.33-3.41,9.43c-1.72-1.11-3.41-4.81-3.41-9.43s1.73-8.28,3.41-9.45Z"/>
              <g>
                <path class="cls-6" d="M105.19,95.89c-2.01-.45-5.62.84-8.71,4.12-3.1,3.28-4.41,7.13-3.9,9.23,1.96.51,5.63-.83,8.73-4.11,3.09-3.27,4.3-7.15,3.88-9.24Z"/>
                <path class="cls-6" d="M79.75,95.89c2.01-.45,5.63.84,8.73,4.12,3.09,3.28,4.39,7.13,3.88,9.23-1.95.51-5.62-.83-8.72-4.11-3.09-3.27-4.29-7.15-3.89-9.24Z"/>
              </g>
              <g>
                <path class="cls-6" d="M79.75,110.49c2.01-.44,5.63.84,8.73,4.12,3.09,3.28,4.37,7.12,3.9,9.23h0c-.96.29-2.38.14-3.94-.56-1.56-.83-3.25-1.88-4.8-3.57-3.09-3.26-4.29-7.14-3.89-9.23Z"/>
                <path class="cls-6" d="M105.19,110.49c-2.01-.44-5.62.84-8.71,4.12-3.09,3.27-4.43,7.13-3.87,9.22h0c.98.24,2.38-.04,3.91-.71,1.54-.53,3.24-1.79,4.79-3.4,3.09-3.26,4.3-7.14,3.88-9.23Z"/>
              </g>
              <g>
                <path class="cls-6" d="M105.25,124.42c-2.01-.29-5.62.92-8.44,4.35-2.82,3.44-3.58,7.51-2.75,9.5,2.01.21,5.4-1.74,8.07-5.16,2.67-3.44,3.6-6.94,3.12-8.68Z"/>
                <path class="cls-6" d="M79.83,125.62c1.99-.61,5.63.76,9.01,3.85,3.37,3.11,5.18,6.67,5,8.84-1.84.8-5.71.08-9.23-2.98-3.51-3.06-5.08-7.29-4.78-9.71Z"/>
              </g>
              <g>
                <path class="cls-6" d="M81.6,141.6c1.9-.82,5.68.02,9.35,2.73,3.67,2.72,5.82,6.11,5.85,8.27h0c-1.76.99-5.68.64-9.47-2.06-3.8-2.68-5.78-6.65-5.73-8.95Z"/>
                <path class="cls-6" d="M106.69,137.45c-2.03-.08-5.44,1.64-7.89,5.37-2.43,3.72-2.81,7.83-1.78,9.73h0c2.03.01,5.2-2.25,7.52-5.94,2.31-3.69,2.87-7.35,2.15-9.16Z"/>
              </g>
              <g>
                <path class="cls-6" d="M109.49,150.45c-2.03.12-5.25,2.16-7.33,6.1-2.07,3.95-2.06,8.08-.85,9.86,2.02-.19,4.96-2.74,6.92-6.63,1.96-3.9,2.15-7.59,1.26-9.33Z"/>
                <path class="cls-6" d="M84.92,156.99c1.81-.99,5.64-.52,9.56,1.83,3.91,2.35,6.38,5.52,6.62,7.67-1.65,1.14-5.59,1.18-9.63-1.14-4.04-2.31-6.39-6.07-6.55-8.37Z"/>
              </g>
              <g>
                <path class="cls-6" d="M89.73,172.08c1.72-1.16,5.58-1.06,9.7.89,4.13,1.96,6.9,4.86,7.37,6.97h0c-1.52,1.32-5.43,1.75-9.7-.15-4.25-1.91-6.97-5.44-7.37-7.71Z"/>
                <path class="cls-6" d="M113.55,163.17c-2.01.31-5.04,2.66-6.7,6.78-1.68,4.12-1.24,8.23.15,9.88h0c2-.39,4.65-3.22,6.2-7.29,1.56-4.07,1.4-7.73.35-9.37Z"/>
              </g>
              <g>
                <path class="cls-6" d="M118.81,175.29c-1.97.52-4.75,3.17-5.97,7.43-1.24,4.26-.37,8.31,1.2,9.82,1.93-.61,4.27-3.73,5.39-7.93,1.11-4.19.59-7.8-.61-9.32Z"/>
                <path class="cls-6" d="M96.03,186.6c1.58-1.34,5.43-1.62,9.74-.1,4.32,1.52,7.37,4.1,8.08,6.15-1.38,1.46-5.22,2.33-9.66.88-4.44-1.46-7.53-4.7-8.16-6.93Z"/>
              </g>
              <g>
                <path class="cls-6" d="M103.9,200.52c1.42-1.52,5.23-2.2,9.69-1.17,4.45,1.04,7.79,3.25,8.71,5.21h0c-1.19,1.61-4.91,2.93-9.5,1.97-4.59-.94-8.03-3.86-8.9-6Z"/>
                <path class="cls-6" d="M125.31,186.78c-1.89.74-4.37,3.65-5.12,8.03-.76,4.38.58,8.3,2.29,9.61h0c1.85-.83,3.81-4.19,4.46-8.48.64-4.28-.27-7.8-1.63-9.16Z"/>
              </g>
              <g>
                <path class="cls-6" d="M132.99,197.36c-1.81.95-3.93,4.12-4.19,8.57-.25,4.42,1.53,8.18,3.4,9.27,1.74-1.03,3.29-4.6,3.44-8.94.14-4.33-1.16-7.69-2.65-8.89Z"/>
                <path class="cls-6" d="M113.29,213.45c1.24-1.66,4.94-2.78,9.49-2.27,4.56.53,8.11,2.33,9.26,4.16-1,1.75-4.54,3.49-9.2,3.07-4.67-.39-8.44-2.91-9.55-4.96Z"/>
              </g>
              <g>
                <path class="cls-6" d="M124.18,225.3c1.04-1.81,4.58-3.35,9.17-3.38,4.58-.03,8.33,1.36,9.69,3.04h0c-.78,1.85-4.09,3.99-8.78,4.14-4.69.15-8.72-1.9-10.07-3.79Z"/>
                <path class="cls-6" d="M141.84,206.98c-1.67,1.15-3.42,4.57-3.14,9,.27,4.43,2.49,7.95,4.46,8.8h0c1.61-1.23,2.72-4.97,2.35-9.28-.36-4.32-2.06-7.5-3.68-8.52Z"/>
              </g>
              <g>
                <path class="cls-6" d="M151.74,215.47c-1.52,1.34-2.86,4.92-2.06,9.3.78,4.37,3.39,7.59,5.46,8.23,1.45-1.41,2.14-5.24,1.27-9.5-.87-4.24-2.93-7.22-4.67-8.03Z"/>
                <path class="cls-6" d="M136.35,235.71c.81-1.9,4.16-3.86,8.7-4.42,4.54-.55,8.42.38,9.97,1.91-.58,1.92-3.62,4.43-8.25,5.12-4.63.7-8.86-.87-10.42-2.6Z"/>
              </g>
              <g>
                <path class="cls-6" d="M149.64,244.67c.6-1.98,3.69-4.31,8.14-5.38,4.45-1.07,8.41-.56,10.11.79h.01c-.38,1.99-3.13,4.79-7.64,5.98-4.51,1.21-8.87.14-10.62-1.39Z"/>
                <path class="cls-6" d="M162.64,222.81c-1.37,1.5-2.27,5.22-.98,9.49,1.27,4.25,4.21,7.16,6.33,7.58h0c1.3-1.56,1.58-5.44.23-9.58-1.34-4.13-3.73-6.88-5.57-7.49Z"/>
              </g>
              <g>
                <path class="cls-6" d="M174.31,228.92c-1.2,1.64-1.69,5.44.03,9.54,1.71,4.11,4.92,6.72,7.07,6.92,1.14-1.66,1.05-5.57-.72-9.56-1.77-3.98-4.48-6.49-6.38-6.91Z"/>
                <path class="cls-6" d="M163.7,252.04c.39-2.04,3.2-4.69,7.51-6.21,4.31-1.52,8.32-1.41,10.13-.24-.18,2-2.65,5.06-7,6.72-4.34,1.65-8.76,1.05-10.64-.27Z"/>
              </g>
              <g>
                <path class="cls-6" d="M178.4,257.93c.2-2.07,2.72-4.99,6.86-6.92,4.13-1.93,8.13-2.18,10.04-1.16h0c.02,2.02-2.18,5.27-6.35,7.31-4.16,2.05-8.57,1.9-10.55.77Z"/>
                <path class="cls-6" d="M186.71,233.88c-1.05,1.75-1.15,5.57.96,9.51,2.11,3.91,5.53,6.22,7.68,6.23h0c.98-1.77.54-5.63-1.6-9.46-2.13-3.81-5.11-6.03-7.06-6.29Z"/>
              </g>
            </g>
          </g>
          <g>
            <path class="cls-6" d="M219.87,249.39c9.48-2.4,18.77-5.6,27.64-9.72,8.74-4.07,17.07-9.04,24.71-14.92,7.68-5.89,14.63-12.69,20.71-20.21,6.11-7.54,11.3-15.82,15.58-24.53,4.24-8.68,7.58-17.8,10.01-27.16,2.41-9.33,4.04-18.9,4.48-28.51.1-9.81.03-19.67.05-29.51h1.12c-.03,9.72.05,19.39-.05,29.14h0c0,.13,0,.27,0,.4,0,.09,0,.18-.01.26h0c-.46,9.54-2.07,18.98-4.43,28.2h0c-.03.11-.06.22-.1.33-.03.1-.05.2-.08.31h0c-2.43,9.21-5.7,18.2-9.88,26.77h0c-.04.1-.09.19-.14.28-.04.1-.09.2-.13.31h0c-4.21,8.55-9.32,16.67-15.29,24.11h0c-.09.1-.16.2-.25.3-.05.06-.1.14-.16.21h-.02c-6,7.4-12.86,14.12-20.4,19.95h0c-.11.08-.23.17-.33.25-.07.05-.13.1-.2.16h0c-7.58,5.79-15.8,10.71-24.43,14.75h0c-.11.06-.21.1-.31.16-.1.04-.19.09-.29.13h0c-8.86,4.09-18.11,7.27-27.54,9.67l-.28-1.1Z"/>
            <g>
              <path class="cls-6" d="M323.59,76.24c-1.71,1.18-3.41,4.81-3.41,9.45s1.65,8.33,3.41,9.43c1.73-1.11,3.42-4.81,3.42-9.43s-1.74-8.28-3.42-9.45Z"/>
              <g>
                <path class="cls-6" d="M310.89,95.89c2-.45,5.62.84,8.71,4.12,3.1,3.28,4.4,7.13,3.89,9.23-1.95.51-5.62-.83-8.72-4.11-3.08-3.27-4.31-7.15-3.88-9.24Z"/>
                <path class="cls-6" d="M336.32,95.89c-2.01-.45-5.62.84-8.72,4.12-3.09,3.28-4.4,7.13-3.89,9.23,1.95.51,5.63-.83,8.72-4.11,3.08-3.27,4.29-7.15,3.9-9.24Z"/>
              </g>
              <g>
                <path class="cls-6" d="M336.32,110.49c-2.01-.44-5.62.84-8.72,4.12-3.1,3.28-4.38,7.12-3.91,9.23h0c.97.29,2.37.14,3.95-.56,1.57-.83,3.25-1.88,4.79-3.57,3.08-3.26,4.29-7.14,3.9-9.23Z"/>
                <path class="cls-6" d="M310.89,110.49c2-.44,5.62.84,8.71,4.12,3.08,3.27,4.43,7.13,3.86,9.22h0c-.98.24-2.38-.04-3.91-.71-1.53-.53-3.23-1.79-4.78-3.4-3.08-3.26-4.31-7.14-3.88-9.23Z"/>
              </g>
              <g>
                <path class="cls-6" d="M310.83,124.42c2-.29,5.62.92,8.43,4.35,2.81,3.44,3.59,7.51,2.74,9.5-2.02.21-5.39-1.74-8.06-5.16-2.67-3.44-3.61-6.94-3.12-8.68Z"/>
                <path class="cls-6" d="M336.23,125.62c-1.99-.61-5.65.76-9,3.85-3.37,3.11-5.18,6.67-5,8.84,1.84.8,5.71.08,9.22-2.98,3.53-3.06,5.09-7.29,4.78-9.71Z"/>
              </g>
              <g>
                <path class="cls-6" d="M334.47,141.6c-1.9-.82-5.67.02-9.34,2.73-3.68,2.72-5.82,6.11-5.86,8.27h0c1.75.99,5.68.64,9.47-2.06,3.8-2.68,5.78-6.65,5.73-8.95Z"/>
                <path class="cls-6" d="M309.37,137.45c2.04-.08,5.46,1.64,7.9,5.37,2.43,3.72,2.81,7.83,1.78,9.73h0c-2.02.01-5.21-2.25-7.53-5.94-2.31-3.69-2.86-7.35-2.15-9.16Z"/>
              </g>
              <g>
                <path class="cls-6" d="M306.58,150.45c2.02.12,5.27,2.16,7.34,6.1,2.07,3.95,2.06,8.08.83,9.86-2.01-.19-4.95-2.74-6.91-6.63-1.94-3.9-2.15-7.59-1.26-9.33Z"/>
                <path class="cls-6" d="M331.15,156.99c-1.82-.99-5.66-.52-9.57,1.83-3.91,2.35-6.37,5.52-6.62,7.67,1.65,1.14,5.58,1.18,9.62-1.14,4.05-2.31,6.39-6.07,6.56-8.37Z"/>
              </g>
              <g>
                <path class="cls-6" d="M326.34,172.08c-1.71-1.16-5.57-1.06-9.71.89-4.12,1.96-6.89,4.86-7.36,6.97h0c1.53,1.32,5.44,1.75,9.71-.15,4.24-1.91,6.97-5.44,7.36-7.71Z"/>
                <path class="cls-6" d="M302.52,163.17c2,.31,5.03,2.66,6.71,6.78,1.68,4.12,1.23,8.23-.16,9.88h0c-1.99-.39-4.65-3.22-6.21-7.29-1.55-4.07-1.4-7.73-.35-9.37Z"/>
              </g>
              <g>
                <path class="cls-6" d="M297.26,175.29c1.97.52,4.74,3.17,5.98,7.43,1.24,4.26.36,8.31-1.19,9.82-1.93-.61-4.28-3.73-5.39-7.93-1.12-4.19-.59-7.8.61-9.32Z"/>
                <path class="cls-6" d="M320.04,186.6c-1.59-1.34-5.44-1.62-9.75-.1-4.32,1.52-7.38,4.1-8.07,6.15,1.38,1.46,5.21,2.33,9.66.88,4.45-1.46,7.52-4.7,8.16-6.93Z"/>
              </g>
              <g>
                <path class="cls-6" d="M312.16,200.52c-1.41-1.52-5.23-2.2-9.68-1.17-4.46,1.04-7.79,3.25-8.71,5.21h0c1.2,1.61,4.92,2.93,9.5,1.97,4.58-.94,8.02-3.86,8.89-6Z"/>
                <path class="cls-6" d="M290.76,186.78c1.89.74,4.38,3.65,5.13,8.03.77,4.38-.57,8.3-2.29,9.61h0c-1.85-.83-3.82-4.19-4.46-8.48-.64-4.28.28-7.8,1.63-9.16Z"/>
              </g>
              <g>
                <path class="cls-6" d="M283.09,197.36c1.8.95,3.93,4.12,4.19,8.57.24,4.42-1.54,8.18-3.41,9.27-1.74-1.03-3.29-4.6-3.44-8.94-.14-4.33,1.16-7.69,2.65-8.89Z"/>
                <path class="cls-6" d="M302.79,213.45c-1.24-1.66-4.95-2.78-9.49-2.27-4.55.53-8.12,2.33-9.27,4.16,1,1.75,4.53,3.49,9.21,3.07,4.67-.39,8.43-2.91,9.54-4.96Z"/>
              </g>
              <g>
                <path class="cls-6" d="M291.89,225.3c-1.04-1.81-4.58-3.35-9.16-3.38-4.59-.03-8.32,1.36-9.7,3.04h0c.8,1.85,4.1,3.99,8.79,4.14,4.68.15,8.71-1.9,10.07-3.79Z"/>
                <path class="cls-6" d="M274.23,206.98c1.67,1.15,3.41,4.57,3.13,9-.26,4.43-2.49,7.95-4.46,8.8h0c-1.62-1.23-2.73-4.97-2.36-9.28.37-4.32,2.05-7.5,3.69-8.52Z"/>
              </g>
              <g>
                <path class="cls-6" d="M264.33,215.47c1.53,1.34,2.85,4.92,2.06,9.3-.78,4.37-3.4,7.59-5.45,8.23-1.45-1.41-2.15-5.24-1.28-9.5.88-4.24,2.94-7.22,4.67-8.03Z"/>
                <path class="cls-6" d="M279.73,235.71c-.81-1.9-4.15-3.86-8.7-4.42-4.55-.55-8.43.38-9.97,1.91.58,1.92,3.61,4.43,8.24,5.12,4.63.7,8.87-.87,10.43-2.6Z"/>
              </g>
              <g>
                <path class="cls-6" d="M266.43,244.67c-.6-1.98-3.7-4.31-8.14-5.38-4.45-1.07-8.41-.56-10.12.79h0c.37,1.99,3.13,4.79,7.64,5.98,4.51,1.21,8.87.14,10.62-1.39Z"/>
                <path class="cls-6" d="M253.43,222.81c1.37,1.5,2.26,5.22.98,9.49-1.27,4.25-4.21,7.16-6.33,7.58h0c-1.31-1.56-1.57-5.44-.24-9.58,1.35-4.13,3.76-6.88,5.59-7.49Z"/>
              </g>
              <g>
                <path class="cls-6" d="M241.76,228.92c1.2,1.64,1.69,5.44-.03,9.54-1.72,4.11-4.92,6.72-7.06,6.92-1.15-1.66-1.06-5.57.71-9.56,1.77-3.98,4.47-6.49,6.38-6.91Z"/>
                <path class="cls-6" d="M252.36,252.04c-.38-2.04-3.2-4.69-7.5-6.21-4.31-1.52-8.32-1.41-10.13-.24.17,2,2.64,5.06,6.99,6.72,4.35,1.65,8.76,1.05,10.64-.27Z"/>
              </g>
              <g>
                <path class="cls-6" d="M237.67,257.93c-.19-2.07-2.72-4.99-6.85-6.92-4.13-1.93-8.14-2.18-10.05-1.16h0c0,2.02,2.18,5.27,6.35,7.31,4.16,2.05,8.57,1.9,10.56.77Z"/>
                <path class="cls-6" d="M229.36,233.88c1.04,1.75,1.14,5.57-.96,9.51-2.1,3.91-5.54,6.22-7.7,6.23h0c-.98-1.77-.54-5.63,1.59-9.46,2.16-3.81,5.12-6.03,7.07-6.29Z"/>
              </g>
            </g>
          </g>
          <path class="cls-6" d="M223.35,263.87c.29-2.06-1.49-5.49-5.06-8.33-3.57-2.83-7.41-4.01-9.5-3.46h0c-.49,1.95.89,5.63,4.47,8.59,3.56,2.96,7.89,3.84,10.08,3.2Z"/>
          <path class="cls-6" d="M224.01,248.44c-1.06-1.11-3.87-1.65-7.16-.87-3.28.78-5.72,2.48-6.36,3.95h0c.91,1.18,3.69,2.05,7.04,1.32,3.35-.72,5.85-2.83,6.48-4.4Z"/>
          <path class="cls-6" d="M193.17,248.44c1.07-1.11,3.87-1.65,7.16-.87,3.29.78,5.72,2.48,6.36,3.95h0c-.92,1.18-3.69,2.05-7.05,1.32-3.35-.72-5.85-2.83-6.48-4.4Z"/>
          <path class="cls-6" d="M193.84,263.87c-.29-2.06,1.49-5.49,5.06-8.33,3.57-2.83,7.4-4.01,9.5-3.46h0c.48,1.95-.89,5.63-4.47,8.59-3.56,2.96-7.89,3.84-10.08,3.2Z"/>
          <path class="cls-6" d="M213.6,251.12c0,2.73-2.22,4.95-4.95,4.95s-4.94-2.22-4.94-4.95,2.21-4.94,4.94-4.94,4.95,2.22,4.95,4.94Z"/>
        </g>
        <g>
          <path class="cls-5" d="M297.25,9.05c-28.66,0-55.73,0-87.33-8.66l-1.4-.38-1.39.4c-28.06,8.01-52.41,8.66-79.07,8.66h-16.07s0,116.35,0,116.35c0,60.73,33.47,79.12,63,95.34,11.24,6.17,21.86,12.01,29.98,19.8l3.57,3.43,3.59-3.43c8.12-7.79,18.74-13.63,29.99-19.81,29.52-16.23,62.98-34.62,62.98-95.34V9.05h-7.85Z"/>
          <g>
            <path class="cls-6" d="M297.25,11.06c-28.8,0-56,0-87.86-8.74l-.86-.24-.85.24c-28.31,8.08-52.81,8.74-79.62,8.74h-14.06s0,114.33,0,114.33c0,59.53,32.91,77.62,61.95,93.57,11.36,6.25,22.1,12.15,30.41,20.12l2.19,2.1,2.19-2.1c8.31-7.98,19.04-13.88,30.41-20.12,29.03-15.96,61.94-34.04,61.94-93.57V11.06h-5.84Z"/>
            <path class="cls-2" d="M299.93,14.02c-30.47,0-58.62.14-91.39-8.85-33.28,9.5-60.92,8.85-91.38,8.85v111.17c0,80.39,60.93,82.18,91.38,111.41,30.47-29.23,91.39-31.02,91.39-111.41V14.02h0Z"/>
            <path class="cls-2" d="M239.19,14.87v92.65h57.57V17.53c-18.38,0-37.37-.02-57.57-2.66Z"/>
            <path class="cls-3" d="M208.56,8.81c-9.44,2.65-18.88,4.62-28.77,6.01v92.7h55.19V14.27c-9.17-1.35-17.83-3.15-26.41-5.46Z"/>
            <path class="cls-1" d="M178.98,213.56c10.81,5.94,21.05,11.57,29.56,19.09,8.52-7.53,18.75-13.15,29.56-19.09,28.84-15.85,58.66-32.24,58.66-88.02v-13.8H120.32v13.8c0,55.78,29.82,72.17,58.66,88.02Z"/>
            <path class="cls-2" d="M175.57,107.52V15.37c-16.52,2.01-32.52,2.18-47.52,2.18h-7.73s0,89.97,0,89.97h55.25Z"/>
            <g>
              <path class="cls-6" d="M296.76,17.01c-18.27,0-37.15,0-57.5-2.66l-.6-.08v93.78h58.62V17.01h-.53ZM241.3,105.41V17.27c19.36,2.35,37.39,2.38,53.35,2.38v85.75h-53.35Z"/>
              <path class="cls-6" d="M235.5,13.82l-.45-.07c-9.15-1.35-17.77-3.14-26.35-5.45l-.14-.04-.14.04c-9.44,2.65-18.83,4.61-28.7,5.99l-.46.06v93.69h56.24V13.82ZM181.9,105.41V16.65c9.14-1.35,17.87-3.2,26.67-5.65,7.94,2.12,15.89,3.79,24.3,5.09v89.31h-50.97Z"/>
              <path class="cls-6" d="M119.79,125.54c0,56.1,29.96,72.56,58.94,88.49,10.79,5.93,20.99,11.54,29.46,19.01l.35.31.35-.31c8.47-7.48,18.66-13.08,29.46-19.01,28.97-15.93,58.94-32.39,58.94-88.49v-14.32H119.79v14.32ZM208.54,229.86c-8.38-7.08-18.16-12.45-28.54-18.16-28.31-15.55-57.57-31.63-57.57-86.17v-11.68h172.22v11.68c0,54.53-29.27,70.62-57.57,86.17-10.36,5.69-20.14,11.07-28.54,18.15Z"/>
              <path class="cls-6" d="M176.1,14.78l-.59.07c-16.53,2.01-32.51,2.17-47.46,2.17h-8.26s0,91.03,0,91.03h56.31V14.78ZM122.43,105.41V19.65h5.62c14.28,0,29.54-.14,45.41-1.91v87.66h-51.03Z"/>
            </g>
            <path class="cls-2" d="M216.74,78.02c.78,0,1.57-.15,2.34-.44,1.63-.62,2.93-2.27,3.86-4.93.17-.48.29-.89.4-1.23-.09.29-.21.56-.37.8-1.13,1.65-4.03,2.32-5.96,1.29-2.2-1.17-2.52-4.83-2.52-6.9,0-2.23.26-4.4.53-6.7.31-2.73.64-5.55.54-8.58l-.02-.73h8.12v-3.66c-2.51-.07-6.1-.15-10.04-.15-3.35,0-6.36.06-8.93.18-.63.03-1.25.05-1.87.07-2.86.08-5.56.17-7.26,1.21-1.39.84-2.01,2.45-2.74,4.32l-.26.65c-.23.59-.47,1.18-.62,1.71.24-.26.46-.65.72-1.13.31-.58.63-1.18,1.14-1.64,1.66-1.51,4.04-2,7.59-1.55l.65.08-.03.65c-.34,7.97-1.56,13.19-4.07,17.47-.4.69-.96,1.35-1.55,2.04-1.02,1.22-2.07,2.48-2.18,3.78-.07.87.18,1.65.73,2.25,1.13,1.22,3.41,1.37,4.66.23,1.91-1.75,2.3-6.12,2.68-10.35l.15-1.6c.17-1.74.32-3.41.47-5.03.29-3.25.57-6.31.91-9.06l.08-.65.65.02c.9.04,1.85.02,2.81,0,.57,0,1.14-.02,1.7-.02,1.23,0,2.13.06,2.91.19l.64.11-.05.65c-.3,3.8-.58,7.19-.92,10.72-.08.88-.19,1.76-.3,2.66-.33,2.79-.68,5.67-.31,8.35.39,2.86,2.79,4.93,5.72,4.93Z"/>
            <g>
              <path class="cls-6" d="M270.19,58.5c-.29-.07-.58-.1-.87-.1-1.72,0-3.21,1.17-3.61,2.85-.47,2,.76,4.01,2.76,4.48.28.07.57.1.86.1,1.73,0,3.21-1.17,3.61-2.85.47-2-.76-4-2.75-4.48Z"/>
              <g>
                <path class="cls-6" d="M258.28,70.03c.24-1.01-.38-2.02-1.39-2.27-1.01-.24-2.02.38-2.26,1.39-.24,1.01.39,2.02,1.4,2.26,1,.24,2.02-.38,2.26-1.39Z"/>
                <path class="cls-6" d="M284.34,70.46c.24-1.01-.38-2.02-1.38-2.26-1.01-.24-2.03.38-2.26,1.39-.24,1.01.38,2.02,1.39,2.27,1.01.24,2.02-.38,2.26-1.39Z"/>
                <path class="cls-6" d="M270.44,47.87c.24-1.01-.38-2.03-1.39-2.27-1.01-.24-2.02.38-2.27,1.39-.24,1.01.39,2.02,1.39,2.27,1.01.24,2.02-.38,2.26-1.39Z"/>
              </g>
              <path class="cls-6" d="M288.86,56.64c-.6-2.28-4.21-3.65-9.67-3.65-3.54,0-7.57.56-11.64,1.63-5.21,1.37-9.91,3.4-13.23,5.72-3.3,2.3-4.85,4.61-4.35,6.49.37,1.42,1.9,2.47,4.32,3.08-.04-.28-.03-.55.04-.84.09-.38.27-.71.52-.98-1.03-.53-1.68-1.21-1.9-2.04-.89-3.39,5.78-8.09,14.87-10.47,3.43-.9,6.82-1.38,9.8-1.38,4.67,0,7.76,1.19,8.29,3.2.44,1.66-.88,3.67-3.72,5.65-2.81,1.96-6.77,3.68-11.15,4.82-3.43.9-6.82,1.38-9.8,1.38-.94,0-1.82-.04-2.62-.14.07.32.08.65,0,.99-.03.13-.07.24-.12.35.37.02.75.02,1.15.02,3.53,0,7.56-.57,11.64-1.64,5.21-1.37,9.92-3.4,13.24-5.72,3.29-2.31,4.84-4.61,4.35-6.49Z"/>
              <path class="cls-6" d="M282.52,72.29c-.16,0-.3-.02-.45-.05-.02.91-.28,1.66-.8,2.19-.54.54-1.33.82-2.34.82-3.48,0-9.18-3.35-14.21-8.35-3.21-3.2-5.78-6.68-7.21-9.78-1.46-3.14-1.59-5.54-.39-6.76.55-.55,1.34-.83,2.35-.83,3.48,0,9.19,3.36,14.21,8.36,3.57,3.55,6.2,7.34,7.5,10.46.37-.29.83-.46,1.33-.46-1.77-3.45-4.62-7.21-8.13-10.71-5.95-5.92-12.7-9.91-16.79-9.91-1.14,0-2.03.31-2.63.92-1.37,1.38-1.19,4.14.51,7.8,1.71,3.68,4.76,7.81,8.57,11.61,5.96,5.93,12.7,9.91,16.8,9.91h0c1.14,0,2.03-.31,2.64-.92.97-.98,1.16-2.68.57-4.89-.4.37-.93.59-1.5.59Z"/>
              <path class="cls-6" d="M277.95,49.7c-.47-4-1.77-6.45-3.66-6.9-.21-.05-.42-.07-.64-.07-1.36,0-2.84.98-4.31,2.68.47.17.88.49,1.15.93.06.1.12.21.16.32.8-.6,1.59-.94,2.34-.94.2,0,.39.03.58.07,3.4.81,4.4,8.92,2.22,18.07-2.06,8.66-6.16,15.19-9.54,15.19-.2,0-.39-.02-.58-.06-1.67-.4-2.81-2.51-3.22-5.95-.41-3.4-.05-7.7,1-12.12,1.1-4.58,2.75-8.57,4.58-11.31-.44-.12-.82-.37-1.09-.7-1.78,3.14-3.37,7.23-4.45,11.77-2.57,10.8-1.46,20.36,2.48,21.3.2.05.42.08.63.08,3.87,0,8.77-7.89,11.17-17.95,1.25-5.25,1.67-10.37,1.19-14.4Z"/>
            </g>
            <g>
              <path class="cls-3" d="M147.42,76.7v1.49c8.32-2.23,13.19-7.88,15.1-16.47-4.2,5.82-6.92,13.1-15.1,14.98Z"/>
              <path class="cls-3" d="M133.83,77.08c.37-1.95-3.55-2.65-3.78-5.24.17-4.25,8.68-4.17,7.93-9.73-.5-3.7-7.93-2.74-7.93-5.99,0-9.88,15.18-17.41,24.54-11.23,2.6,1.72,3.32,4.07,5.67,5.61.75-2.21-1.76-4.6-3.4-5.99-5.12-4.33-15.77-4.45-21.51,0-3.75,2.91-7.56,8.74-6.79,12.35.74,3.51,5.51,2.71,7.93,5.24-.32,4.36-7.49,4.79-7.93,8.98-.31,2.99,2.46,4.9,4.91,6.74.37-.01.29-.46.38-.75Z"/>
              <path class="cls-3" d="M135.71,50.13c-.24,1.76-1.15,2.86-1.13,4.87,3.03,2.1,6.46-2.38,5.67-5.24-1.17-.44-3.17-.07-4.53.37Z"/>
              <path class="cls-3" d="M149.68,52.38c3.69-1.27,2.75,1.64,6.04,1.5,1.23-3.74-1.43-6.46-4.53-7.11-.12,2.25-2.58,3.34-1.51,5.62Z"/>
              <path class="cls-3" d="M147.79,48.63c.07-4.02-5.77-4.69-6.8-2.24,1.16,2.98,3.54,3.87,6.8,2.24Z"/>
              <path class="cls-3" d="M139.22,71.58c5.4,1.23,6.23,6.1,6.23,6.1.08-6.72-6.23-6.1-6.23-6.1Z"/>
              <path class="cls-3" d="M144.08,62.08c2.32,0,4.21-1.89,4.21-4.21s-1.88-4.21-4.21-4.21-4.2,1.88-4.2,4.21,1.88,4.21,4.2,4.21Z"/>
              <path class="cls-3" d="M138.82,73.56c-5.54.87-2.37,7.82-6.31,10.32,5.48-.12,11.97-1.45,11.33-6.36-.26-1.97-2.03-4.43-5.02-3.96ZM141.8,79.85c-.98,1.15-3.15,1.96-6.17,2.34.4-1.03.59-2.14.76-3.13.46-2.7.8-3.75,2.65-4.04.18-.02.34-.04.51-.04,1.8,0,2.69,1.68,2.83,2.74.11.86-.08,1.54-.58,2.13Z"/>
              <path class="cls-3" d="M166.86,49.66c-1.07-1.05-2.79-1.02-3.84.05l-22.23,20.4h0c2.38.72,5.05,2.37,6.16,6.11.08.02.13.04.13.04l19.81-22.76c1.04-1.07,1.03-2.79-.05-3.84ZM165.79,52.53l-18.34,21.06c-.93-1.69-2.26-3.02-3.97-3.95l20.59-18.91c.44-.45,1.31-.46,1.76-.02.24.23.37.54.37.87,0,.34-.13.66-.41.95Z"/>
            </g>
            <path class="cls-2" d="M248.02,169.58c.53-.37.19-1.36.05-2.03-.26-1.15-.29-2.01-.01-2.64.31-.67.25-.79-.22-1.49-.8-.84-1.42-1.52-1.83-2.94-.1-.27-.06-.56.03-.85.14-.46.74-2.45.72-2.9-.09-1.92-.63-2.52-2.75-2.92-.65-.12-1.25-.2-1.87-.33-1.72.15-3.39-1.1-5.13-1.26-.32-.08-.36-.41-.31-.72.7-3.1.34-4.41-.83-6.58-1.62-3.01-2.81-3.59-2.82-7.79.04-.71.42-1.68.31-2.16-.09-.48-.06-.93,0-1.4.06-.55.16-1.32,1.04-1.65.94,1.32,2.09.75,3.74.54,1.43.22,5,.61,5.2.63.55.07,1.12.31,1.46.73.22.28,1.27-.15,1.41-.44.2-.42,1.97-.86,2.25-1.42.46-.94-.35-1.66-.08-2.55.25-.8-1.24-1.61-2.44-2.13h.02c-3.56-1.4-3.41-1.96-3.41-1.96-.5-.81-.79-.86-.79-.86-.9-.45-1.07-1.22-1.07-1.22-.55-1.33-1.86-1.65-2.41-1.73-.33-.09-.66-.2-.97-.39-.6-.35-.92-1.47-1.29-1.62-.08-.08-.16-.16-.26-.22-.21-.09-.42-.17-.63-.19-1.01-.78-.58-2.42-1.05-2.28-.54.16-1.19-2.11-1.19-2.11-.31.02-.54.2-.72.44-.06.07-.13.2-.22.42-.01.05-.03.09-.05.13-.01.03-.02.05-.03.08-.02.05-.03.09-.05.14,0,.04-.02.06-.03.11,0,.04-.02.08-.04.14,0,.03-.02.07-.02.11,0,.03-.01.05-.02.07-.1.48-.12.88-.12.88l.04.04c0,.75.18,1.45.44,2.02.23.35.08.56-.09.84-.46.4-.83.72-1.46,1.01-.41.27-1,.31-1.46.52-1.4.37-3.93,1.19-6.67,2.87-7.16,4.27-9.31,10.18-9.72,11.5-.85,2.3-2.76,8.27-3.03,16.3l1.63.08c-.99,1.03-2.08,2.45-2.81,3.21-3.19,4.07-6.53,3.48-9.72,5.86-2.06,1.41-6.35,5.31-7.42,5.79,0,0-.02,0-.03,0-.13-.23-.33-.42-.6-.51-.35-.13-.73-.06-1.02.14-1.04-.6-2.02-1.69-2.95-1.98-2.74-1.34-5.58-1.21-8.31-.33-4.39,1.96-6.58,2.89-9.3,7.21-2.47,3.48-10.33,10.61-8.04,15.01,0,0,.52-6.15,6.56-6.99,0,0-.65,1.08,3.57.38,0,0-.02.07-.05.18.05.08.06.26-.06.46-.06.09-.11.18-.15.28-.27,1.04-.62,2.69-.36,3.48,0,0,3.68-4.71,7.45-4.32,0,0,5.06-1.73,7-6.42v.12c.55-1.34,2.73-3.71,3.79-3.95.13.19.31.34.55.43.2.07.4.08.6.04.08.07.16.14.23.19-1.53,3.91-1.42,7.65,2.02,13.06,1.87,2.65-.85,5.34-3.75,7.03-1.38.82-2.14,1.24-1.82,2.97.2,1.1.77,2.06,1.35,3.21.3.78.51,1.42.44,2.42-.1,1.18.21,2.16.44,3.37.23,1.14.59,4.9.67,5.56.11,1.08.17,1.11-.08,1.71-.5,1.2-1.18.75-.95,2.07.11.6.4,1.18.37,1.55-.09.79.09,1.34.28,1.95.24.78,1.49.92,2.27,1.37,1.08.69.8,1.28,2.48,1.61.37.32.87.51,1.38.68,1.49.5,4.48,1.37,2.29-2-.22-1.78-2.38-1.98-3.34-3.26-1.57-1.28-.93-3.23-.93-4.76.15-3.03.28-4.42.71-7.12.47-3.9,3.01-4.46,4.04-5.49.51-.5.97-.98,1.67-1.88,1.48-1.79,2.72-4.07,4.32-5.71,2.44-2.52,5.13-4.76,5.52-8.76.09-.5.2-1.2.29-1.81.42-2.37,2.28-3.09,6.7-5.3,2.25-1.13,10.3-4.26,13.57-8.73.29-.27,2.37-2.85,3.16-3.84.64-.57,1.04-1.78,2.07-1.71,2.95.09,5.45-.91,5.93-1.11.26-.12.5-.14.61.2-.08.58.28,1.09.49,1.6.46,1.45-.61,2.51-1.45,3.42-.86.72-.19,1.54-.83,1.08-.69-.57-2.02-.54-2.3.24-.75.22-1.27.59-1.56,1.22-.68,1.45-.68,4.28,1.29,3.21.45-.26.87-.69,1.38-.7,1.12.12,1.98-.74,3.02-.98.35-.19.76-.48.88-.86.08-.11.25-.14.4-.14.53,0,.75.09,1.29-.64.25.28.19.59.35.94-.12.08-.23.1-.34.11-.46.04-.83,1.09-.44,1.61.17.23.12.39.06.55-.04.28-.15.67-.1.99.07.75.44,1.34.97,1.79,1.14.96,1.71,1.48,2.31.3.31-.6.14-1.57.67-2.05Z"/>
            <path class="cls-5" d="M234.52,141.61s0,.01,0,.03c-.01,0-.02.02-.05.02l.05-.04Z"/>
            <path class="cls-5" d="M236.7,144.13v.02s-.03,0-.04,0l.04-.03Z"/>
          </g>
        </g>
      </g>
      <g>
        <g>
          <path class="cls-6" d="M122.53,312.21h9.06c2.05,0,3.61.46,4.68,1.39,1.08.93,1.62,2.14,1.62,3.64s-.5,2.64-1.49,3.43c-1.36,1.08-3.04,1.63-5.05,1.63h-3.28v6.27c0,.36.09.63.26.78.23.2.54.3.93.3h2.09v.94h-8.83v-.94h1.85c.37,0,.63-.07.8-.21.17-.14.26-.34.26-.59v-14.64c0-.38-.11-.64-.32-.8-.22-.17-.62-.25-1.22-.25h-1.36v-.93ZM128.08,321.38h2.49c1.58,0,2.72-.33,3.41-.98.7-.66,1.05-1.74,1.05-3.26,0-1.06-.16-1.87-.47-2.44-.31-.57-.78-.99-1.38-1.26-.61-.27-1.61-.41-3-.41-.92,0-1.49.09-1.74.26-.24.17-.37.47-.37.9v7.19Z"/>
          <path class="cls-6" d="M139.16,318.94l4.18-.21v4.7c.45-1.55.98-2.72,1.62-3.52.63-.79,1.41-1.19,2.33-1.19.63,0,1.13.19,1.5.57.38.39.57.9.57,1.55,0,.52-.13.92-.38,1.21-.25.29-.57.43-.95.43s-.67-.12-.9-.37c-.23-.25-.34-.59-.34-1.01,0-.27.07-.53.2-.76.13-.22.19-.35.19-.39,0-.13-.08-.18-.24-.18-.34,0-.72.2-1.16.59-.59.56-1.05,1.32-1.38,2.29-.5,1.51-.75,2.71-.75,3.62v2.49c0,.28.1.5.3.65.2.15.54.22,1.02.22h1.48v.94h-7.23v-.94h1.15c.39,0,.68-.08.88-.23.2-.15.3-.34.3-.55v-7.41c0-.56-.12-.98-.36-1.24-.24-.26-.58-.39-1.03-.39h-1.02v-.88Z"/>
          <path class="cls-6" d="M150.41,318.94l4.63-.14v10.01c0,.28.07.46.2.58.19.17.43.25.72.25h1.32v.94h-6.62v-.94h1.23c.36,0,.63-.09.8-.27.17-.17.26-.43.26-.77v-7.33c0-.46-.13-.81-.4-1.05-.27-.24-.66-.35-1.18-.35h-.95v-.93ZM153.64,312c.37,0,.7.14.98.42.28.28.42.61.42,1s-.13.69-.41.97c-.27.27-.6.41-.98.41s-.71-.14-.99-.42c-.27-.27-.42-.6-.42-.98s.14-.7.42-.98c.28-.28.61-.42.97-.42Z"/>
          <path class="cls-6" d="M158.14,318.94h5.72v.84c-.76.02-1.25.09-1.46.2-.21.12-.31.29-.31.52,0,.18.04.37.12.55l3.08,6.87,2.81-6.66c.04-.11.06-.23.06-.35,0-.6-.59-.97-1.78-1.12v-.84h4.82v.84c-.49.05-.88.18-1.17.39-.29.22-.51.51-.67.87l-4.27,9.87h-.67l-4.58-10.14c-.16-.36-.36-.62-.6-.77-.24-.14-.61-.22-1.11-.23v-.84Z"/>
          <path class="cls-6" d="M184.61,329.3l.45.69c-.6.63-1.28.93-2.01.93-.57,0-1.04-.15-1.42-.46-.38-.31-.72-.85-1.01-1.62-.78.83-1.47,1.38-2.07,1.66-.59.28-1.31.41-2.15.41-1.19,0-2.1-.25-2.72-.77-.62-.51-.93-1.17-.93-1.98,0-1.21.71-2.21,2.13-3.01,1.42-.79,3.31-1.33,5.67-1.6v-1.76c0-.63-.25-1.17-.76-1.61-.5-.45-1.15-.67-1.92-.67-.72,0-1.34.16-1.87.45-.37.22-.55.45-.55.66,0,.12.1.33.3.59.24.33.36.62.36.88,0,.37-.12.68-.36.91-.24.24-.55.36-.94.36-.42,0-.76-.14-1.04-.42-.28-.28-.42-.64-.42-1.08,0-.82.46-1.57,1.38-2.24.92-.67,2.14-1.02,3.64-1.02,1.38,0,2.44.3,3.17.9.72.6,1.09,1.34,1.09,2.2v6.36c0,.56.09.98.28,1.24.18.27.42.41.71.41.32,0,.66-.14,1.02-.4ZM180.53,324.39c-2.1.29-3.59.76-4.47,1.42-.65.5-.98,1.2-.98,2.11,0,.63.17,1.14.51,1.49.34.36.79.54,1.33.54.98,0,1.82-.37,2.54-1.11.71-.74,1.07-1.68,1.07-2.79v-1.67Z"/>
          <path class="cls-6" d="M189.52,314.19h.83v4.75h3.76v1.14h-3.76v7.47c0,.65.15,1.14.46,1.48.3.34.69.52,1.17.52.56,0,1.04-.26,1.44-.79.4-.52.63-1.38.7-2.58h.83c-.05,1.55-.4,2.7-1.05,3.45-.66.75-1.51,1.12-2.55,1.12-.96,0-1.71-.26-2.25-.79-.54-.52-.81-1.21-.81-2.07v-7.81h-2.02v-.87c.92-.16,1.63-.54,2.11-1.16.72-.92,1.1-2.21,1.16-3.86Z"/>
          <path class="cls-6" d="M207.27,324.84h-8.33c.04,1.77.37,3.02.99,3.75.71.82,1.62,1.24,2.72,1.24,1.62,0,2.93-.92,3.91-2.77l.81.35c-1.21,2.35-2.96,3.53-5.24,3.53-1.56,0-2.87-.57-3.93-1.69-1.06-1.13-1.6-2.57-1.6-4.32,0-1.89.52-3.41,1.57-4.58,1.04-1.17,2.33-1.75,3.87-1.75,1.13,0,2.1.3,2.92.87.82.58,1.44,1.41,1.85,2.5.29.76.44,1.73.46,2.88ZM198.94,323.96h5.04c.3,0,.53-.1.69-.3.16-.2.25-.55.25-1.03,0-.92-.28-1.69-.85-2.33-.56-.64-1.24-.95-2.01-.95-.86,0-1.59.38-2.19,1.15-.6.77-.91,1.92-.94,3.47Z"/>
          <path class="cls-6" d="M227.07,313.6l1.12-1.6h.9l.08,6.7h-.82c-.52-2.05-1.28-3.55-2.28-4.5-1-.94-2.16-1.41-3.47-1.41-1.09,0-1.98.33-2.68.98-.7.66-1.04,1.45-1.04,2.4,0,.59.13,1.1.39,1.55.27.44.66.8,1.19,1.08.53.28,1.52.58,2.98.89,2.05.44,3.48.89,4.31,1.35.82.45,1.43,1.03,1.84,1.72.41.69.61,1.5.61,2.43,0,1.65-.56,3.03-1.67,4.12-1.12,1.09-2.56,1.63-4.32,1.63-1.9,0-3.55-.61-4.95-1.83l-1.4,1.71h-.89v-7.12h.89c.35,1.96,1.13,3.51,2.33,4.64,1.21,1.13,2.57,1.7,4.09,1.7,1.23,0,2.23-.36,3-1.09.77-.72,1.16-1.6,1.16-2.64,0-.59-.14-1.1-.44-1.55-.29-.44-.75-.82-1.38-1.12-.63-.3-1.87-.67-3.71-1.1-2.03-.48-3.41-1.02-4.15-1.62-1.04-.85-1.55-2.04-1.55-3.58s.51-2.93,1.55-3.97c1.04-1.03,2.35-1.55,3.95-1.55.77,0,1.5.13,2.2.41.7.27,1.42.73,2.16,1.37Z"/>
          <path class="cls-6" d="M241.05,327.13l.81.24c-.64,2.38-2.07,3.56-4.27,3.56-1.62,0-2.93-.53-3.96-1.6-1.03-1.07-1.54-2.49-1.54-4.26,0-2.06.56-3.65,1.69-4.78,1.12-1.13,2.45-1.7,3.97-1.7,1.15,0,2.09.32,2.84.94.75.63,1.12,1.33,1.12,2.1,0,.46-.14.85-.42,1.15-.28.3-.6.45-.98.45s-.69-.13-.95-.38c-.26-.25-.38-.56-.38-.93s.14-.71.42-1.04c.13-.16.2-.29.2-.37,0-.24-.16-.47-.49-.7-.32-.23-.76-.34-1.31-.34-1.01,0-1.77.37-2.3,1.1-.75,1.08-1.12,2.48-1.12,4.22s.34,2.92.99,3.77c.67.86,1.51,1.29,2.53,1.29,1.42,0,2.47-.91,3.15-2.73Z"/>
          <path class="cls-6" d="M243.15,312.21l4.41-.21v8.96c.61-.79,1.27-1.38,1.97-1.78.7-.39,1.45-.59,2.24-.59.74,0,1.41.18,2.01.54.46.28.86.77,1.18,1.47.33.71.49,1.54.49,2.5v5.53c0,.36.09.62.27.78.18.16.47.24.86.24h1v.94h-6.29v-.94h.7c.53,0,.89-.09,1.1-.25.21-.17.3-.43.3-.77v-5.53c0-.96-.23-1.72-.7-2.26-.47-.54-1.07-.82-1.79-.82-.57,0-1.1.16-1.59.46-.49.31-.9.78-1.24,1.4-.34.62-.51,1.28-.51,1.98v4.65c0,.42.08.71.26.88.18.17.46.26.86.26h.99v.94h-6.15v-.94h.7c.47,0,.8-.09,1.01-.28.2-.18.3-.47.3-.86v-13.89c0-.49-.13-.87-.39-1.11-.26-.25-.64-.37-1.13-.37h-.84v-.93Z"/>
          <path class="cls-6" d="M264.48,318.59c1.56,0,2.88.57,3.95,1.7,1.06,1.13,1.6,2.62,1.6,4.47,0,1.27-.24,2.36-.72,3.26-.48.9-1.15,1.61-2.04,2.13-.88.52-1.83.78-2.85.78-1.51,0-2.79-.57-3.83-1.71-1.05-1.14-1.57-2.62-1.57-4.45s.52-3.31,1.58-4.46c1.05-1.14,2.35-1.71,3.89-1.71ZM264.48,319.47c-.93,0-1.69.42-2.29,1.26-.6.84-.89,2.17-.89,3.98s.29,3.2.89,4.04c.59.85,1.35,1.28,2.29,1.28s1.75-.43,2.36-1.28c.6-.85.89-2.25.89-4.18,0-1.8-.29-3.1-.88-3.9-.59-.8-1.38-1.2-2.37-1.2Z"/>
          <path class="cls-6" d="M277.19,318.59c1.56,0,2.88.57,3.94,1.7,1.07,1.13,1.6,2.62,1.6,4.47,0,1.27-.24,2.36-.72,3.26-.47.9-1.15,1.61-2.04,2.13-.88.52-1.83.78-2.85.78-1.5,0-2.78-.57-3.83-1.71-1.04-1.14-1.57-2.62-1.57-4.45s.53-3.31,1.58-4.46c1.05-1.14,2.34-1.71,3.88-1.71ZM277.19,319.47c-.93,0-1.69.42-2.29,1.26-.6.84-.89,2.17-.89,3.98s.3,3.2.89,4.04c.59.85,1.35,1.28,2.29,1.28s1.75-.43,2.36-1.28c.6-.85.9-2.25.9-4.18,0-1.8-.29-3.1-.89-3.9-.59-.8-1.38-1.2-2.37-1.2Z"/>
          <path class="cls-6" d="M288.82,312v16.86c0,.24.07.41.21.54.21.17.46.25.76.25h1.23v.94h-6.6v-.94h1.17c.38,0,.66-.09.85-.27.18-.18.28-.44.28-.77v-14.16c0-.41-.11-.72-.34-.91-.3-.26-.68-.4-1.13-.4h-1.04v-.93l4.61-.21Z"/>
          <rect class="cls-6" x="300.51" y="322.82" width="39.41" height="1.31"/>
          <rect class="cls-6" x="74.09" y="322.82" width="39.41" height="1.31"/>
        </g>
        <g>
          <path class="cls-4" d="M0,278.62h16.77l.19,6.56h-1.16c-.21-2.02-.68-3.42-1.42-4.2-.74-.78-1.88-1.17-3.43-1.17h-2.81c-.41,0-.71.09-.9.26-.19.17-.28.41-.28.73v6.37h1.03c2.04,0,3.22-1.22,3.54-3.65h1.13v8.78h-1.13c-.03-.94-.19-1.69-.46-2.23-.27-.54-.65-.97-1.13-1.28-.48-.3-1.04-.46-1.67-.46h-1.29v6.93c0,.37.1.64.3.81.28.25.62.38,1,.38h1.8v1.19H0v-1.19h1.69c.39,0,.7-.11.91-.32.21-.21.32-.48.32-.79v-14.52c0-.37-.11-.63-.31-.77-.21-.14-.64-.22-1.29-.22H0v-1.19Z"/>
          <path class="cls-4" d="M18.63,278.62h9.56v1.19h-1.94c-.27,0-.49.09-.64.28-.15.19-.23.46-.23.84v10.52c0,1.48.39,2.62,1.18,3.41.79.79,1.88,1.19,3.26,1.19,1.02,0,1.95-.22,2.78-.65.61-.33,1.11-.87,1.5-1.61.39-.75.58-1.68.58-2.81v-8.07c0-1.03-.23-1.8-.69-2.32-.46-.51-1.07-.77-1.84-.77h-.28v-1.19h7.25v1.19h-.5c-.76,0-1.33.29-1.72.86-.4.57-.59,1.27-.59,2.11v8.76c0,1.94-.65,3.51-1.96,4.69-1.31,1.19-3.11,1.79-5.4,1.79-1.64,0-3.06-.27-4.27-.8-1.21-.54-2.07-1.23-2.58-2.07-.51-.84-.76-1.96-.76-3.35v-10.68c0-.5-.09-.84-.28-1.02-.19-.18-.53-.28-1.02-.28h-1.4v-1.19Z"/>
          <path class="cls-4" d="M40.84,279.81v-1.19h9.76v1.19h-1.64c-.47,0-.8.09-.99.27-.19.18-.28.47-.28.87v14.14c0,.57.09.94.27,1.1.18.16.6.24,1.27.24h2.74c1.02,0,1.97-.48,2.86-1.45.88-.97,1.56-2.52,2.03-4.64h1.16l-.44,7.29h-16.72v-1.19h1.67c.37,0,.65-.09.84-.29.19-.19.28-.45.28-.79v-14.54c0-.35-.1-.61-.29-.76-.19-.16-.52-.24-.99-.24h-1.5Z"/>
          <path class="cls-4" d="M60.05,278.62h16.62l.42,7.23h-1.17c-.27-1.54-.63-2.75-1.06-3.62-.44-.86-.94-1.48-1.5-1.84-.56-.36-1.18-.55-1.84-.55-.39,0-.67.08-.85.24-.18.16-.27.39-.27.69v14.71c0,.28.09.51.26.69.17.18.39.27.64.27h2.16v1.19h-10.17v-1.19h2.06c.31,0,.55-.09.73-.26.18-.18.27-.41.27-.7v-14.62c0-.34-.09-.6-.27-.76-.18-.16-.47-.25-.87-.25-2.18,0-3.66,2-4.43,6.01h-1.13l.41-7.23Z"/>
          <path class="cls-4" d="M88.64,278.14c1.79,0,3.44.43,4.95,1.3,1.51.87,2.69,2.04,3.54,3.54.84,1.49,1.27,3.18,1.27,5.06,0,2.85-.93,5.23-2.8,7.13-1.86,1.91-4.18,2.85-6.94,2.85-1.83,0-3.48-.43-4.93-1.29-1.45-.87-2.6-2.04-3.44-3.5-.84-1.47-1.26-3.17-1.26-5.11,0-2.89.92-5.27,2.77-7.15,1.84-1.88,4.12-2.81,6.84-2.81ZM88.72,279.38c-1.02,0-1.91.28-2.66.84-.75.56-1.35,1.47-1.79,2.72-.44,1.25-.66,2.96-.66,5.13,0,2.29.2,4.02.61,5.2.4,1.17,1,2.05,1.78,2.61.78.56,1.69.84,2.72.84,1.54,0,2.76-.65,3.68-1.97.92-1.31,1.37-3.6,1.37-6.85,0-2.28-.2-3.99-.59-5.13-.4-1.15-.98-2-1.76-2.55-.78-.56-1.68-.84-2.71-.84Z"/>
          <path class="cls-4" d="M100.66,278.62h5.9l10.3,13.03v-8.86c0-.88-.25-1.58-.74-2.1-.5-.52-1.21-.82-2.12-.88v-1.19h6.94v1.19c-.97.11-1.66.39-2.08.87-.42.47-.63,1.18-.63,2.11v14.83h-1.48l-11.72-15v10.39c0,1.19.27,2.06.82,2.6.54.55,1.22.82,2.02.82h.33v1.19h-7.68v-1.19h.53c.75,0,1.39-.3,1.9-.9.51-.6.77-1.37.77-2.31v-12.27c-.58-.76-1.31-1.14-2.2-1.14h-.85v-1.19Z"/>
          <path class="cls-4" d="M142.2,280.08l1.2-1.7h.91l.11,6.56h-1.16c-.6-1.88-1.45-3.29-2.56-4.24-1.1-.94-2.32-1.4-3.66-1.4-1.14,0-2.07.31-2.78.93-.72.62-1.07,1.36-1.07,2.23,0,.51.14.98.42,1.41.28.43.74.79,1.37,1.09.63.3,1.73.62,3.3.95,1.84.38,3.11.73,3.82,1.04,1.11.5,1.95,1.16,2.51,1.97.56.82.84,1.81.84,2.99,0,1.76-.6,3.16-1.81,4.2-1.46,1.26-3.26,1.89-5.41,1.89-1.98,0-3.79-.69-5.43-2.07l-1.5,1.88h-.95v-7.05h1.13c1.12,4.02,3.4,6.03,6.83,6.03,1.41,0,2.5-.32,3.27-.97.78-.64,1.17-1.45,1.17-2.42,0-.68-.17-1.24-.52-1.7-.34-.46-.88-.83-1.59-1.11-.39-.15-1.37-.39-2.93-.73-2.1-.46-3.59-.94-4.49-1.43-.89-.49-1.55-1.09-1.97-1.81-.42-.72-.63-1.59-.63-2.62,0-1.73.58-3.14,1.74-4.23,1.16-1.09,2.72-1.64,4.67-1.64s3.59.64,5.16,1.94Z"/>
          <path class="cls-4" d="M163.01,280.06l.89-1.89h.95l.32,7.62h-1.18c-.37-2.19-1.06-3.82-2.08-4.88-1.02-1.06-2.19-1.59-3.5-1.59-1.44,0-2.63.68-3.57,2.05-.94,1.37-1.42,3.54-1.42,6.49,0,3.12.52,5.45,1.56,6.96.83,1.19,2.06,1.78,3.68,1.78s2.98-.6,4.09-1.79c.8-.86,1.35-2.14,1.67-3.83h1.16c-.27,2.17-1.1,3.88-2.48,5.14-1.38,1.26-3.08,1.89-5.09,1.89-2.6,0-4.79-.91-6.55-2.75-1.76-1.83-2.64-4.19-2.64-7.06,0-3.19,1.01-5.72,3.05-7.63,1.73-1.62,3.76-2.43,6.08-2.43.92,0,1.77.14,2.55.43.78.29,1.63.78,2.53,1.49Z"/>
          <path class="cls-4" d="M168.18,278.62h9.74v1.19h-1.76c-.38,0-.65.08-.82.22-.17.15-.26.37-.26.66v14.72c0,.34.09.58.27.73.23.19.57.29,1,.29h1.57v1.19h-9.74v-1.19h1.49c.51,0,.87-.09,1.08-.26.21-.17.31-.43.31-.76v-14.55c0-.36-.1-.63-.29-.8-.19-.17-.5-.26-.91-.26h-1.69v-1.19Z"/>
          <path class="cls-4" d="M179.81,278.62h16.56l.37,6.65h-1.13c-.27-1.57-.6-2.7-.99-3.39-.4-.69-.92-1.21-1.57-1.55-.65-.34-1.49-.52-2.54-.52h-2.6c-.4,0-.7.08-.88.24-.18.16-.27.38-.27.66v6.6h.89c1.02,0,1.81-.29,2.37-.87.56-.59.89-1.53,1-2.82h1.16v8.84h-1.16c-.08-1.46-.4-2.5-.97-3.1-.56-.6-1.42-.9-2.56-.9h-.73v7.03c0,.31.09.53.27.66.28.19.67.29,1.18.29h2.29c1.57,0,2.85-.5,3.84-1.5.99-1,1.61-2.52,1.85-4.54h1.16l-.28,7.23h-17.26v-1.19h1.71c.39,0,.68-.1.88-.3.2-.2.3-.46.3-.79v-14.63c0-.31-.1-.54-.3-.68-.2-.14-.56-.22-1.09-.22h-1.51v-1.19Z"/>
          <path class="cls-4" d="M199.84,278.62h5.9l10.3,13.03v-8.86c0-.88-.25-1.58-.74-2.1-.5-.52-1.2-.82-2.12-.88v-1.19h6.94v1.19c-.97.11-1.66.39-2.08.87-.42.47-.63,1.18-.63,2.11v14.83h-1.49l-11.72-15v10.39c0,1.19.27,2.06.82,2.6.55.55,1.22.82,2.02.82h.32v1.19h-7.68v-1.19h.52c.76,0,1.39-.3,1.9-.9.52-.6.77-1.37.77-2.31v-12.27c-.58-.76-1.31-1.14-2.2-1.14h-.85v-1.19Z"/>
          <path class="cls-4" d="M237.08,280.06l.88-1.89h.95l.32,7.62h-1.19c-.37-2.19-1.06-3.82-2.08-4.88-1.02-1.06-2.19-1.59-3.5-1.59-1.44,0-2.63.68-3.57,2.05-.94,1.37-1.41,3.54-1.41,6.49,0,3.12.52,5.45,1.55,6.96.83,1.19,2.06,1.78,3.67,1.78s2.98-.6,4.09-1.79c.79-.86,1.35-2.14,1.67-3.83h1.16c-.27,2.17-1.1,3.88-2.48,5.14-1.38,1.26-3.08,1.89-5.09,1.89-2.61,0-4.79-.91-6.55-2.75-1.76-1.83-2.64-4.19-2.64-7.06,0-3.19,1.01-5.72,3.05-7.63,1.73-1.62,3.76-2.43,6.08-2.43.92,0,1.77.14,2.55.43.79.29,1.63.78,2.53,1.49Z"/>
          <path class="cls-4" d="M242.19,278.62h16.56l.37,6.65h-1.13c-.27-1.57-.6-2.7-1-3.39-.4-.69-.92-1.21-1.56-1.55-.65-.34-1.5-.52-2.54-.52h-2.6c-.4,0-.7.08-.87.24-.18.16-.27.38-.27.66v6.6h.89c1.02,0,1.81-.29,2.37-.87.56-.59.89-1.53,1-2.82h1.16v8.84h-1.16c-.08-1.46-.4-2.5-.96-3.1-.56-.6-1.41-.9-2.56-.9h-.73v7.03c0,.31.09.53.27.66.27.19.67.29,1.18.29h2.29c1.57,0,2.85-.5,3.84-1.5.99-1,1.62-2.52,1.85-4.54h1.16l-.28,7.23h-17.26v-1.19h1.71c.39,0,.68-.1.88-.3.2-.2.3-.46.3-.79v-14.63c0-.31-.1-.54-.3-.68-.2-.14-.56-.22-1.09-.22h-1.5v-1.19Z"/>
          <path class="cls-4" d="M279.52,278.14l7.12,17.06c.21.48.43.8.67.98.24.17.55.26.95.26h.7v1.19h-8.92v-1.19h.84c.66,0,1.11-.07,1.36-.22.25-.15.37-.34.37-.58,0-.19-.05-.41-.15-.66l-1.47-3.52h-7.12l-.68,1.61c-.29.67-.43,1.17-.43,1.49,0,.56.21,1.01.62,1.36.41.34.97.52,1.68.52h.61v1.19h-7.22v-1.19h.42c.46,0,.87-.15,1.22-.44.49-.41.88-.94,1.16-1.58l6.82-16.27h1.45ZM277.45,282.95l-3.04,7.24h6.06l-3.02-7.24Z"/>
          <path class="cls-4" d="M305.06,280.06l.88-1.89h.95l.32,7.62h-1.18c-.37-2.19-1.06-3.82-2.08-4.88-1.02-1.06-2.18-1.59-3.5-1.59-1.44,0-2.63.68-3.57,2.05-.94,1.37-1.41,3.54-1.41,6.49,0,3.12.52,5.45,1.56,6.96.83,1.19,2.05,1.78,3.67,1.78s2.98-.6,4.09-1.79c.8-.86,1.35-2.14,1.67-3.83h1.16c-.27,2.17-1.1,3.88-2.48,5.14-1.38,1.26-3.08,1.89-5.09,1.89-2.61,0-4.79-.91-6.55-2.75-1.76-1.83-2.64-4.19-2.64-7.06,0-3.19,1.01-5.72,3.04-7.63,1.73-1.62,3.76-2.43,6.08-2.43.92,0,1.77.14,2.55.43.78.29,1.63.78,2.53,1.49Z"/>
          <path class="cls-4" d="M319.97,278.14l7.13,17.06c.21.48.43.8.67.98.24.17.55.26.95.26h.7v1.19h-8.92v-1.19h.83c.66,0,1.12-.07,1.36-.22.25-.15.37-.34.37-.58,0-.19-.05-.41-.16-.66l-1.46-3.52h-7.12l-.67,1.61c-.28.67-.43,1.17-.43,1.49,0,.56.2,1.01.62,1.36.41.34.97.52,1.69.52h.6v1.19h-7.22v-1.19h.41c.46,0,.87-.15,1.23-.44.5-.41.88-.94,1.16-1.58l6.82-16.27h1.44ZM317.9,282.95l-3.04,7.24h6.06l-3.02-7.24Z"/>
          <path class="cls-4" d="M330.22,278.62h10.23c1.86,0,3.49.4,4.9,1.18,1.4.79,2.51,1.91,3.31,3.37.79,1.46,1.19,3.1,1.19,4.92s-.36,3.54-1.09,4.94c-.73,1.4-1.82,2.52-3.27,3.35-1.45.83-3,1.25-4.66,1.25h-10.61v-1.19h1.58c.39,0,.68-.11.87-.32.2-.21.29-.51.29-.88v-14.32c0-.39-.1-.67-.31-.84-.21-.17-.55-.27-1.04-.27h-1.4v-1.19ZM339.57,296.43c1.18,0,2.22-.3,3.12-.89.91-.59,1.56-1.4,1.96-2.42.41-1.02.61-2.62.61-4.77,0-2.26-.23-4-.71-5.2-.48-1.2-1.12-2.06-1.94-2.57-.82-.51-2.01-.77-3.59-.77-.87,0-1.41.08-1.63.22-.21.14-.32.41-.32.79v14.39c0,.43.09.74.26.92.17.19.46.29.84.29h1.39Z"/>
          <path class="cls-4" d="M352.08,278.62h16.56l.37,6.65h-1.13c-.26-1.57-.6-2.7-1-3.39-.4-.69-.92-1.21-1.57-1.55-.65-.34-1.5-.52-2.54-.52h-2.59c-.4,0-.7.08-.88.24-.18.16-.27.38-.27.66v6.6h.89c1.02,0,1.81-.29,2.37-.87.56-.59.89-1.53,1-2.82h1.16v8.84h-1.16c-.08-1.46-.4-2.5-.96-3.1-.56-.6-1.42-.9-2.56-.9h-.73v7.03c0,.31.09.53.27.66.27.19.67.29,1.18.29h2.29c1.57,0,2.85-.5,3.84-1.5,1-1,1.62-2.52,1.85-4.54h1.16l-.29,7.23h-17.26v-1.19h1.71c.38,0,.68-.1.88-.3.2-.2.3-.46.3-.79v-14.63c0-.31-.1-.54-.3-.68-.2-.14-.56-.22-1.09-.22h-1.5v-1.19Z"/>
          <path class="cls-4" d="M371.96,278.62h7.65l4.32,12.88,4.3-12.88h7.85v1.19h-1.7c-.42,0-.71.08-.87.24-.16.15-.24.42-.24.8v14.52c0,.37.09.62.26.76.26.21.61.31,1.05.31h1.51v1.19h-9.68v-1.19h1.82c.34,0,.59-.09.77-.29.18-.19.26-.45.26-.78v-15.56l-6.04,17.82h-1.14l-6.03-17.97v13.89c0,.8.26,1.45.76,1.96.51.51,1.24.82,2.2.92v1.19h-7.05v-1.19c.89-.08,1.58-.39,2.08-.94.49-.55.74-1.25.74-2.09v-12.29c0-.53-.09-.88-.27-1.04-.18-.17-.53-.26-1.04-.26h-1.5v-1.19Z"/>
          <path class="cls-4" d="M396.83,278.62h9.46v1.19h-1.31c-.46,0-.78.06-.96.18-.18.12-.27.26-.27.45,0,.22.08.46.23.73l3.96,6.82,2.78-5.53c.23-.46.35-.88.35-1.26,0-.43-.15-.77-.45-1.02-.3-.25-.76-.37-1.37-.37h-.58v-1.19h7.35v1.19c-.85.02-1.53.19-2.04.51-.52.32-.95.84-1.31,1.55l-3.81,7.54v5.98c0,.35.09.61.29.78.2.17.49.26.91.26h1.96v1.19h-10.41v-1.19h1.95c.44,0,.76-.09.94-.25.18-.17.27-.43.27-.79v-5.31l-5.12-8.8c-.33-.57-.67-.95-1.04-1.15-.36-.21-.82-.31-1.37-.31h-.41v-1.19Z"/>
        </g>
      </g>
    </g>
  </g>
</svg>