<?xml version="1.0" encoding="UTF-8"?>
<svg id="_레이어_2" data-name="레이어 2" xmlns="http://www.w3.org/2000/svg" viewBox="0 0 416.02 328.83">
  <g id="_레이어_1-2" data-name="레이어 1">
    <g>
      <path d="M79.75,108.4c-.41,2.09.8,5.96,3.89,9.23,1.55,1.68,3.24,2.73,4.8,3.57,1.36.61,2.59.78,3.52.63,0,.02,0,.03,0,.05h-.03c.01.13.03.27.03.4v.26h.02c.16,3.36.47,6.71.9,10.05-.84-1.67-2.19-3.49-4.03-5.19-3.38-3.09-7.01-4.46-9.01-3.85-.3,2.42,1.26,6.65,4.78,9.71,3.28,2.85,6.84,3.65,8.8,3.11.56,3.56,1.25,7.11,2.07,10.62-1-1.57-2.53-3.24-4.52-4.72-3.68-2.72-7.45-3.55-9.35-2.73-.04,2.3,1.93,6.27,5.73,8.95,3.52,2.5,7.13,2.96,9.04,2.23,0,.01,0,.03.01.04h0c.03.11.06.22.09.33.02.1.04.2.07.31h.02c.85,3.24,1.82,6.46,2.88,9.64-1.15-1.47-2.83-2.99-4.96-4.28-3.92-2.36-7.75-2.82-9.56-1.83.16,2.29,2.51,6.06,6.55,8.37,3.76,2.16,7.41,2.26,9.23,1.34,1.24,3.39,2.6,6.74,4.09,10.03-1.29-1.34-3.11-2.69-5.36-3.75-4.12-1.95-7.98-2.06-9.7-.89.4,2.27,3.12,5.8,7.37,7.71,3.97,1.77,7.6,1.51,9.32.41,0,.01.01.03.02.04.04.1.09.19.14.28.06.1.1.2.15.31h0c1.49,3.01,3.09,5.97,4.79,8.87-1.43-1.2-3.39-2.35-5.75-3.18-4.31-1.52-8.16-1.24-9.74.1.62,2.23,3.71,5.47,8.16,6.93,4.13,1.35,7.73.69,9.32-.57,1.92,3.05,3.96,6.02,6.13,8.9-1.55-1.03-3.62-1.94-6.05-2.51-4.46-1.03-8.27-.34-9.69,1.17.87,2.15,4.32,5.07,8.9,6,4.26.89,7.76-.18,9.2-1.63,0,0,.01.02.02.03h-.01c.08.1.17.2.24.3.06.06.11.14.18.21h0c2.12,2.61,4.34,5.13,6.67,7.56-1.66-.85-3.84-1.52-6.33-1.81-4.55-.51-8.25.61-9.49,2.27,1.11,2.05,4.88,4.57,9.55,4.96,4.33.39,7.69-1.08,8.95-2.69,2.57,2.53,5.25,4.95,8.03,7.24-1.75-.64-3.98-1.05-6.47-1.04-4.59.03-8.13,1.57-9.17,3.38,1.35,1.9,5.39,3.95,10.07,3.79,4.35-.14,7.51-1.98,8.57-3.73,0,0,.01.01.02.02h0c.11.08.22.17.33.25.06.05.13.1.19.16h0c2.66,2.04,5.42,3.97,8.23,5.79-1.81-.44-4.08-.59-6.55-.29-4.55.57-7.89,2.52-8.7,4.42,1.57,1.73,5.79,3.29,10.42,2.6,4.3-.64,7.23-2.84,8.08-4.7,3.08,1.87,6.24,3.61,9.46,5.23-1.85-.23-4.11-.13-6.53.45-4.45,1.07-7.54,3.4-8.14,5.38,1.75,1.53,6.1,2.6,10.62,1.39,4.2-1.11,6.85-3.61,7.5-5.55.01,0,.02,0,.03.01h0c.11.06.21.1.32.16.09.04.18.09.28.13h0c3.05,1.41,6.15,2.7,9.29,3.9-1.87-.05-4.11.28-6.46,1.11-4.3,1.52-7.12,4.17-7.51,6.21,1.88,1.32,6.3,1.92,10.64.27,4.05-1.54,6.45-4.28,6.91-6.27,3.4,1.21,6.84,2.29,10.31,3.27-1.85.12-4.05.66-6.29,1.71-4.14,1.93-6.66,4.85-6.86,6.92,1.98,1.13,6.39,1.28,10.55-.77,3.57-1.75,5.69-4.38,6.21-6.37,1.15.89,2.68,1.67,4.48,2.06,1.18.26,2.28.31,3.27.22-1.3.59-2.67,1.42-4.01,2.48-3.58,2.84-5.35,6.26-5.06,8.33,2.19.64,6.52-.24,10.09-3.2,1.8-1.49,3.04-3.16,3.77-4.7.31.06.63.1.95.1.29,0,.57-.04.84-.09.73,1.54,1.97,3.2,3.77,4.69,3.56,2.96,7.89,3.84,10.08,3.2.29-2.06-1.49-5.49-5.06-8.33-1.33-1.06-2.7-1.88-4-2.48.98.08,2.07.03,3.25-.22,1.36-.29,2.57-.82,3.59-1.44.76,1.89,2.78,4.18,6,5.76,4.16,2.05,8.57,1.9,10.56.77-.19-2.07-2.72-4.99-6.85-6.92-2.25-1.05-4.44-1.58-6.3-1.71,3.47-.98,6.91-2.07,10.31-3.27.45,1.99,2.85,4.73,6.89,6.27,4.35,1.65,8.76,1.05,10.64-.27-.38-2.04-3.2-4.69-7.5-6.21-2.36-.83-4.61-1.16-6.47-1.11,3.14-1.2,6.24-2.5,9.29-3.91h0c.1-.04.18-.09.29-.13.1-.05.2-.1.31-.15h0s.02-.02.03-.02c.65,1.93,3.3,4.44,7.5,5.55,4.51,1.21,8.88.14,10.62-1.39-.6-1.98-3.7-4.31-8.14-5.38-2.42-.58-4.69-.69-6.53-.45,3.22-1.62,6.38-3.36,9.46-5.23.86,1.85,3.78,4.06,8.08,4.7,4.63.7,8.87-.87,10.43-2.6-.81-1.9-4.15-3.86-8.7-4.42-2.48-.3-4.75-.15-6.56.29,2.82-1.82,5.57-3.75,8.25-5.79.06-.06.13-.11.2-.16.1-.08.21-.17.33-.24h-.01s.01-.01.02-.02c1.07,1.75,4.23,3.59,8.57,3.73,4.68.15,8.71-1.9,10.07-3.79-1.03-1.81-4.58-3.35-9.16-3.38-2.5-.02-4.72.4-6.47,1.04,2.78-2.29,5.46-4.71,8.03-7.24,1.26,1.61,4.61,3.08,8.96,2.69,4.67-.39,8.43-2.91,9.55-4.96-1.24-1.66-4.95-2.78-9.49-2.27-2.49.29-4.66.96-6.32,1.81,2.32-2.43,4.55-4.95,6.66-7.56h.02c.06-.07.11-.14.16-.21.09-.1.16-.2.25-.3h0s.01-.02.02-.02c1.44,1.45,4.95,2.51,9.2,1.62,4.58-.94,8.02-3.86,8.89-6-1.41-1.52-5.23-2.2-9.68-1.17-2.42.56-4.49,1.48-6.04,2.5,2.17-2.88,4.21-5.84,6.12-8.89,1.6,1.27,5.19,1.93,9.32.58,4.45-1.46,7.52-4.7,8.16-6.93-1.59-1.34-5.44-1.62-9.75-.1-2.35.83-4.31,1.97-5.73,3.17,1.7-2.89,3.3-5.84,4.79-8.85h0c.05-.1.09-.21.13-.31.05-.09.1-.18.14-.28,0-.01.01-.03.02-.04,1.72,1.1,5.35,1.36,9.32-.4,4.24-1.91,6.97-5.44,7.36-7.71-1.71-1.16-5.57-1.06-9.71.89-2.24,1.07-4.06,2.41-5.35,3.75,1.49-3.29,2.85-6.63,4.08-10.02,1.82.92,5.46.82,9.23-1.34,4.05-2.31,6.39-6.07,6.56-8.37-1.82-.99-5.66-.52-9.57,1.83-2.13,1.29-3.82,2.81-4.96,4.29,1.07-3.18,2.04-6.4,2.89-9.65h0c.02-.11.05-.2.08-.31.04-.11.07-.22.1-.33h0s0-.03.01-.05c1.9.74,5.52.28,9.04-2.23,3.8-2.68,5.78-6.65,5.73-8.95-1.9-.82-5.67.02-9.34,2.73-2,1.48-3.53,3.16-4.53,4.73.81-3.52,1.51-7.06,2.07-10.63,1.96.55,5.52-.25,8.79-3.11,3.53-3.06,5.09-7.29,4.78-9.71-1.99-.61-5.65.76-9,3.85-1.84,1.69-3.19,3.52-4.03,5.18.43-3.33.74-6.67.9-10.03h0c.01-.08.01-.17.01-.26,0-.13,0-.27,0-.4h0s0-.03,0-.05c.93.14,2.15-.03,3.51-.63,1.57-.83,3.25-1.88,4.79-3.57,3.08-3.26,4.29-7.14,3.9-9.23-2.01-.44-5.62.84-8.72,4.12-1.7,1.8-2.83,3.76-3.45,5.52.02-3.62.03-7.22.02-10.83,2.03.23,5.39-1.13,8.25-4.17,3.08-3.27,4.29-7.15,3.9-9.24-2.01-.45-5.62.84-8.72,4.12-1.67,1.78-2.81,3.71-3.43,5.45,0-3.55,0-7.09,0-10.65h-.19c1.58-1.38,3.03-4.86,3.03-9.13,0-4.64-1.74-8.28-3.42-9.45-1.71,1.18-3.41,4.81-3.41,9.45,0,4.27,1.41,7.75,3.01,9.13h-.14c0,3.56,0,7.12,0,10.69-.62-1.75-1.76-3.7-3.45-5.49-3.09-3.28-6.71-4.57-8.71-4.12-.43,2.09.79,5.97,3.88,9.24,2.89,3.05,6.26,4.41,8.28,4.17,0,3.58,0,7.16-.03,10.74-.63-1.73-1.76-3.66-3.42-5.42-3.09-3.28-6.71-4.56-8.71-4.12-.43,2.09.79,5.96,3.88,9.23,1.55,1.61,3.25,2.87,4.78,3.4,1.32.57,2.51.84,3.45.76,0,.15,0,.3,0,.45-.15,3.4-.46,6.8-.9,10.18-.39-1.81-1.3-3.86-2.83-5.74-2.81-3.43-6.43-4.64-8.43-4.35-.5,1.74.44,5.24,3.12,8.68,2.48,3.19,5.57,5.08,7.61,5.15-.56,3.54-1.25,7.05-2.06,10.54-.21-1.84-.91-3.96-2.23-5.98-2.45-3.73-5.86-5.45-7.9-5.37-.71,1.81-.16,5.47,2.15,9.16,2.16,3.43,5.05,5.61,7.07,5.9-.03.11-.05.23-.08.34-.87,3.33-1.85,6.63-2.95,9.89-.03-1.85-.53-4.04-1.65-6.18-2.07-3.94-5.31-5.98-7.34-6.1-.89,1.74-.69,5.43,1.26,9.33,1.83,3.62,4.49,6.06,6.48,6.53-1.22,3.35-2.57,6.66-4.04,9.91.15-1.83-.14-4.05-1.04-6.28-1.68-4.12-4.71-6.47-6.71-6.78-1.05,1.64-1.21,5.3.35,9.37,1.44,3.78,3.85,6.5,5.77,7.17-.05.1-.09.19-.14.29-1.51,3.08-3.15,6.11-4.89,9.07.34-1.81.29-4.04-.38-6.34-1.24-4.27-4.01-6.91-5.98-7.43-1.2,1.52-1.73,5.13-.61,9.32,1.04,3.89,3.12,6.85,4.96,7.75-1.89,3.01-3.91,5.93-6.04,8.77.54-1.75.73-3.97.32-6.32-.75-4.38-3.23-7.29-5.13-8.03-1.35,1.36-2.27,4.88-1.63,9.16.6,3.97,2.33,7.15,4.05,8.25-.09.11-.17.23-.26.34-2.13,2.63-4.37,5.17-6.7,7.62.73-1.68,1.19-3.85,1.06-6.22-.26-4.44-2.39-7.61-4.19-8.57-1.49,1.2-2.79,4.57-2.65,8.89.13,4.02,1.48,7.38,3.06,8.67-2.53,2.49-5.18,4.87-7.92,7.13.93-1.58,1.64-3.69,1.78-6.07.28-4.43-1.46-7.84-3.13-9-1.63,1.02-3.31,4.2-3.69,8.52-.34,4,.59,7.49,2.02,8.97-.12.09-.23.19-.35.28-2.69,2.07-5.46,4.01-8.3,5.85,1.11-1.46,2.06-3.48,2.49-5.83.79-4.38-.53-7.96-2.06-9.3-1.73.81-3.78,3.79-4.67,8.03-.81,3.95-.27,7.53.98,9.15-3.05,1.85-6.17,3.57-9.35,5.17,1.27-1.33,2.44-3.23,3.13-5.53,1.29-4.26.4-7.98-.98-9.49-1.83.61-4.24,3.36-5.59,7.49-1.24,3.85-1.09,7.46,0,9.2-.11.05-.23.11-.34.16-3.11,1.44-6.27,2.77-9.47,3.99,1.4-1.2,2.77-2.97,3.7-5.2,1.73-4.1,1.24-7.9.03-9.54-1.91.41-4.61,2.92-6.38,6.91-1.65,3.71-1.83,7.32-.92,9.15-3.38,1.2-6.79,2.28-10.24,3.25,1.51-1.07,3.04-2.7,4.18-4.82,2.1-3.94,2-7.76.96-9.51-1.95.25-4.91,2.48-7.07,6.29-1.42,2.55-2.07,5.1-2.07,7.05-1.02-.03-2.16.07-3.37.36-1.44.34-2.7.86-3.73,1.46-.79-1.68-2.49-2.86-4.47-2.86s-3.72,1.2-4.49,2.92c-1.05-.62-2.35-1.17-3.83-1.52-1.67-.4-3.22-.45-4.48-.26.02-1.96-.63-4.56-2.08-7.15-2.13-3.81-5.11-6.03-7.06-6.29-1.05,1.75-1.15,5.57.97,9.51,1.15,2.13,2.68,3.76,4.18,4.83-3.45-.97-6.87-2.05-10.24-3.25.9-1.83.72-5.44-.93-9.15-1.77-3.98-4.48-6.49-6.38-6.91-1.2,1.64-1.69,5.44.03,9.54.93,2.23,2.3,3.99,3.7,5.2-3.2-1.22-6.36-2.55-9.47-3.99-.11-.05-.23-.11-.34-.16,1.07-1.74,1.24-5.34-.02-9.2-1.34-4.13-3.74-6.88-5.57-7.49-1.37,1.5-2.27,5.22-.98,9.49.69,2.29,1.86,4.19,3.13,5.53-3.18-1.6-6.3-3.32-9.35-5.17,1.24-1.62,1.78-5.2.97-9.15-.88-4.24-2.93-7.22-4.67-8.03-1.52,1.33-2.86,4.92-2.06,9.3.42,2.35,1.38,4.37,2.49,5.83-2.85-1.84-5.62-3.79-8.31-5.86-.12-.09-.23-.18-.34-.27,1.42-1.47,2.36-4.97,2.01-8.97-.36-4.32-2.06-7.5-3.68-8.52-1.67,1.15-3.42,4.57-3.14,9,.15,2.38.86,4.49,1.79,6.07-2.74-2.26-5.38-4.64-7.92-7.13,1.58-1.29,2.93-4.65,3.06-8.67.14-4.33-1.16-7.69-2.65-8.89-1.81.95-3.93,4.12-4.19,8.57-.13,2.38.32,4.56,1.06,6.24-2.34-2.45-4.59-5-6.71-7.63-.09-.11-.17-.22-.26-.33,1.73-1.1,3.45-4.28,4.05-8.25.64-4.28-.27-7.8-1.63-9.16-1.89.74-4.37,3.65-5.12,8.03-.41,2.36-.21,4.58.33,6.34-2.14-2.84-4.16-5.77-6.05-8.78,1.84-.9,3.93-3.86,4.97-7.75,1.11-4.19.59-7.8-.61-9.32-1.97.52-4.75,3.17-5.97,7.43-.67,2.3-.72,4.54-.38,6.35-1.74-2.96-3.38-5.99-4.89-9.07-.05-.1-.09-.19-.14-.29,1.93-.68,4.33-3.39,5.77-7.17,1.56-4.07,1.4-7.73.35-9.37-2.01.31-5.04,2.66-6.7,6.78-.91,2.22-1.19,4.44-1.05,6.28-1.47-3.25-2.82-6.56-4.04-9.91,1.99-.48,4.65-2.92,6.47-6.53,1.96-3.9,2.15-7.59,1.26-9.33-2.03.12-5.25,2.16-7.33,6.1-1.12,2.14-1.62,4.32-1.66,6.17-1.09-3.26-2.08-6.55-2.95-9.88-.03-.11-.06-.23-.08-.34,2.03-.29,4.91-2.46,7.07-5.9,2.31-3.69,2.87-7.35,2.15-9.16-2.03-.08-5.44,1.64-7.89,5.37-1.32,2.02-2.02,4.14-2.23,5.97-.81-3.49-1.5-7-2.06-10.53,2.04-.08,5.13-1.96,7.62-5.15,2.67-3.44,3.6-6.94,3.12-8.68-2.01-.29-5.62.92-8.44,4.35-1.53,1.87-2.44,3.92-2.83,5.73-.44-3.38-.75-6.78-.9-10.18,0-.15,0-.3,0-.45.94.08,2.14-.19,3.45-.76,1.54-.53,3.24-1.79,4.79-3.4,3.09-3.26,4.3-7.14,3.88-9.23-2.01-.44-5.62.84-8.71,4.12-1.66,1.76-2.8,3.68-3.43,5.42-.02-3.57-.03-7.15-.03-10.73,2.03.24,5.4-1.12,8.28-4.17,3.09-3.27,4.3-7.15,3.88-9.24-2.01-.45-5.62.84-8.71,4.12-1.69,1.79-2.83,3.74-3.45,5.49,0-3.56,0-7.12,0-10.68h-.15c1.6-1.38,3.01-4.86,3.01-9.13,0-4.64-1.69-8.27-3.41-9.45-1.68,1.17-3.41,4.81-3.41,9.45,0,4.27,1.44,7.75,3.02,9.13h-.18c.01,3.55.01,7.1,0,10.65-.62-1.74-1.75-3.68-3.43-5.46-3.1-3.28-6.72-4.57-8.73-4.12-.41,2.09.8,5.97,3.89,9.24,2.88,3.04,6.24,4.4,8.26,4.17,0,3.61,0,7.23.03,10.86-.61-1.77-1.75-3.74-3.45-5.55-3.1-3.28-6.72-4.56-8.73-4.12Z"/>
      <path d="M175.95,216.89c11.36,6.25,22.1,12.15,30.41,20.12l2.19,2.1,2.19-2.1c8.31-7.98,19.04-13.88,30.41-20.12,29.03-15.96,61.94-34.04,61.94-93.57V8.97h-5.84c-28.8,0-56,0-87.86-8.74l-.86-.24-.85.24c-28.31,8.08-52.81,8.74-79.62,8.74h-14.06s0,114.33,0,114.33c0,59.53,32.91,77.62,61.95,93.57ZM117.16,11.93c30.47,0,58.11.65,91.38-8.85,32.77,8.99,60.92,8.85,91.39,8.85v111.17c0,80.39-60.92,82.18-91.39,111.41-30.46-29.23-91.38-31.02-91.38-111.41V11.93Z"/>
      <path d="M180,209.62c10.38,5.7,20.16,11.08,28.54,18.16,8.39-7.08,18.18-12.46,28.54-18.15,28.31-15.56,57.57-31.64,57.57-86.17v-11.68H122.43v11.68c0,54.53,29.26,70.62,57.57,86.17ZM169.11,169.68c2.71-4.32,4.9-5.25,9.3-7.21,2.73-.88,5.57-1.02,8.31.33.93.29,1.91,1.37,2.95,1.98.29-.2.67-.27,1.02-.14.26.1.47.29.6.51.01,0,.02,0,.03,0,1.07-.48,5.36-4.38,7.42-5.79,3.19-2.38,6.52-1.79,9.72-5.86.73-.76,1.82-2.18,2.81-3.21l-1.63-.08c.27-8.03,2.18-14,3.03-16.3.41-1.32,2.56-7.23,9.72-11.5,2.75-1.68,5.28-2.5,6.67-2.87.46-.2,1.05-.25,1.46-.52.62-.29,1-.61,1.46-1.01.17-.28.32-.49.09-.84-.26-.57-.43-1.28-.44-2.02l-.04-.04s.02-.4.12-.88c0-.02.01-.04.02-.07,0-.04.02-.08.02-.11.01-.05.03-.1.04-.14.01-.04.02-.07.03-.11.02-.04.03-.08.05-.14.01-.03.02-.05.03-.08.02-.05.03-.09.05-.13.09-.21.16-.34.22-.42.18-.24.41-.42.72-.44,0,0,.64,2.27,1.19,2.11.48-.14.05,1.5,1.05,2.28.21.02.42.1.63.19.1.06.19.14.26.22.37.15.69,1.27,1.29,1.62.31.19.64.3.97.39.56.08,1.87.4,2.41,1.73,0,0,.17.77,1.07,1.22,0,0,.29.06.79.86,0,0-.15.56,3.41,1.96h-.02c1.2.52,2.69,1.33,2.44,2.13-.27.89.54,1.61.08,2.55-.27.56-2.04,1-2.25,1.42-.14.28-1.19.72-1.41.44-.34-.42-.91-.66-1.46-.73-.2-.02-3.76-.41-5.2-.63-1.65.21-2.8.78-3.74-.54-.88.33-.98,1.11-1.04,1.65-.07.47-.1.92,0,1.4.12.48-.27,1.45-.31,2.16,0,4.2,1.2,4.78,2.82,7.79,1.17,2.17,1.53,3.47.83,6.58-.05.3-.01.64.31.72,1.73.16,3.4,1.41,5.13,1.26.62.12,1.22.2,1.87.33,2.12.41,2.66,1,2.75,2.92.02.46-.59,2.44-.72,2.9-.09.29-.13.58-.03.85.41,1.42,1.03,2.1,1.83,2.94.48.7.53.82.22,1.49-.28.63-.25,1.49.01,2.64.14.67.48,1.66-.05,2.03-.52.48-.36,1.45-.67,2.05-.6,1.18-1.17.66-2.31-.3-.53-.45-.9-1.03-.97-1.79-.05-.33.06-.71.1-.99.06-.16.11-.32-.06-.55-.39-.52-.02-1.57.44-1.61.11-.01.22-.03.34-.11-.16-.35-.1-.66-.35-.94-.54.74-.76.64-1.29.64-.16,0-.32.03-.4.14-.12.38-.53.67-.88.86-1.04.24-1.9,1.1-3.02.98-.51.02-.93.45-1.38.7-1.97,1.07-1.97-1.76-1.29-3.21.29-.63.81-1,1.56-1.22.28-.78,1.6-.81,2.3-.24.64.46-.03-.36.83-1.08.85-.91,1.91-1.97,1.45-3.42-.21-.5-.57-1.02-.49-1.6-.11-.34-.35-.32-.61-.2-.48.21-2.98,1.2-5.93,1.11-1.03-.07-1.43,1.14-2.07,1.71-.79.99-2.87,3.57-3.16,3.84-3.27,4.47-11.32,7.6-13.57,8.73-4.42,2.21-6.28,2.93-6.7,5.3-.09.61-.2,1.31-.29,1.81-.39,4-3.08,6.25-5.52,8.76-1.6,1.64-2.84,3.92-4.32,5.71-.7.9-1.17,1.38-1.67,1.88-1.02,1.03-3.57,1.59-4.04,5.49-.43,2.7-.55,4.08-.71,7.12,0,1.53-.64,3.48.93,4.76.96,1.28,3.13,1.48,3.34,3.26,2.19,3.37-.81,2.5-2.29,2-.51-.16-1.01-.36-1.38-.68-1.68-.33-1.41-.93-2.48-1.61-.78-.45-2.03-.6-2.27-1.37-.19-.6-.37-1.16-.28-1.95.02-.37-.26-.95-.37-1.55-.23-1.31.44-.87.95-2.07.25-.6.19-.63.08-1.71-.07-.67-.43-4.42-.67-5.56-.22-1.21-.54-2.19-.44-3.37.07-1-.14-1.64-.44-2.42-.58-1.14-1.15-2.11-1.35-3.21-.32-1.73.44-2.15,1.82-2.97,2.89-1.69,5.61-4.38,3.74-7.03-3.44-5.41-3.55-9.15-2.02-13.06-.07-.05-.15-.12-.23-.19-.2.05-.4.03-.6-.04-.24-.09-.42-.24-.55-.43-1.06.24-3.25,2.61-3.8,3.95v-.12c-1.93,4.69-6.99,6.42-6.99,6.42-3.77-.38-7.45,4.32-7.45,4.32-.26-.79.09-2.44.36-3.48.05-.1.1-.18.15-.28.12-.2.11-.38.06-.46.03-.11.05-.18.05-.18-4.22.7-3.57-.38-3.57-.38-6.04.84-6.56,6.99-6.56,6.99-2.29-4.4,5.57-11.52,8.04-15.01ZM236.7,142.04v.02s-.03,0-.04,0l.04-.03ZM234.52,139.52s0,.01,0,.03c-.01,0-.02.02-.05.02l.05-.04Z"/>
      <path d="M297.29,14.92h-.53c-18.27,0-37.15,0-57.5-2.66l-.6-.08v93.78h58.62V14.92ZM294.65,103.32h-53.35V15.18c19.36,2.35,37.39,2.38,53.35,2.38v85.75Z"/>
      <path d="M235.5,11.73l-.45-.07c-9.15-1.35-17.77-3.14-26.35-5.45l-.14-.04-.14.04c-9.44,2.65-18.83,4.61-28.7,5.99l-.46.06v93.69h56.24V11.73ZM215.57,49.24c.1,3.03-.23,5.85-.54,8.58-.27,2.3-.53,4.47-.53,6.7,0,2.07.32,5.73,2.52,6.9,1.92,1.02,4.82.36,5.96-1.29.16-.24.28-.51.37-.8-.1.35-.23.76-.4,1.23-.93,2.66-2.23,4.31-3.86,4.93-.77.29-1.57.44-2.34.44-2.93,0-5.33-2.07-5.72-4.93-.37-2.68-.02-5.56.31-8.35.11-.9.22-1.78.3-2.66.34-3.53.61-6.92.92-10.72l.05-.65-.64-.11c-.78-.13-1.68-.19-2.91-.19-.56,0-1.13.02-1.7.02-.96.02-1.91.04-2.81,0l-.65-.02-.08.65c-.34,2.75-.62,5.81-.91,9.06-.15,1.62-.3,3.3-.47,5.03l-.15,1.6c-.38,4.23-.77,8.6-2.68,10.35-1.25,1.14-3.53.99-4.66-.23-.55-.6-.8-1.38-.73-2.25.1-1.3,1.16-2.56,2.18-3.78.59-.69,1.14-1.35,1.55-2.04,2.51-4.28,3.73-9.5,4.07-17.47l.03-.65-.65-.08c-3.55-.44-5.93.05-7.59,1.55-.51.46-.83,1.06-1.14,1.64-.26.48-.47.86-.72,1.13.15-.54.39-1.13.62-1.71l.26-.65c.73-1.87,1.35-3.48,2.74-4.32,1.71-1.04,4.4-1.13,7.26-1.21.62-.02,1.25-.04,1.87-.07,2.57-.11,5.57-.18,8.93-.18,3.94,0,7.54.08,10.04.15v3.66h-8.12l.02.73Z"/>
      <path d="M178.74,211.94c10.79,5.93,20.99,11.54,29.46,19.01l.35.31.35-.31c8.47-7.48,18.66-13.08,29.46-19.01,28.97-15.93,58.94-32.39,58.94-88.49v-14.32H119.79v14.32c0,56.1,29.96,72.56,58.94,88.49ZM122.43,111.77h172.22v11.68c0,54.53-29.27,70.62-57.57,86.17-10.36,5.69-20.14,11.07-28.54,18.15-8.38-7.08-18.16-12.45-28.54-18.16-28.31-15.55-57.57-31.63-57.57-86.17v-11.68Z"/>
      <path d="M176.1,12.69l-.59.07c-16.53,2.01-32.51,2.17-47.46,2.17h-8.26s0,91.03,0,91.03h56.31V12.69ZM173.46,103.32h-51.03V17.56h5.62c14.28,0,29.54-.14,45.41-1.91v87.66Z"/>
      <path d="M270.19,56.42c-.29-.07-.58-.1-.87-.1-1.72,0-3.21,1.17-3.61,2.85-.47,2,.76,4.01,2.76,4.48.28.07.57.1.86.1,1.73,0,3.21-1.17,3.61-2.85.47-2-.76-4-2.75-4.48Z"/>
      <path d="M256.89,65.68c-1.01-.24-2.02.38-2.26,1.39-.24,1.01.39,2.02,1.4,2.26,1,.24,2.02-.38,2.26-1.39.24-1.01-.38-2.02-1.39-2.27Z"/>
      <path d="M280.69,67.5c-.24,1.01.38,2.02,1.39,2.27,1.01.24,2.02-.38,2.26-1.39.24-1.01-.38-2.02-1.38-2.26-1.01-.24-2.03.38-2.26,1.39Z"/>
      <path d="M268.18,47.17c1.01.24,2.02-.38,2.26-1.39.24-1.01-.38-2.03-1.39-2.27-1.01-.24-2.02.38-2.27,1.39-.24,1.01.39,2.02,1.39,2.27Z"/>
      <path d="M254.28,67.83c-.04-.28-.03-.55.04-.84.09-.38.27-.71.52-.98-1.03-.53-1.68-1.21-1.9-2.04-.49-1.89,1.36-4.18,4.67-6.26,1.14,1.74,2.5,3.51,4.04,5.26-.22,1.45-.37,2.85-.45,4.19-.93,0-1.79-.05-2.59-.14.07.32.08.65,0,.99-.03.13-.07.24-.12.35.38.02.75.02,1.15.02.48,0,1-.04,1.5-.06-.2,6.29,1.16,10.91,3.84,11.55.2.05.42.08.63.08,2.33,0,5.04-2.89,7.35-7.38,3,1.8,5.78,2.83,7.86,2.83,1.14,0,2.03-.31,2.64-.92.97-.98,1.16-2.68.57-4.89-.4.37-.93.59-1.5.59-.16,0-.3-.02-.45-.05-.02.91-.28,1.66-.8,2.19-.54.54-1.33.82-2.34.82-1.48,0-3.36-.61-5.42-1.69.87-1.84,1.67-3.91,2.36-6.14,1.41-.51,2.76-1.06,4.01-1.66.52.89.96,1.76,1.3,2.58.37-.29.83-.46,1.33-.46-.45-.87-.96-1.76-1.54-2.66,1.3-.66,2.5-1.36,3.55-2.1,3.29-2.31,4.84-4.61,4.35-6.49-.6-2.28-4.21-3.65-9.67-3.65-.34,0-.7.03-1.05.04,0-1.17-.07-2.29-.19-3.33-.47-4-1.77-6.45-3.66-6.9-.21-.05-.42-.07-.64-.07-1.36,0-2.84.98-4.31,2.68.47.17.88.49,1.15.93.06.1.12.21.16.32.8-.6,1.59-.94,2.34-.94.2,0,.39.03.58.07,1.93.46,3.08,3.27,3.32,7.29-1.96.12-4.03.39-6.15.81-1.22-1.01-2.45-1.93-3.65-2.73.31-.55.62-1.08.93-1.55-.44-.12-.82-.37-1.09-.7-.29.51-.57,1.05-.84,1.6-3.26-2.04-6.29-3.24-8.52-3.24-1.14,0-2.03.31-2.63.92-1.37,1.38-1.19,4.14.51,7.8.42.9.91,1.82,1.48,2.76-.94.52-1.82,1.05-2.61,1.61-3.3,2.3-4.85,4.61-4.35,6.49.37,1.42,1.9,2.47,4.32,3.08ZM258.62,57.11c1.43-.81,3.09-1.57,4.9-2.25-.38,1.2-.73,2.44-1.03,3.72-.25,1.04-.45,2.07-.63,3.08-1.27-1.52-2.36-3.06-3.24-4.55ZM275.04,64.53c-1.29.47-2.63.9-4.03,1.26-1.45.38-2.88.67-4.29.89-.68-.6-1.35-1.22-2.01-1.88-.7-.7-1.36-1.41-2-2.13.19-1.26.43-2.55.74-3.85.37-1.55.81-3.02,1.29-4.4.98-.33,2-.64,3.06-.92.89-.23,1.78-.44,2.65-.61,1.08.89,2.16,1.85,3.21,2.9.99.98,1.89,1.98,2.73,2.98-.16.98-.36,1.98-.6,3-.23.95-.48,1.87-.75,2.76ZM264.01,65.51c.47.47.95.92,1.43,1.36-1.08.14-2.12.22-3.13.25.03-1.01.11-2.07.23-3.15.48.51.97,1.02,1.47,1.53ZM266.26,76.96c-.2,0-.39-.02-.58-.06-1.67-.4-2.81-2.51-3.22-5.95-.1-.83-.15-1.72-.16-2.65,1.34-.1,2.73-.29,4.14-.52,1.83,1.61,3.68,3.02,5.47,4.17-1.81,3.11-3.84,5.01-5.66,5.01ZM272.49,70.9c-1.54-.9-3.15-2.03-4.75-3.36,1.17-.22,2.34-.48,3.53-.79,1.16-.3,2.29-.65,3.39-1.01-.64,1.91-1.38,3.65-2.17,5.16ZM276.23,64.08c.19-.68.37-1.37.54-2.07.18-.74.33-1.47.47-2.2.76.97,1.44,1.94,2.04,2.88-.95.49-1.97.96-3.05,1.39ZM285.89,55.32c.44,1.66-.88,3.67-3.72,5.65-.57.4-1.21.79-1.87,1.17-.83-1.22-1.78-2.45-2.81-3.67.37-2.2.59-4.33.64-6.33,4.37.09,7.26,1.26,7.76,3.19ZM276.94,52.15c.03,1.62-.09,3.41-.35,5.29-.71-.8-1.45-1.59-2.23-2.36-.85-.85-1.72-1.65-2.6-2.42,1.8-.3,3.54-.48,5.17-.51ZM269.45,52.09c-.63.14-1.26.27-1.9.44-.8.21-1.59.44-2.36.68.43-1.12.89-2.17,1.37-3.13.95.59,1.92,1.26,2.89,2.01ZM257.5,55.02c-1.46-3.14-1.59-5.54-.39-6.76.55-.55,1.34-.83,2.35-.83,1.64,0,3.78.75,6.11,2.07-.59,1.28-1.14,2.66-1.65,4.12-2.12.72-4.11,1.55-5.89,2.45-.19-.35-.37-.71-.53-1.05Z"/>
      <path d="M147.42,74.61v1.49c8.32-2.23,13.19-7.88,15.1-16.47-4.2,5.82-6.92,13.1-15.1,14.98Z"/>
      <path d="M136.47,60.02c-.32,4.36-7.49,4.79-7.93,8.98-.31,2.99,2.46,4.9,4.91,6.74.37-.01.29-.46.38-.75.37-1.95-3.55-2.65-3.78-5.24.17-4.25,8.68-4.17,7.93-9.73-.5-3.7-7.93-2.74-7.93-5.99,0-9.88,15.18-17.41,24.54-11.23,2.6,1.72,3.32,4.07,5.67,5.61.75-2.21-1.76-4.6-3.4-5.99-5.12-4.33-15.77-4.45-21.51,0-3.75,2.91-7.56,8.74-6.79,12.35.74,3.51,5.51,2.71,7.93,5.24Z"/>
      <path d="M135.71,48.04c-.24,1.76-1.15,2.86-1.13,4.87,3.03,2.1,6.46-2.38,5.67-5.24-1.17-.44-3.17-.07-4.53.37Z"/>
      <path d="M155.72,51.78c1.23-3.74-1.43-6.46-4.53-7.11-.11,2.25-2.58,3.34-1.51,5.62,3.69-1.27,2.75,1.64,6.04,1.5Z"/>
      <path d="M147.79,46.54c.07-4.02-5.77-4.69-6.8-2.24,1.16,2.98,3.54,3.87,6.8,2.24Z"/>
      <path d="M139.22,69.49c5.4,1.23,6.23,6.1,6.23,6.1.08-6.72-6.23-6.1-6.23-6.1Z"/>
      <path d="M144.08,59.99c2.32,0,4.21-1.89,4.21-4.21s-1.88-4.21-4.21-4.21-4.2,1.88-4.2,4.21,1.88,4.21,4.2,4.21Z"/>
      <path d="M138.82,71.47c-5.54.87-2.37,7.82-6.31,10.32,5.48-.12,11.97-1.45,11.33-6.36-.26-1.97-2.03-4.43-5.02-3.96ZM141.8,77.76c-.98,1.15-3.15,1.96-6.17,2.34.4-1.03.59-2.14.76-3.13.46-2.7.8-3.75,2.65-4.04.18-.02.34-.04.51-.04,1.8,0,2.69,1.68,2.83,2.74.11.86-.08,1.54-.58,2.13Z"/>
      <path d="M140.8,68.02c2.38.71,5.05,2.36,6.16,6.11.08.02.13.04.13.04l19.81-22.76c1.04-1.07,1.03-2.79-.05-3.84-1.07-1.05-2.79-1.02-3.84.05l-22.23,20.4h0ZM164.07,48.64c.44-.45,1.31-.46,1.76-.02.24.23.37.54.37.87,0,.34-.13.66-.41.95l-18.34,21.06c-.93-1.69-2.26-3.02-3.97-3.95l20.59-18.91Z"/>
      <path d="M131.59,310.12h-9.06v.93h1.36c.6,0,1,.09,1.22.25.21.16.32.43.32.8v14.64c0,.25-.09.45-.26.59-.17.14-.44.21-.8.21h-1.85v.94h8.83v-.94h-2.09c-.39,0-.7-.1-.93-.3-.18-.15-.26-.42-.26-.78v-6.27h3.28c2,0,3.68-.55,5.05-1.63.99-.79,1.49-1.93,1.49-3.43s-.54-2.71-1.62-3.64c-1.08-.93-2.64-1.39-4.68-1.39ZM133.99,318.31c-.7.66-1.83.98-3.41.98h-2.49v-7.19c0-.43.13-.74.37-.9.25-.17.82-.26,1.74-.26,1.39,0,2.39.14,3,.41.61.28,1.07.7,1.38,1.26.32.57.47,1.38.47,2.44,0,1.52-.35,2.61-1.05,3.26Z"/>
      <path d="M147.3,316.64c-.93,0-1.71.4-2.33,1.19-.63.8-1.17,1.97-1.62,3.52v-4.71l-4.18.21v.88h1.02c.45,0,.79.14,1.03.39.24.26.36.67.36,1.24v7.41c0,.22-.1.4-.3.55-.2.16-.49.23-.88.23h-1.16v.94h7.23v-.94h-1.48c-.48,0-.82-.07-1.02-.22-.2-.15-.3-.36-.3-.65v-2.49c0-.91.25-2.11.75-3.62.32-.97.78-1.73,1.38-2.29.43-.4.82-.59,1.16-.59.15,0,.24.06.24.18,0,.04-.06.17-.19.39-.13.24-.2.5-.2.76,0,.42.11.76.34,1.01.23.25.53.37.9.37s.69-.14.95-.43c.25-.29.38-.69.38-1.21,0-.65-.19-1.16-.57-1.55-.37-.38-.88-.57-1.5-.57Z"/>
      <path d="M155.25,327.3c-.13-.12-.2-.3-.2-.58v-10.01l-4.63.14v.93h.95c.52,0,.92.12,1.18.35.27.24.4.58.4,1.05v7.33c0,.34-.08.59-.26.77-.17.18-.44.27-.8.27h-1.23v.94h6.62v-.94h-1.32c-.29,0-.53-.08-.72-.25Z"/>
      <path d="M154.63,312.29c.28-.28.41-.6.41-.97s-.14-.71-.42-1c-.28-.28-.61-.42-.98-.42s-.69.14-.97.42c-.28.28-.42.61-.42.98s.14.7.42.98c.28.28.6.42.99.42s.71-.14.98-.41Z"/>
      <path d="M166.39,317.7c1.19.15,1.78.53,1.78,1.12,0,.12-.02.24-.06.35l-2.81,6.66-3.08-6.87c-.08-.18-.12-.36-.12-.55,0-.23.11-.39.31-.52.21-.12.7-.19,1.46-.2v-.84h-5.72v.84c.5,0,.88.08,1.11.23.24.15.44.41.6.77l4.58,10.14h.67l4.27-9.87c.16-.36.38-.65.67-.87.29-.21.68-.34,1.17-.39v-.84h-4.82v.84Z"/>
      <path d="M183.59,327.61c-.29,0-.53-.14-.71-.41-.18-.27-.28-.68-.28-1.24v-6.36c0-.86-.36-1.6-1.09-2.2-.73-.6-1.78-.9-3.17-.9-1.5,0-2.71.35-3.64,1.02-.92.68-1.38,1.42-1.38,2.24,0,.44.14.8.42,1.08.28.29.62.42,1.04.42.39,0,.7-.12.94-.36.24-.23.36-.54.36-.91,0-.26-.12-.55-.36-.88-.2-.26-.3-.46-.3-.58,0-.21.18-.43.55-.66.53-.29,1.15-.45,1.87-.45.77,0,1.42.23,1.92.67.51.45.76.98.76,1.61v1.76c-2.36.27-4.25.8-5.67,1.6-1.42.8-2.13,1.8-2.13,3.01,0,.81.31,1.47.93,1.98.62.51,1.53.77,2.72.77.84,0,1.56-.14,2.15-.41.6-.28,1.29-.83,2.07-1.66.29.77.63,1.31,1.01,1.62.39.31.86.46,1.42.46.74,0,1.41-.31,2.01-.93l-.45-.69c-.36.27-.7.4-1.02.4ZM180.53,323.97c0,1.11-.36,2.04-1.07,2.79-.72.74-1.56,1.11-2.54,1.11-.54,0-.99-.18-1.33-.54-.34-.36-.51-.86-.51-1.49,0-.91.33-1.61.98-2.11.88-.66,2.37-1.13,4.47-1.42v1.67Z"/>
      <path d="M193.42,326.67c-.4.53-.88.79-1.44.79-.47,0-.86-.18-1.17-.52-.31-.34-.46-.84-.46-1.48v-7.47h3.76v-1.14h-3.76v-4.75h-.83c-.06,1.65-.44,2.94-1.16,3.86-.48.61-1.18,1-2.11,1.16v.87h2.02v7.81c0,.86.27,1.55.81,2.07.54.53,1.29.79,2.25.79,1.04,0,1.89-.38,2.55-1.12.65-.75,1-1.9,1.05-3.45h-.83c-.07,1.2-.3,2.07-.7,2.58Z"/>
      <path d="M202.65,327.73c-1.1,0-2.01-.41-2.72-1.24-.62-.73-.95-1.98-.99-3.75h8.33c-.02-1.16-.17-2.12-.46-2.88-.41-1.08-1.03-1.91-1.85-2.5-.82-.58-1.79-.87-2.92-.87-1.53,0-2.82.58-3.87,1.75-1.05,1.16-1.57,2.69-1.57,4.58,0,1.75.53,3.19,1.6,4.32,1.06,1.12,2.37,1.69,3.93,1.69,2.28,0,4.03-1.18,5.24-3.53l-.81-.35c-.99,1.85-2.29,2.77-3.91,2.77ZM199.87,318.4c.6-.77,1.33-1.15,2.19-1.15.77,0,1.44.31,2.01.95.57.64.85,1.41.85,2.33,0,.49-.08.83-.25,1.03-.17.2-.4.3-.69.3h-5.04c.03-1.55.34-2.7.94-3.47Z"/>
      <path d="M227.74,318.94c-.83-.46-2.26-.9-4.31-1.35-1.46-.31-2.45-.61-2.98-.89-.52-.28-.92-.63-1.19-1.08-.26-.44-.39-.96-.39-1.55,0-.95.35-1.74,1.04-2.4.7-.66,1.59-.98,2.68-.98,1.31,0,2.47.47,3.47,1.41,1.01.95,1.77,2.45,2.28,4.5h.82l-.08-6.7h-.9l-1.12,1.6c-.74-.64-1.46-1.1-2.16-1.37-.7-.27-1.43-.41-2.2-.41-1.6,0-2.92.51-3.95,1.55-1.03,1.04-1.55,2.35-1.55,3.97s.51,2.74,1.55,3.58c.74.6,2.12,1.13,4.15,1.62,1.85.43,3.08.8,3.71,1.1.63.3,1.09.68,1.38,1.12.29.45.44.96.44,1.55,0,1.03-.39,1.92-1.16,2.64-.78.73-1.78,1.09-3,1.09-1.52,0-2.88-.57-4.09-1.7-1.21-1.14-1.99-2.68-2.33-4.64h-.89v7.12h.89l1.4-1.71c1.4,1.23,3.05,1.83,4.95,1.83,1.76,0,3.2-.54,4.32-1.63,1.11-1.08,1.67-2.46,1.67-4.12,0-.93-.2-1.74-.61-2.43-.4-.69-1.02-1.27-1.84-1.72Z"/>
      <path d="M237.89,327.77c-1.02,0-1.86-.43-2.53-1.29-.66-.86-.99-2.11-.99-3.77s.37-3.15,1.12-4.22c.52-.73,1.29-1.1,2.3-1.1.55,0,1,.11,1.31.34.33.23.49.46.49.7,0,.09-.07.21-.2.37-.28.33-.42.68-.42,1.04s.13.67.38.93c.26.25.58.38.95.38s.71-.15.98-.45c.28-.3.42-.69.42-1.15,0-.77-.37-1.47-1.12-2.1-.74-.63-1.69-.94-2.84-.94-1.52,0-2.84.57-3.97,1.7-1.13,1.13-1.69,2.72-1.69,4.78,0,1.77.52,3.19,1.54,4.26,1.03,1.07,2.35,1.6,3.96,1.6,2.2,0,3.63-1.18,4.27-3.56l-.81-.24c-.68,1.82-1.73,2.73-3.15,2.73Z"/>
      <path d="M255.73,327.31c-.18-.16-.27-.42-.27-.78v-5.53c0-.96-.17-1.79-.49-2.5-.33-.7-.72-1.19-1.18-1.47-.6-.36-1.27-.54-2.01-.54-.79,0-1.53.2-2.24.59-.71.4-1.36.99-1.97,1.78v-8.96l-4.41.21v.93h.84c.49,0,.87.13,1.13.37.26.24.39.62.39,1.11v13.89c0,.39-.1.68-.3.86-.2.19-.53.28-1.01.28h-.7v.94h6.15v-.94h-.99c-.4,0-.68-.09-.86-.26-.17-.17-.26-.47-.26-.88v-4.65c0-.69.17-1.35.51-1.98.34-.62.76-1.09,1.24-1.4.49-.3,1.02-.46,1.59-.46.73,0,1.32.27,1.8.82.46.54.7,1.3.7,2.26v5.53c0,.34-.09.6-.3.77-.2.17-.56.25-1.1.25h-.7v.94h6.29v-.94h-1c-.39,0-.67-.08-.86-.24Z"/>
      <path d="M264.48,316.5c-1.54,0-2.84.58-3.89,1.71-1.05,1.15-1.58,2.63-1.58,4.46s.52,3.3,1.57,4.45c1.05,1.14,2.33,1.71,3.83,1.71,1.02,0,1.97-.26,2.85-.78.89-.52,1.56-1.23,2.04-2.13.47-.9.72-1.99.72-3.26,0-1.85-.54-3.34-1.6-4.47-1.07-1.13-2.39-1.7-3.95-1.7ZM266.83,326.67c-.6.85-1.39,1.28-2.36,1.28s-1.7-.43-2.29-1.28c-.59-.85-.89-2.2-.89-4.04s.29-3.14.89-3.98c.6-.84,1.36-1.26,2.29-1.26.99,0,1.78.4,2.37,1.2.59.8.88,2.1.88,3.9,0,1.94-.3,3.33-.89,4.18Z"/>
      <path d="M277.19,316.5c-1.54,0-2.83.58-3.88,1.71-1.05,1.15-1.58,2.63-1.58,4.46s.53,3.3,1.57,4.45c1.05,1.14,2.33,1.71,3.83,1.71,1.02,0,1.97-.26,2.85-.78.88-.52,1.56-1.23,2.03-2.13.48-.9.72-1.99.72-3.26,0-1.85-.53-3.34-1.6-4.47-1.06-1.13-2.38-1.7-3.94-1.7ZM279.55,326.67c-.6.85-1.39,1.28-2.36,1.28s-1.7-.43-2.29-1.28c-.59-.85-.89-2.2-.89-4.04s.3-3.14.89-3.98c.6-.84,1.35-1.26,2.29-1.26.99,0,1.78.4,2.37,1.2.59.8.89,2.1.89,3.9,0,1.94-.3,3.33-.9,4.18Z"/>
      <path d="M289.03,327.3c-.14-.12-.21-.3-.21-.54v-16.86l-4.61.21v.93h1.04c.45,0,.83.14,1.13.4.22.19.34.49.34.91v14.16c0,.33-.09.59-.28.77-.19.18-.47.27-.85.27h-1.17v.94h6.6v-.94h-1.23c-.3,0-.55-.08-.76-.25Z"/>
      <rect x="300.51" y="320.73" width="39.41" height="1.31"/>
      <rect x="74.09" y="320.73" width="39.41" height="1.31"/>
      <path d="M0,276.53v1.19h1.31c.65,0,1.08.08,1.29.22.21.14.31.4.31.77v14.52c0,.32-.11.58-.32.79-.22.21-.52.32-.91.32H0v1.19h10.07v-1.19h-1.8c-.39,0-.72-.13-1-.38-.2-.17-.3-.44-.3-.81v-6.93h1.29c.63,0,1.19.15,1.67.46.48.31.86.73,1.13,1.28.27.55.43,1.29.46,2.23h1.13v-8.78h-1.13c-.32,2.43-1.49,3.65-3.54,3.65h-1.03v-6.37c0-.32.09-.56.28-.73.19-.17.49-.26.9-.26h2.81c1.54,0,2.68.39,3.43,1.17.74.78,1.22,2.17,1.42,4.2h1.16l-.19-6.56H0Z"/>
      <path d="M31.86,277.72h.28c.77,0,1.39.26,1.84.77.46.51.69,1.29.69,2.32v8.07c0,1.13-.2,2.07-.58,2.81-.39.75-.89,1.28-1.5,1.61-.83.43-1.76.65-2.78.65-1.39,0-2.47-.4-3.26-1.19-.79-.79-1.18-1.93-1.18-3.41v-10.52c0-.38.08-.65.23-.84.15-.18.37-.28.64-.28h1.94v-1.19h-9.56v1.19h1.4c.49,0,.83.09,1.02.28.19.19.28.52.28,1.02v10.68c0,1.39.25,2.51.76,3.35.51.84,1.37,1.53,2.58,2.07,1.21.53,2.64.8,4.27.8,2.29,0,4.09-.59,5.4-1.79,1.3-1.18,1.96-2.75,1.96-4.69v-8.76c0-.84.2-1.54.59-2.11.39-.57.97-.86,1.72-.86h.5v-1.19h-7.25v1.19Z"/>
      <path d="M54.81,292.89c-.88.97-1.83,1.45-2.86,1.45h-2.74c-.67,0-1.09-.08-1.27-.24-.18-.16-.27-.52-.27-1.1v-14.14c0-.4.09-.69.28-.87.19-.18.52-.27.99-.27h1.64v-1.19h-9.76v1.19h1.5c.47,0,.8.08.99.24.19.16.29.42.29.76v14.54c0,.34-.1.61-.28.79-.19.19-.47.29-.84.29h-1.67v1.19h16.72l.44-7.29h-1.16c-.47,2.12-1.15,3.67-2.03,4.64Z"/>
      <path d="M70.67,277.99c.18-.16.46-.24.85-.24.67,0,1.28.18,1.84.55.56.37,1.06.98,1.5,1.84.44.87.79,2.08,1.06,3.62h1.17l-.42-7.23h-16.62l-.41,7.23h1.13c.77-4,2.25-6.01,4.43-6.01.4,0,.68.08.87.25.18.16.27.42.27.76v14.62c0,.29-.09.52-.27.7-.18.17-.42.26-.73.26h-2.06v1.19h10.17v-1.19h-2.16c-.25,0-.46-.09-.64-.27-.18-.18-.26-.41-.26-.69v-14.71c0-.3.09-.53.27-.69Z"/>
      <path d="M83.74,294.63c1.45.86,3.09,1.29,4.93,1.29,2.76,0,5.07-.94,6.94-2.85,1.86-1.9,2.8-4.28,2.8-7.13,0-1.88-.42-3.56-1.27-5.06-.84-1.5-2.02-2.67-3.53-3.54-1.51-.87-3.16-1.3-4.95-1.3-2.72,0-5,.94-6.84,2.81-1.85,1.88-2.77,4.25-2.77,7.15,0,1.94.42,3.65,1.26,5.11.84,1.47,1.99,2.64,3.44,3.5ZM84.28,280.84c.44-1.25,1.03-2.16,1.79-2.72.75-.56,1.64-.84,2.66-.84s1.93.28,2.71.84c.78.56,1.37,1.41,1.76,2.55.39,1.14.59,2.85.59,5.13,0,3.25-.46,5.54-1.37,6.85-.92,1.32-2.14,1.97-3.68,1.97-1.04,0-1.94-.28-2.72-.84-.78-.57-1.38-1.44-1.78-2.61-.41-1.18-.61-2.91-.61-5.2s.22-3.89.66-5.13Z"/>
      <path d="M113.99,277.72c.91.06,1.62.36,2.12.88.5.52.74,1.22.74,2.1v8.86l-10.3-13.03h-5.9v1.19h.85c.89,0,1.62.38,2.2,1.14v12.27c0,.94-.26,1.71-.77,2.31-.51.6-1.15.9-1.9.9h-.53v1.19h7.68v-1.19h-.33c-.8,0-1.48-.27-2.02-.82-.54-.54-.82-1.41-.82-2.6v-10.39l11.72,15h1.48v-14.83c0-.93.21-1.64.63-2.11.42-.48,1.12-.77,2.08-.87v-1.19h-6.94v1.19Z"/>
      <path d="M145.45,289.83c0-1.17-.28-2.16-.84-2.99-.56-.82-1.4-1.48-2.51-1.97-.71-.31-1.98-.66-3.82-1.04-1.57-.33-2.67-.64-3.3-.95-.63-.3-1.09-.67-1.37-1.09-.28-.43-.42-.9-.42-1.41,0-.87.36-1.61,1.07-2.23.71-.62,1.64-.93,2.78-.93,1.34,0,2.56.47,3.66,1.4,1.11.94,1.96,2.35,2.56,4.24h1.16l-.11-6.56h-.91l-1.2,1.7c-1.56-1.3-3.28-1.94-5.16-1.94s-3.51.55-4.67,1.64c-1.16,1.09-1.74,2.5-1.74,4.23,0,1.03.21,1.9.63,2.62.42.71,1.08,1.32,1.97,1.81.9.5,2.39.97,4.49,1.43,1.56.34,2.54.58,2.93.73.72.29,1.25.66,1.59,1.11.34.46.51,1.02.51,1.7,0,.97-.39,1.78-1.17,2.42-.78.65-1.87.97-3.27.97-3.43,0-5.71-2-6.83-6.03h-1.13v7.05h.95l1.5-1.88c1.64,1.38,3.45,2.07,5.43,2.07,2.15,0,3.95-.63,5.41-1.89,1.21-1.05,1.81-2.44,1.81-4.2Z"/>
      <path d="M165.57,288.89h-1.16c-.32,1.69-.87,2.96-1.67,3.83-1.1,1.19-2.47,1.79-4.09,1.79s-2.85-.59-3.68-1.78c-1.04-1.51-1.56-3.84-1.56-6.96,0-2.96.47-5.12,1.42-6.49.94-1.37,2.13-2.05,3.57-2.05,1.31,0,2.48.53,3.5,1.59,1.02,1.06,1.71,2.69,2.08,4.88h1.18l-.32-7.62h-.95l-.89,1.89c-.9-.7-1.74-1.2-2.53-1.49-.78-.29-1.63-.43-2.55-.43-2.32,0-4.35.81-6.08,2.43-2.03,1.9-3.05,4.44-3.05,7.63,0,2.87.88,5.23,2.64,7.06,1.76,1.84,3.94,2.75,6.55,2.75,2.02,0,3.71-.63,5.09-1.89,1.38-1.26,2.21-2.97,2.48-5.14Z"/>
      <path d="M175.34,277.94c.17-.14.45-.22.82-.22h1.76v-1.19h-9.74v1.19h1.69c.41,0,.71.09.91.26.19.17.29.44.29.79v14.55c0,.33-.1.58-.31.76-.21.17-.57.26-1.09.26h-1.49v1.19h9.74v-1.19h-1.57c-.44,0-.77-.09-1-.29-.18-.15-.27-.39-.27-.73v-14.72c0-.29.09-.51.26-.67Z"/>
      <path d="M182.4,294.04c-.2.2-.5.3-.88.3h-1.71v1.19h17.26l.28-7.23h-1.16c-.24,2.02-.86,3.53-1.85,4.54-.99,1-2.27,1.5-3.84,1.5h-2.29c-.51,0-.91-.09-1.18-.29-.18-.13-.27-.34-.27-.66v-7.03h.73c1.14,0,1.99.3,2.56.9.57.6.89,1.64.97,3.1h1.16v-8.84h-1.16c-.11,1.29-.43,2.23-1,2.82-.56.58-1.35.87-2.37.87h-.89v-6.6c0-.28.09-.5.27-.66.18-.16.47-.24.88-.24h2.6c1.04,0,1.89.17,2.54.52.65.34,1.17.86,1.57,1.55.4.69.73,1.82.99,3.39h1.13l-.37-6.65h-16.56v1.19h1.51c.52,0,.88.08,1.09.22.2.14.3.37.3.68v14.63c0,.33-.1.6-.3.79Z"/>
      <path d="M217.4,280.7c0-.93.21-1.64.63-2.11.42-.48,1.11-.77,2.08-.87v-1.19h-6.94v1.19c.92.06,1.62.36,2.12.88.49.52.74,1.22.74,2.1v8.86l-10.3-13.03h-5.9v1.19h.85c.89,0,1.62.38,2.2,1.14v12.27c0,.94-.26,1.71-.77,2.31-.51.6-1.15.9-1.9.9h-.52v1.19h7.68v-1.19h-.32c-.8,0-1.48-.27-2.02-.82-.54-.54-.82-1.41-.82-2.6v-10.39l11.72,15h1.49v-14.83Z"/>
      <path d="M239.63,288.89h-1.16c-.32,1.69-.87,2.96-1.67,3.83-1.11,1.19-2.47,1.79-4.09,1.79s-2.84-.59-3.67-1.78c-1.03-1.51-1.55-3.84-1.55-6.96,0-2.96.47-5.12,1.41-6.49.94-1.37,2.13-2.05,3.57-2.05,1.31,0,2.48.53,3.5,1.59,1.02,1.06,1.71,2.69,2.08,4.88h1.19l-.32-7.62h-.95l-.88,1.89c-.9-.7-1.74-1.2-2.53-1.49-.78-.29-1.63-.43-2.55-.43-2.32,0-4.35.81-6.08,2.43-2.03,1.9-3.05,4.44-3.05,7.63,0,2.87.88,5.23,2.64,7.06,1.76,1.84,3.95,2.75,6.55,2.75,2.01,0,3.7-.63,5.09-1.89,1.38-1.26,2.21-2.97,2.48-5.14Z"/>
      <path d="M259.74,288.3h-1.16c-.24,2.02-.86,3.53-1.85,4.54-1,1-2.27,1.5-3.84,1.5h-2.29c-.52,0-.91-.09-1.18-.29-.18-.13-.27-.34-.27-.66v-7.03h.73c1.14,0,2,.3,2.56.9.57.6.89,1.64.96,3.1h1.16v-8.84h-1.16c-.11,1.29-.43,2.23-1,2.82-.56.58-1.35.87-2.37.87h-.89v-6.6c0-.28.09-.5.27-.66.18-.16.47-.24.88-.24h2.6c1.04,0,1.89.17,2.54.52.65.34,1.17.86,1.56,1.55.4.69.73,1.82,1,3.39h1.13l-.37-6.65h-16.56v1.19h1.5c.53,0,.89.08,1.09.22.2.14.3.37.3.68v14.63c0,.33-.1.6-.3.79-.2.2-.49.3-.88.3h-1.71v1.19h17.26l.28-7.23Z"/>
      <path d="M282.24,294.12c-.25.15-.7.22-1.36.22h-.84v1.19h8.92v-1.19h-.7c-.39,0-.71-.09-.95-.26-.24-.17-.47-.5-.67-.98l-7.12-17.06h-1.45l-6.82,16.27c-.28.64-.67,1.17-1.16,1.58-.35.29-.76.44-1.22.44h-.42v1.19h7.22v-1.19h-.61c-.71,0-1.27-.18-1.68-.52-.42-.35-.62-.8-.62-1.36,0-.33.14-.82.43-1.49l.68-1.61h7.12l1.47,3.52c.1.25.15.47.15.66,0,.24-.12.43-.38.58ZM274.41,288.1l3.04-7.24,3.02,7.24h-6.06Z"/>
      <path d="M307.61,288.89h-1.16c-.31,1.69-.87,2.96-1.67,3.83-1.11,1.19-2.47,1.79-4.09,1.79s-2.85-.59-3.67-1.78c-1.04-1.51-1.56-3.84-1.56-6.96,0-2.96.47-5.12,1.41-6.49.94-1.37,2.14-2.05,3.57-2.05,1.31,0,2.47.53,3.5,1.59,1.02,1.06,1.72,2.69,2.08,4.88h1.18l-.32-7.62h-.95l-.88,1.89c-.9-.7-1.74-1.2-2.53-1.49-.78-.29-1.63-.43-2.55-.43-2.32,0-4.35.81-6.08,2.43-2.03,1.9-3.04,4.44-3.04,7.63,0,2.87.88,5.23,2.64,7.06,1.76,1.84,3.94,2.75,6.55,2.75,2.01,0,3.71-.63,5.09-1.89,1.38-1.26,2.21-2.97,2.48-5.14Z"/>
      <path d="M322.69,294.12c-.25.15-.7.22-1.36.22h-.83v1.19h8.92v-1.19h-.7c-.4,0-.71-.09-.95-.26-.24-.17-.47-.5-.67-.98l-7.13-17.06h-1.44l-6.82,16.27c-.28.64-.66,1.17-1.16,1.58-.35.29-.76.44-1.23.44h-.41v1.19h7.22v-1.19h-.6c-.72,0-1.28-.18-1.69-.52-.41-.35-.62-.8-.62-1.36,0-.33.14-.82.43-1.49l.67-1.61h7.12l1.46,3.52c.1.25.16.47.16.66,0,.24-.13.43-.38.58ZM314.86,288.1l3.04-7.24,3.02,7.24h-6.06Z"/>
      <path d="M345.35,277.71c-1.4-.79-3.04-1.18-4.9-1.18h-10.23v1.19h1.4c.49,0,.83.09,1.04.27.2.17.31.46.31.84v14.32c0,.37-.1.67-.3.88-.2.21-.49.32-.88.32h-1.58v1.19h10.61c1.66,0,3.22-.42,4.66-1.25,1.45-.83,2.54-1.95,3.27-3.35.73-1.4,1.09-3.05,1.09-4.94s-.39-3.46-1.19-4.92c-.8-1.45-1.9-2.58-3.31-3.37ZM344.66,291.03c-.4,1.03-1.06,1.83-1.96,2.42-.91.59-1.95.89-3.12.89h-1.39c-.38,0-.67-.09-.84-.29-.18-.19-.26-.5-.26-.92v-14.39c0-.39.11-.65.32-.79.22-.14.76-.22,1.63-.22,1.58,0,2.77.26,3.59.77.81.51,1.46,1.37,1.94,2.57.48,1.21.71,2.94.71,5.2s-.2,3.74-.61,4.77Z"/>
      <path d="M366.61,292.84c-.99,1-2.27,1.5-3.84,1.5h-2.29c-.51,0-.91-.09-1.18-.29-.18-.13-.27-.34-.27-.66v-7.03h.73c1.14,0,1.99.3,2.56.9.57.6.89,1.64.97,3.1h1.16v-8.84h-1.16c-.1,1.29-.44,2.23-1,2.82-.56.58-1.35.87-2.37.87h-.89v-6.6c0-.28.09-.5.27-.66.18-.16.47-.24.88-.24h2.59c1.05,0,1.89.17,2.54.52.65.34,1.17.86,1.57,1.55.4.69.73,1.82,1,3.39h1.13l-.37-6.65h-16.56v1.19h1.5c.52,0,.88.08,1.09.22.2.14.3.37.3.68v14.63c0,.33-.1.6-.3.79-.2.2-.5.3-.88.3h-1.71v1.19h17.26l.28-7.23h-1.16c-.24,2.02-.85,3.53-1.85,4.54Z"/>
      <path d="M383.93,289.41l-4.32-12.88h-7.65v1.19h1.5c.52,0,.86.09,1.04.26.18.17.27.52.27,1.04v12.29c0,.85-.24,1.54-.74,2.09-.49.55-1.19.86-2.08.94v1.19h7.05v-1.19c-.96-.1-1.69-.41-2.2-.92-.51-.51-.76-1.16-.76-1.96v-13.89l6.03,17.97h1.14l6.04-17.82v15.56c0,.33-.09.6-.26.78-.18.19-.43.29-.77.29h-1.82v1.19h9.68v-1.19h-1.51c-.44,0-.79-.1-1.05-.31-.17-.14-.26-.39-.26-.76v-14.52c0-.38.08-.65.24-.8.16-.16.45-.24.87-.24h1.7v-1.19h-7.85l-4.3,12.88Z"/>
      <path d="M408.67,276.53v1.19h.58c.61,0,1.07.12,1.37.37.3.25.45.59.45,1.02,0,.38-.11.8-.35,1.26l-2.78,5.53-3.96-6.82c-.15-.28-.23-.52-.23-.73,0-.19.09-.34.27-.45.18-.12.5-.18.96-.18h1.31v-1.19h-9.46v1.19h.41c.54,0,1.01.11,1.37.31.37.21.71.59,1.04,1.15l5.12,8.8v5.31c0,.36-.09.62-.27.79-.18.17-.49.25-.94.25h-1.95v1.19h10.41v-1.19h-1.97c-.41,0-.71-.09-.91-.26-.2-.17-.28-.43-.28-.78v-5.98l3.81-7.54c.36-.71.8-1.23,1.31-1.55.51-.32,1.19-.49,2.04-.51v-1.19h-7.35Z"/>
    </g>
  </g>
</svg>