<?xml version="1.0" encoding="UTF-8"?>
<svg id="_레이어_2" data-name="레이어 2" xmlns="http://www.w3.org/2000/svg" viewBox="0 0 1256.48 634.46">
  <g id="_레이어_1-2" data-name="레이어 1">
    <g>
      <path d="M24,154.83c-12.27-9.09-18.87-22.1-19.8-39.03h48.7c.47,5.75,2.17,9.94,5.13,12.58,2.95,2.64,6.76,3.96,11.42,3.96,4.19,0,7.65-1.05,10.37-3.15,2.72-2.1,4.08-5.01,4.08-8.74,0-4.81-2.25-8.54-6.76-11.18-4.51-2.64-11.81-5.59-21.9-8.85-10.72-3.57-19.38-7.03-25.98-10.37-6.6-3.34-12.35-8.23-17.24-14.68-4.89-6.44-7.34-14.87-7.34-25.28s2.64-19.61,7.92-27.14c5.28-7.53,12.58-13.24,21.9-17.12C43.8,1.94,54.37,0,66.17,0c19.11,0,34.37,4.47,45.79,13.4,11.42,8.93,17.51,21.48,18.29,37.63h-49.63c-.16-4.97-1.67-8.7-4.54-11.18-2.88-2.48-6.56-3.73-11.07-3.73-3.42,0-6.21,1.01-8.39,3.03-2.18,2.02-3.26,4.89-3.26,8.62,0,3.11,1.2,5.79,3.61,8.04,2.41,2.25,5.4,4.19,8.97,5.83,3.57,1.63,8.85,3.69,15.84,6.17,10.4,3.58,18.99,7.11,25.75,10.6s12.58,8.39,17.48,14.68c4.89,6.29,7.34,14.25,7.34,23.88s-2.45,18.56-7.34,26.33c-4.89,7.77-11.96,13.9-21.2,18.41-9.24,4.51-20.15,6.76-32.74,6.76-19.11,0-34.8-4.54-47.07-13.63Z"/>
      <path d="M278.37,2.56v36.35h-43.8v127.92h-45.67V38.91h-43.34V2.56h132.81Z"/>
      <path d="M342.98,39.14v26.79h52.42v34.72h-52.42v29.59h59.42v36.58h-105.08V2.56h105.08v36.58h-59.42Z"/>
      <path d="M556.38,84.46c-4.58,8.15-11.5,14.68-20.74,19.57-9.24,4.89-20.54,7.34-33.9,7.34h-22.6v55.45h-45.67V2.56h68.27c13.2,0,24.42,2.33,33.67,6.99,9.24,4.66,16.19,11.11,20.85,19.34,4.66,8.23,6.99,17.71,6.99,28.43,0,9.94-2.29,18.99-6.87,27.14ZM516.66,57.32c0-11.96-6.45-17.94-19.34-17.94h-18.17v35.65h18.17c12.89,0,19.34-5.9,19.34-17.71Z"/>
      <path d="M739.18,2.56v164.26h-45.67V2.56h45.67Z"/>
      <path d="M925.11,166.83h-45.67l-60.81-91.8v91.8h-45.67V2.56h45.67l60.81,92.97V2.56h45.67v164.26Z"/>
      <path d="M1076.98,2.56v36.35h-43.8v127.92h-45.67V38.91h-43.34V2.56h132.81Z"/>
      <path d="M1129.96,157.62c-12.9-7.22-23.11-17.24-30.64-30.06-7.54-12.81-11.3-27.3-11.3-43.45s3.76-30.64,11.3-43.46c7.53-12.81,17.74-22.79,30.64-29.94,12.89-7.14,27.03-10.72,42.41-10.72s29.71,3.58,42.52,10.72c12.82,7.15,22.95,17.13,30.41,29.94,7.46,12.82,11.18,27.3,11.18,43.46s-3.73,30.64-11.18,43.45c-7.46,12.82-17.63,22.83-30.52,30.06-12.9,7.22-27.03,10.83-42.41,10.83s-29.51-3.61-42.41-10.83ZM1199.98,114.64c6.76-7.61,10.14-17.78,10.14-30.52s-3.38-23.34-10.14-30.87c-6.76-7.53-15.96-11.3-27.61-11.3s-21.05,3.77-27.73,11.3c-6.68,7.54-10.02,17.83-10.02,30.87s3.34,23.11,10.02,30.64c6.68,7.54,15.92,11.3,27.73,11.3s20.85-3.8,27.61-11.42Z"/>
      <path d="M132.81,235.56v36.35h-43.8v127.92h-45.67v-127.92H0v-36.35h132.81Z"/>
      <path d="M298.78,235.56v164.26h-45.67v-65.94h-55.69v65.94h-45.67v-164.26h45.67v61.75h55.69v-61.75h45.67Z"/>
      <path d="M378.39,272.14v26.79h52.42v34.72h-52.42v29.59h59.42v36.58h-105.08v-164.26h105.08v36.58h-59.42Z"/>
      <path d="M780.79,399.83h-45.67l-60.81-91.8v91.8h-45.67v-164.26h45.67l60.81,92.97v-92.97h45.67v164.26Z"/>
      <path d="M860.4,272.14v26.79h52.42v34.72h-52.42v29.59h59.42v36.58h-105.08v-164.26h105.08v36.58h-59.42Z"/>
      <path d="M1049.41,399.83l-31.92-46.37-27.26,46.37h-51.96l53.36-84.11-55.22-80.15h53.82l30.99,45.2,26.56-45.2h51.96l-52.66,82.71,56.15,81.55h-53.82Z"/>
      <path d="M1247.98,235.56v36.35h-43.8v127.92h-45.67v-127.92h-43.34v-36.35h132.81Z"/>
      <path d="M120.46,468.56v36.35H54.75v28.89h48.46v34.72h-48.46v64.31H9.09v-164.26h111.37Z"/>
      <path d="M237.01,632.83l-32.62-60.58h-4.89v60.58h-45.67v-164.26h72c13.2,0,24.38,2.29,33.55,6.87,9.16,4.58,16.08,10.88,20.74,18.87,4.66,8,6.99,16.97,6.99,26.91,0,11.18-3.07,21.01-9.2,29.47-6.14,8.47-15.11,14.49-26.91,18.06l37.05,64.08h-51.03ZM199.5,541.03h22.6c6.21,0,10.87-1.47,13.98-4.43,3.11-2.95,4.66-7.22,4.66-12.82,0-5.28-1.59-9.44-4.78-12.47-3.19-3.03-7.81-4.54-13.86-4.54h-22.6v34.25Z"/>
      <path d="M355.41,623.62c-12.9-7.22-23.11-17.24-30.64-30.06-7.54-12.81-11.3-27.3-11.3-43.45s3.76-30.64,11.3-43.46c7.53-12.81,17.74-22.79,30.64-29.94,12.89-7.14,27.03-10.72,42.41-10.72s29.71,3.58,42.52,10.72c12.82,7.15,22.95,17.13,30.41,29.94,7.46,12.82,11.18,27.3,11.18,43.46s-3.73,30.64-11.18,43.45c-7.46,12.82-17.63,22.83-30.52,30.06-12.9,7.22-27.03,10.83-42.41,10.83s-29.51-3.61-42.41-10.83ZM425.43,580.64c6.76-7.61,10.14-17.78,10.14-30.52s-3.38-23.34-10.14-30.87c-6.76-7.53-15.96-11.3-27.61-11.3s-21.05,3.77-27.73,11.3c-6.68,7.54-10.02,17.83-10.02,30.87s3.34,23.11,10.02,30.64c6.68,7.54,15.92,11.3,27.73,11.3s20.85-3.8,27.61-11.42Z"/>
      <path d="M669.99,632.83h-45.67l-60.81-91.8v91.8h-45.67v-164.26h45.67l60.81,92.97v-92.97h45.67v164.26Z"/>
      <path d="M835,468.56v36.35h-43.8v127.92h-45.67v-127.92h-43.34v-36.35h132.81Z"/>
      <path d="M916.73,468.56v164.26h-45.67v-164.26h45.67Z"/>
      <path d="M1006.33,505.14v26.79h52.42v34.72h-52.42v29.59h59.42v36.58h-105.08v-164.26h105.08v36.58h-59.42Z"/>
      <path d="M1188.15,632.83l-32.62-60.58h-4.89v60.58h-45.67v-164.26h72c13.2,0,24.38,2.29,33.55,6.87,9.16,4.58,16.08,10.88,20.74,18.87,4.66,8,6.99,16.97,6.99,26.91,0,11.18-3.07,21.01-9.2,29.47-6.14,8.47-15.11,14.49-26.91,18.06l37.05,64.08h-51.03ZM1150.64,541.03h22.6c6.21,0,10.87-1.47,13.98-4.43,3.11-2.95,4.66-7.22,4.66-12.82,0-5.28-1.59-9.44-4.78-12.47-3.19-3.03-7.81-4.54-13.86-4.54h-22.6v34.25Z"/>
    </g>
  </g>
</svg>