<?xml version="1.0" encoding="UTF-8"?>
<svg id="_레이어_2" data-name="레이어 2" xmlns="http://www.w3.org/2000/svg" viewBox="0 0 1113.8 608.13">
  <g id="_레이어_1-2" data-name="레이어 1">
    <g>
      <path d="M32.74,160.42c-8.47-3.8-15.11-9.09-19.92-15.84-4.82-6.76-7.3-14.56-7.46-23.42h22.6c.78,7.61,3.92,14.02,9.44,19.22,5.51,5.21,13.55,7.81,24.12,7.81s18.06-2.52,23.88-7.57c5.83-5.05,8.74-11.53,8.74-19.46,0-6.21-1.71-11.26-5.13-15.15-3.42-3.88-7.69-6.83-12.81-8.85-5.13-2.02-12.04-4.19-20.74-6.52-10.72-2.8-19.3-5.59-25.75-8.39-6.45-2.8-11.96-7.18-16.54-13.16-4.58-5.98-6.87-14.02-6.87-24.12,0-8.85,2.25-16.7,6.76-23.53,4.5-6.83,10.83-12.12,18.99-15.84C40.19,1.86,49.55,0,60.11,0c15.22,0,27.69,3.81,37.4,11.42,9.71,7.61,15.18,17.71,16.43,30.29h-23.3c-.78-6.21-4.04-11.69-9.79-16.43-5.75-4.74-13.36-7.11-22.83-7.11-8.85,0-16.08,2.29-21.67,6.87-5.59,4.58-8.39,10.99-8.39,19.22,0,5.9,1.67,10.72,5.01,14.45,3.34,3.73,7.46,6.56,12.35,8.5,4.89,1.94,11.77,4.16,20.62,6.64,10.72,2.95,19.34,5.87,25.86,8.74,6.52,2.88,12.12,7.3,16.78,13.28,4.66,5.98,6.99,14.1,6.99,24.35,0,7.92-2.1,15.38-6.29,22.37-4.19,6.99-10.41,12.66-18.64,17.01-8.23,4.35-17.94,6.52-29.12,6.52s-20.31-1.9-28.78-5.71Z"/>
      <path d="M244.44,2.1v17.24h-44.27v145.16h-21.2V19.34h-44.5V2.1h109.98Z"/>
      <path d="M291.23,19.34v54.29h59.18v17.48h-59.18v55.92h66.17v17.47h-87.38V1.86h87.38v17.47h-66.17Z"/>
      <path d="M483.68,83.3c-9.24,8.93-23.34,13.4-42.29,13.4h-31.22v67.8h-21.2V2.1h52.42c18.33,0,32.27,4.43,41.82,13.28,9.55,8.85,14.33,20.27,14.33,34.25s-4.62,24.74-13.86,33.67ZM467.49,71.53c5.59-5.13,8.39-12.43,8.39-21.9,0-20.04-11.5-30.06-34.48-30.06h-31.22v59.65h31.22c11.8,0,20.5-2.56,26.1-7.69Z"/>
      <path d="M638.97,2.1v162.4h-21.2V2.1h21.2Z"/>
      <path d="M806.71,164.5h-21.2l-85.28-129.32v129.32h-21.2V1.86h21.2l85.28,129.08V1.86h21.2v162.63Z"/>
      <path d="M942.13,2.1v17.24h-44.27v145.16h-21.2V19.34h-44.5V2.1h109.98Z"/>
      <path d="M991.01,155.53c-12.43-7.07-22.25-16.93-29.47-29.59-7.22-12.66-10.83-26.91-10.83-42.76s3.61-30.09,10.83-42.75c7.22-12.66,17.04-22.52,29.47-29.59,12.43-7.07,26.17-10.6,41.24-10.6s29.04,3.54,41.47,10.6c12.43,7.07,22.21,16.89,29.36,29.47,7.14,12.58,10.72,26.88,10.72,42.87s-3.58,30.29-10.72,42.87c-7.15,12.58-16.93,22.41-29.36,29.47-12.43,7.07-26.25,10.6-41.47,10.6s-28.82-3.53-41.24-10.6ZM1062.89,139.8c9.09-5.28,16.23-12.81,21.44-22.6,5.2-9.79,7.81-21.12,7.81-34.02s-2.6-24.42-7.81-34.13c-5.21-9.71-12.31-17.2-21.32-22.48-9.01-5.28-19.26-7.92-30.76-7.92s-21.75,2.64-30.76,7.92c-9.01,5.28-16.12,12.78-21.32,22.48-5.21,9.71-7.8,21.09-7.8,34.13s2.6,24.23,7.8,34.02c5.2,9.79,12.35,17.32,21.44,22.6,9.09,5.28,19.3,7.92,30.64,7.92s21.55-2.64,30.64-7.92Z"/>
      <path d="M109.98,223.1v17.24h-44.27v145.16h-21.2v-145.16H0v-17.24h109.98Z"/>
      <path d="M260.68,223.1v162.4h-21.2v-73.63h-82.72v73.63h-21.2v-162.4h21.2v71.3h82.72v-71.3h21.2Z"/>
      <path d="M321.89,240.34v54.29h59.18v17.48h-59.18v55.92h66.17v17.47h-87.38v-162.63h87.38v17.47h-66.17Z"/>
      <path d="M701.15,385.5h-21.2l-85.28-129.32v129.32h-21.2v-162.63h21.2l85.28,129.08v-129.08h21.2v162.63Z"/>
      <path d="M762.36,240.34v54.29h59.18v17.48h-59.18v55.92h66.17v17.47h-87.38v-162.63h87.38v17.47h-66.17Z"/>
      <path d="M927.23,304.41l49.86,81.08h-24l-38.91-63.38-37.05,63.38h-23.53l49.63-81.08-49.86-81.32h23.77l39.14,63.61,37.28-63.61h23.77l-50.1,81.32Z"/>
      <path d="M1108.67,223.1v17.24h-44.27v145.16h-21.2v-145.16h-44.5v-17.24h109.98Z"/>
      <path d="M103.82,444.1v17.24H33.22v54.75h57.32v17.24h-57.32v73.16H12.02v-162.4h91.8Z"/>
      <path d="M222.75,606.5l-38.68-66.41h-25.63v66.41h-21.2v-162.4h52.42c12.27,0,22.64,2.1,31.11,6.29,8.46,4.19,14.79,9.87,18.99,17.01,4.19,7.15,6.29,15.3,6.29,24.46,0,11.18-3.23,21.05-9.67,29.59-6.45,8.54-16.12,14.21-29.01,17.01l40.77,68.04h-25.4ZM158.44,523.08h31.22c11.49,0,20.11-2.83,25.86-8.5,5.75-5.67,8.62-13.24,8.62-22.72s-2.84-17.09-8.5-22.37c-5.67-5.28-14.33-7.92-25.98-7.92h-31.22v61.51Z"/>
      <path d="M320.04,597.53c-12.43-7.07-22.25-16.93-29.47-29.59-7.22-12.66-10.83-26.91-10.83-42.76s3.61-30.09,10.83-42.75c7.22-12.66,17.04-22.52,29.47-29.59,12.43-7.07,26.17-10.6,41.24-10.6s29.04,3.54,41.47,10.6c12.43,7.07,22.21,16.89,29.36,29.47,7.14,12.58,10.72,26.88,10.72,42.87s-3.58,30.29-10.72,42.87c-7.15,12.58-16.93,22.41-29.36,29.47-12.43,7.07-26.25,10.6-41.47,10.6s-28.82-3.53-41.24-10.6ZM391.92,581.8c9.09-5.28,16.23-12.81,21.44-22.6,5.2-9.79,7.81-21.12,7.81-34.02s-2.6-24.42-7.81-34.13c-5.21-9.71-12.31-17.2-21.32-22.48-9.01-5.28-19.26-7.92-30.76-7.92s-21.75,2.64-30.76,7.92c-9.01,5.28-16.12,12.78-21.32,22.48-5.21,9.71-7.8,21.09-7.8,34.13s2.6,24.23,7.8,34.02c5.2,9.79,12.35,17.32,21.44,22.6,9.09,5.28,19.3,7.92,30.64,7.92s21.55-2.64,30.64-7.92Z"/>
      <path d="M611.76,606.5h-21.2l-85.28-129.32v129.32h-21.2v-162.63h21.2l85.28,129.08v-129.08h21.2v162.63Z"/>
      <path d="M757.22,444.1v17.24h-44.27v145.16h-21.2v-145.16h-44.5v-17.24h109.98Z"/>
      <path d="M814.02,444.1v162.4h-21.2v-162.4h21.2Z"/>
      <path d="M885.31,461.34v54.29h59.18v17.48h-59.18v55.92h66.17v17.47h-87.38v-162.63h87.38v17.47h-66.17Z"/>
      <path d="M1078.61,606.5l-38.68-66.41h-25.63v66.41h-21.2v-162.4h52.42c12.27,0,22.64,2.1,31.11,6.29,8.46,4.19,14.79,9.87,18.99,17.01,4.19,7.15,6.29,15.3,6.29,24.46,0,11.18-3.23,21.05-9.67,29.59-6.45,8.54-16.12,14.21-29.01,17.01l40.77,68.04h-25.4ZM1014.3,523.08h31.22c11.49,0,20.11-2.83,25.86-8.5,5.75-5.67,8.62-13.24,8.62-22.72s-2.84-17.09-8.5-22.37c-5.67-5.28-14.33-7.92-25.98-7.92h-31.22v61.51Z"/>
    </g>
  </g>
</svg>